300-italic.ufo
<glyph name="exclam" format="2">
  <advance width="275"/>
  <unicode hex="0021"/>
  <outline>
    <contour>
      <point x="198" y="700" type="line"/>
      <point x="264" y="700" type="line"/>
      <point x="165" y="200" type="line"/>
      <point x="126" y="200" type="line"/>
    </contour>
    <contour>
      <point x="78" y="24" type="curve" smooth="yes"/>
      <point x="78" y="45"/>
      <point x="95" y="62"/>
      <point x="115" y="62" type="curve" smooth="yes"/>
      <point x="135" y="62"/>
      <point x="152" y="45"/>
      <point x="152" y="24" type="curve" smooth="yes"/>
      <point x="152" y="3"/>
      <point x="135" y="-13"/>
      <point x="115" y="-13" type="curve" smooth="yes"/>
      <point x="95" y="-13"/>
      <point x="78" y="3"/>
    </contour>
  </outline>
</glyph>
<glyph name="quotedbl" format="2">
  <advance width="426"/>
  <unicode hex="0022"/>
  <outline>
    <contour>
      <point x="220" y="700" type="line"/>
      <point x="283" y="700" type="line"/>
      <point x="162" y="409" type="line"/>
      <point x="126" y="408" type="line"/>
    </contour>
    <contour>
      <point x="395" y="700" type="line"/>
      <point x="458" y="700" type="line"/>
      <point x="337" y="409" type="line"/>
      <point x="301" y="408" type="line"/>
    </contour>
  </outline>
</glyph>
<glyph name="numbersign" format="2">
  <advance width="573"/>
  <unicode hex="0023"/>
  <outline>
    <contour>
      <point x="122" y="446" type="line"/>
      <point x="128" y="488" type="line"/>
      <point x="596" y="488" type="line"/>
      <point x="589" y="446" type="line"/>
      <point x="464" y="446" type="line"/>
      <point x="454" y="446" type="line"/>
      <point x="262" y="446" type="line"/>
      <point x="252" y="446" type="line"/>
    </contour>
    <contour>
      <point x="44" y="216" type="line"/>
      <point x="50" y="259" type="line"/>
      <point x="172" y="259" type="line"/>
      <point x="184" y="259" type="line"/>
      <point x="378" y="259" type="line"/>
      <point x="393" y="259" type="line"/>
      <point x="518" y="259" type="line"/>
      <point x="512" y="216" type="line"/>
    </contour>
    <contour>
      <point x="539" y="700" type="line"/>
      <point x="589" y="700" type="line"/>
      <point x="303" y="0" type="line"/>
      <point x="254" y="0" type="line"/>
      <point x="350" y="234" type="line"/>
      <point x="354" y="246" type="line"/>
      <point x="442" y="460" type="line"/>
      <point x="446" y="472" type="line"/>
    </contour>
    <contour>
      <point x="335" y="700" type="line"/>
      <point x="385" y="700" type="line"/>
      <point x="292" y="474" type="line"/>
      <point x="288" y="463" type="line"/>
      <point x="199" y="244" type="line"/>
      <point x="195" y="233" type="line"/>
      <point x="100" y="0" type="line"/>
      <point x="51" y="0" type="line"/>
    </contour>
  </outline>
</glyph>
<glyph name="dollar" format="2">
  <advance width="562"/>
  <unicode hex="0024"/>
  <outline>
    <contour>
      <point x="356" y="818" type="line"/>
      <point x="404" y="818" type="line"/>
      <point x="382" y="682" type="line"/>
      <point x="334" y="682" type="line"/>
    </contour>
    <contour>
      <point x="235" y="28" type="line"/>
      <point x="282" y="28" type="line"/>
      <point x="260" y="-112" type="line"/>
      <point x="212" y="-112" type="line"/>
    </contour>
    <contour>
      <point x="488" y="528" type="line"/>
      <point x="470" y="591"/>
      <point x="437" y="655"/>
      <point x="355" y="656" type="curve" smooth="yes"/>
      <point x="278" y="657"/>
      <point x="217" y="610"/>
      <point x="206" y="540" type="curve" smooth="yes"/>
      <point x="192" y="456"/>
      <point x="271" y="417"/>
      <point x="345" y="385" type="curve" smooth="yes"/>
      <point x="424" y="351"/>
      <point x="499" y="290"/>
      <point x="486" y="184" type="curve" smooth="yes"/>
      <point x="471" y="74"/>
      <point x="387" y="-8"/>
      <point x="260" y="-8" type="curve" smooth="yes"/>
      <point x="144" y="-8"/>
      <point x="83" y="85"/>
      <point x="59" y="188" type="curve"/>
      <point x="108" y="214" type="line"/>
      <point x="130" y="127"/>
      <point x="170" y="44"/>
      <point x="268" y="44" type="curve" smooth="yes"/>
      <point x="359" y="44"/>
      <point x="416" y="101"/>
      <point x="428" y="180" type="curve" smooth="yes"/>
      <point x="441" y="270"/>
      <point x="369" y="314"/>
      <point x="296" y="346" type="curve" smooth="yes"/>
      <point x="219" y="380"/>
      <point x="136" y="437"/>
      <point x="150" y="544" type="curve" smooth="yes"/>
      <point x="164" y="639"/>
      <point x="257" y="708"/>
      <point x="359" y="708" type="curve" smooth="yes"/>
      <point x="462" y="708"/>
      <point x="518" y="633"/>
      <point x="536" y="556" type="curve"/>
    </contour>
  </outline>
</glyph>
<glyph name="ampersand" format="2">
  <advance width="655"/>
  <unicode hex="0026"/>
  <outline>
    <contour>
      <point x="246" y="401" type="line" smooth="yes"/>
      <point x="216" y="446"/>
      <point x="174" y="496"/>
      <point x="182" y="564" type="curve" smooth="yes"/>
      <point x="194" y="648"/>
      <point x="268" y="711"/>
      <point x="362" y="710" type="curve" smooth="yes"/>
      <point x="454" y="710"/>
      <point x="505" y="639"/>
      <point x="493" y="562" type="curve" smooth="yes"/>
      <point x="481" y="485"/>
      <point x="408" y="430"/>
      <point x="324" y="382" type="curve" smooth="yes"/>
      <point x="242" y="336"/>
      <point x="121" y="294"/>
      <point x="104" y="182" type="curve" smooth="yes"/>
      <point x="92" y="96"/>
      <point x="153" y="39"/>
      <point x="240" y="38" type="curve" smooth="yes"/>
      <point x="396" y="36"/>
      <point x="512" y="195"/>
      <point x="615" y="315" type="curve"/>
      <point x="652" y="290" type="line"/>
      <point x="538" y="160"/>
      <point x="416" y="-12"/>
      <point x="232" y="-10" type="curve" smooth="yes"/>
      <point x="122" y="-9"/>
      <point x="33" y="66"/>
      <point x="48" y="179" type="curve" smooth="yes"/>
      <point x="66" y="316"/>
      <point x="204" y="366"/>
      <point x="291" y="413" type="curve" smooth="yes"/>
      <point x="363" y="453"/>
      <point x="429" y="500"/>
      <point x="441" y="562" type="curve" smooth="yes"/>
      <point x="449" y="614"/>
      <point x="420" y="663"/>
      <point x="358" y="664" type="curve" smooth="yes"/>
      <point x="293" y="665"/>
      <point x="245" y="620"/>
      <point x="236" y="564" type="curve" smooth="yes"/>
      <point x="228" y="512"/>
      <point x="260" y="471"/>
      <point x="288" y="429" type="curve" smooth="yes"/>
      <point x="586" y="0" type="line"/>
      <point x="526" y="0" type="line"/>
    </contour>
  </outline>
</glyph>
<glyph name="quotesingle" format="2">
  <advance width="252"/>
  <unicode hex="0027"/>
  <outline>
    <contour>
      <point x="220" y="700" type="line"/>
      <point x="283" y="700" type="line"/>
      <point x="162" y="409" type="line"/>
      <point x="126" y="408" type="line"/>
    </contour>
  </outline>
</glyph>
<glyph name="parenleft" format="2">
  <advance width="273"/>
  <unicode hex="0028"/>
  <outline>
    <contour>
      <point x="302" y="779" type="curve"/>
      <point x="348" y="779" type="line"/>
      <point x="258" y="628"/>
      <point x="200" y="463"/>
      <point x="172" y="290" type="curve" smooth="yes"/>
      <point x="148" y="126"/>
      <point x="151" y="-40"/>
      <point x="197" y="-200" type="curve"/>
      <point x="152" y="-200" type="line"/>
      <point x="98" y="-42"/>
      <point x="90" y="126"/>
      <point x="114" y="290" type="curve" smooth="yes"/>
      <point x="141" y="464"/>
      <point x="204" y="632"/>
    </contour>
  </outline>
</glyph>
<glyph name="parenright" format="2">
  <advance width="273"/>
  <unicode hex="0029"/>
  <outline>
    <contour>
      <point x="28" y="-199" type="curve"/>
      <point x="-19" y="-199" type="line"/>
      <point x="71" y="-48"/>
      <point x="129" y="117"/>
      <point x="157" y="290" type="curve" smooth="yes"/>
      <point x="181" y="454"/>
      <point x="178" y="620"/>
      <point x="132" y="780" type="curve"/>
      <point x="177" y="780" type="line"/>
      <point x="231" y="622"/>
      <point x="238" y="454"/>
      <point x="214" y="290" type="curve" smooth="yes"/>
      <point x="187" y="116"/>
      <point x="126" y="-52"/>
    </contour>
  </outline>
</glyph>
<glyph name="asterisk" format="2">
  <advance width="574"/>
  <unicode hex="002A"/>
  <outline>
    <contour>
      <point x="527" y="592" type="line"/>
      <point x="534" y="548" type="line"/>
      <point x="350" y="498" type="line"/>
      <point x="344" y="530" type="line"/>
    </contour>
    <contour>
      <point x="450" y="375" type="line"/>
      <point x="408" y="348" type="line"/>
      <point x="333" y="504" type="line"/>
      <point x="360" y="523" type="line"/>
    </contour>
    <contour>
      <point x="232" y="349" type="line"/>
      <point x="198" y="378" type="line"/>
      <point x="336" y="522" type="line"/>
      <point x="359" y="502" type="line"/>
    </contour>
    <contour>
      <point x="174" y="549" type="line"/>
      <point x="194" y="592" type="line"/>
      <point x="356" y="528" type="line"/>
      <point x="342" y="498" type="line"/>
    </contour>
    <contour>
      <point x="358" y="700" type="line"/>
      <point x="403" y="700" type="line"/>
      <point x="364" y="514" type="line"/>
      <point x="332" y="514" type="line"/>
    </contour>
  </outline>
</glyph>
<glyph name="plus" format="2">
  <advance width="571"/>
  <unicode hex="002B"/>
  <outline>
    <contour>
      <point x="75" y="230" type="line"/>
      <point x="84" y="281" type="line"/>
      <point x="526" y="281" type="line"/>
      <point x="518" y="229" type="line"/>
    </contour>
    <contour>
      <point x="314" y="492" type="line"/>
      <point x="368" y="492" type="line"/>
      <point x="286" y="18" type="line"/>
      <point x="233" y="18" type="line"/>
    </contour>
  </outline>
</glyph>
<glyph name="comma" format="2">
  <advance width="286"/>
  <unicode hex="002C"/>
  <outline>
    <contour>
      <point x="144" y="103" type="line"/>
      <point x="194" y="82" type="line"/>
      <point x="44" y="-165" type="line"/>
      <point x="8" y="-152" type="line"/>
    </contour>
  </outline>
</glyph>
<glyph name="hyphen" format="2">
  <advance width="203"/>
  <unicode hex="002D"/>
  <outline>
    <contour>
      <point x="16" y="226" type="line"/>
      <point x="24" y="275" type="line"/>
      <point x="220" y="275" type="line"/>
      <point x="212" y="226" type="line"/>
    </contour>
  </outline>
</glyph>
<glyph name="period" format="2">
  <advance width="275"/>
  <unicode hex="002E"/>
  <outline>
    <contour>
      <point x="78" y="24" type="curve" smooth="yes"/>
      <point x="78" y="44"/>
      <point x="94" y="62"/>
      <point x="114" y="62" type="curve" smooth="yes"/>
      <point x="134" y="62"/>
      <point x="152" y="44"/>
      <point x="152" y="24" type="curve" smooth="yes"/>
      <point x="152" y="4"/>
      <point x="134" y="-12"/>
      <point x="114" y="-12" type="curve" smooth="yes"/>
      <point x="94" y="-12"/>
      <point x="78" y="4"/>
    </contour>
  </outline>
</glyph>
<glyph name="zero" format="2">
  <advance width="562"/>
  <unicode hex="0030"/>
  <outline>
    <contour>
      <point x="132" y="350" type="curve" smooth="yes"/>
      <point x="117" y="220"/>
      <point x="126" y="44"/>
      <point x="260" y="42" type="curve" smooth="yes"/>
      <point x="394" y="40"/>
      <point x="477" y="204"/>
      <point x="497" y="350" type="curve" smooth="yes"/>
      <point x="512" y="480"/>
      <point x="502" y="656"/>
      <point x="368" y="658" type="curve" smooth="yes"/>
      <point x="234" y="660"/>
      <point x="152" y="496"/>
    </contour>
    <contour>
      <point x="76" y="350" type="curve" smooth="yes"/>
      <point x="100" y="526"/>
      <point x="210" y="710"/>
      <point x="374" y="710" type="curve" smooth="yes"/>
      <point x="540" y="710"/>
      <point x="572" y="511"/>
      <point x="552" y="350" type="curve" smooth="yes"/>
      <point x="528" y="174"/>
      <point x="418" y="-10"/>
      <point x="254" y="-10" type="curve" smooth="yes"/>
      <point x="88" y="-10"/>
      <point x="56" y="189"/>
    </contour>
  </outline>
</glyph>
<glyph name="one" format="2">
  <advance width="420"/>
  <unicode hex="0031"/>
  <outline>
    <contour>
      <point x="158" y="599" type="line"/>
      <point x="168" y="657" type="line"/>
      <point x="388" y="708" type="line"/>
      <point x="266" y="0" type="line"/>
      <point x="212" y="0" type="line"/>
      <point x="322" y="640" type="line"/>
    </contour>
  </outline>
</glyph>
<glyph name="two" format="2">
  <advance width="530"/>
  <unicode hex="0032"/>
  <outline>
    <contour>
      <point x="4" y="0" type="line"/>
      <point x="373" y="345" type="line" smooth="yes"/>
      <point x="423" y="393"/>
      <point x="469" y="443"/>
      <point x="479" y="511" type="curve" smooth="yes"/>
      <point x="491" y="581"/>
      <point x="448" y="657"/>
      <point x="356" y="658" type="curve" smooth="yes"/>
      <point x="249" y="660"/>
      <point x="183" y="566"/>
      <point x="164" y="460" type="curve"/>
      <point x="110" y="460" type="line"/>
      <point x="133" y="595"/>
      <point x="220" y="710"/>
      <point x="360" y="710" type="curve" smooth="yes"/>
      <point x="488" y="710"/>
      <point x="549" y="606"/>
      <point x="535" y="513" type="curve" smooth="yes"/>
      <point x="523" y="435"/>
      <point x="472" y="369"/>
      <point x="414" y="315" type="curve" smooth="yes"/>
      <point x="126" y="52" type="line"/>
      <point x="477" y="52" type="line"/>
      <point x="469" y="0" type="line"/>
    </contour>
  </outline>
</glyph>
<glyph name="three" format="2">
  <advance width="531"/>
  <unicode hex="0033"/>
  <outline>
    <contour>
      <point x="280" y="352" type="curve"/>
      <point x="286" y="388" type="line"/>
      <point x="373" y="394"/>
      <point x="456" y="442"/>
      <point x="470" y="526" type="curve" smooth="yes"/>
      <point x="481" y="595"/>
      <point x="444" y="659"/>
      <point x="364" y="660" type="curve" smooth="yes"/>
      <point x="280" y="661"/>
      <point x="223" y="598"/>
      <point x="205" y="526" type="curve"/>
      <point x="152" y="527" type="line"/>
      <point x="172" y="630"/>
      <point x="253" y="710"/>
      <point x="367" y="710" type="curve" smooth="yes"/>
      <point x="477" y="710"/>
      <point x="540" y="622"/>
      <point x="526" y="528" type="curve" smooth="yes"/>
      <point x="508" y="418"/>
      <point x="397" y="356"/>
    </contour>
    <contour>
      <point x="256" y="-10" type="curve" smooth="yes"/>
      <point x="130" y="-10"/>
      <point x="61" y="76"/>
      <point x="71" y="185" type="curve"/>
      <point x="126" y="184" type="line"/>
      <point x="120" y="103"/>
      <point x="166" y="42"/>
      <point x="260" y="42" type="curve" smooth="yes"/>
      <point x="351" y="42"/>
      <point x="426" y="103"/>
      <point x="438" y="187" type="curve" smooth="yes"/>
      <point x="453" y="287"/>
      <point x="365" y="333"/>
      <point x="278" y="339" type="curve"/>
      <point x="284" y="374" type="line"/>
      <point x="400" y="370"/>
      <point x="510" y="310"/>
      <point x="492" y="180" type="curve" smooth="yes"/>
      <point x="476" y="68"/>
      <point x="376" y="-10"/>
    </contour>
  </outline>
</glyph>
<glyph name="four" format="2">
  <advance width="553"/>
  <unicode hex="0034"/>
  <outline>
    <contour>
      <point x="18" y="141" type="line"/>
      <point x="488" y="699" type="line"/>
      <point x="510" y="700" type="line"/>
      <point x="389" y="0" type="line"/>
      <point x="335" y="0" type="line"/>
      <point x="363" y="162" type="line"/>
      <point x="364" y="171" type="line"/>
      <point x="433" y="569" type="line"/>
      <point x="117" y="190" type="line"/>
      <point x="388" y="189" type="line"/>
      <point x="399" y="189" type="line"/>
      <point x="529" y="189" type="line"/>
      <point x="521" y="140" type="line"/>
    </contour>
  </outline>
</glyph>
<glyph name="five" format="2">
  <advance width="544"/>
  <unicode hex="0035"/>
  <outline>
    <contour>
      <point x="514" y="230" type="curve" smooth="yes"/>
      <point x="496" y="86"/>
      <point x="383" y="-10"/>
      <point x="248" y="-10" type="curve" smooth="yes"/>
      <point x="139" y="-10"/>
      <point x="76" y="52"/>
      <point x="42" y="138" type="curve"/>
      <point x="92" y="168" type="line"/>
      <point x="118" y="98"/>
      <point x="168" y="42"/>
      <point x="252" y="42" type="curve" smooth="yes"/>
      <point x="360" y="42"/>
      <point x="442" y="122"/>
      <point x="458" y="230" type="curve" smooth="yes"/>
      <point x="471" y="324"/>
      <point x="418" y="406"/>
      <point x="322" y="408" type="curve" smooth="yes"/>
      <point x="246" y="410"/>
      <point x="186" y="377"/>
      <point x="124" y="328" type="curve"/>
      <point x="270" y="700" type="line"/>
      <point x="592" y="700" type="line"/>
      <point x="584" y="651" type="line"/>
      <point x="306" y="651" type="line"/>
      <point x="208" y="408" type="line"/>
      <point x="246" y="436"/>
      <point x="294" y="458"/>
      <point x="348" y="458" type="curve" smooth="yes"/>
      <point x="468" y="457"/>
      <point x="529" y="348"/>
    </contour>
  </outline>
</glyph>
<glyph name="six" format="2">
  <advance width="543"/>
  <unicode hex="0036"/>
  <outline>
    <contour>
      <point x="118" y="226" type="curve" smooth="yes"/>
      <point x="104" y="130"/>
      <point x="156" y="40"/>
      <point x="259" y="40" type="curve" smooth="yes"/>
      <point x="363" y="40"/>
      <point x="447" y="124"/>
      <point x="462" y="226" type="curve" smooth="yes"/>
      <point x="475" y="319"/>
      <point x="421" y="407"/>
      <point x="324" y="408" type="curve" smooth="yes"/>
      <point x="217" y="409"/>
      <point x="134" y="323"/>
    </contour>
    <contour>
      <point x="410" y="700" type="line"/>
      <point x="480" y="700" type="line"/>
      <point x="210" y="389" type="line"/>
      <point x="204" y="393" type="line"/>
      <point x="242" y="429"/>
      <point x="288" y="448"/>
      <point x="344" y="448" type="curve" smooth="yes"/>
      <point x="460" y="446"/>
      <point x="527" y="339"/>
      <point x="513" y="226" type="curve" smooth="yes"/>
      <point x="495" y="94"/>
      <point x="389" y="-10"/>
      <point x="255" y="-10" type="curve" smooth="yes"/>
      <point x="121" y="-10"/>
      <point x="49" y="99"/>
      <point x="66" y="226" type="curve" smooth="yes"/>
      <point x="74" y="282"/>
      <point x="102" y="337"/>
      <point x="136" y="377" type="curve" smooth="yes"/>
    </contour>
  </outline>
</glyph>
<glyph name="seven" format="2">
  <advance width="505"/>
  <unicode hex="0037"/>
  <outline>
    <contour>
      <point x="113" y="648" type="line"/>
      <point x="121" y="700" type="line"/>
      <point x="591" y="700" type="line"/>
      <point x="144" y="0" type="line"/>
      <point x="85" y="0" type="line"/>
      <point x="500" y="648" type="line"/>
    </contour>
  </outline>
</glyph>
<glyph name="eight" format="2">
  <advance width="517"/>
  <unicode hex="0038"/>
  <outline>
    <contour>
      <point x="144" y="536" type="curve" smooth="yes"/>
      <point x="159" y="630"/>
      <point x="248" y="710"/>
      <point x="351" y="710" type="curve" smooth="yes"/>
      <point x="452" y="710"/>
      <point x="518" y="626"/>
      <point x="504" y="534" type="curve" smooth="yes"/>
      <point x="489" y="434"/>
      <point x="398" y="360"/>
      <point x="296" y="360" type="curve" smooth="yes"/>
      <point x="196" y="360"/>
      <point x="130" y="438"/>
    </contour>
    <contour>
      <point x="194" y="529" type="curve" smooth="yes"/>
      <point x="184" y="461"/>
      <point x="231" y="397"/>
      <point x="298" y="396" type="curve" smooth="yes"/>
      <point x="366" y="395"/>
      <point x="438" y="457"/>
      <point x="450" y="529" type="curve" smooth="yes"/>
      <point x="461" y="597"/>
      <point x="421" y="659"/>
      <point x="347" y="660" type="curve" smooth="yes"/>
      <point x="271" y="661"/>
      <point x="206" y="600"/>
    </contour>
    <contour>
      <point x="62" y="188" type="curve" smooth="yes"/>
      <point x="80" y="302"/>
      <point x="185" y="382"/>
      <point x="296" y="382" type="curve" smooth="yes"/>
      <point x="405" y="382"/>
      <point x="482" y="299"/>
      <point x="466" y="188" type="curve" smooth="yes"/>
      <point x="449" y="80"/>
      <point x="352" y="-10"/>
      <point x="232" y="-10" type="curve" smooth="yes"/>
      <point x="114" y="-10"/>
      <point x="46" y="84"/>
    </contour>
    <contour>
      <point x="114" y="194" type="curve" smooth="yes"/>
      <point x="100" y="110"/>
      <point x="149" y="41"/>
      <point x="236" y="40" type="curve" smooth="yes"/>
      <point x="324" y="39"/>
      <point x="402" y="106"/>
      <point x="416" y="194" type="curve" smooth="yes"/>
      <point x="428" y="273"/>
      <point x="373" y="345"/>
      <point x="293" y="346" type="curve" smooth="yes"/>
      <point x="211" y="347"/>
      <point x="128" y="276"/>
    </contour>
  </outline>
</glyph>
<glyph name="nine" format="2">
  <advance width="543"/>
  <unicode hex="0039"/>
  <outline>
    <contour>
      <point x="500" y="474" type="curve" smooth="yes"/>
      <point x="514" y="570"/>
      <point x="461" y="660"/>
      <point x="358" y="660" type="curve" smooth="yes"/>
      <point x="254" y="660"/>
      <point x="171" y="576"/>
      <point x="156" y="474" type="curve" smooth="yes"/>
      <point x="143" y="381"/>
      <point x="197" y="293"/>
      <point x="294" y="292" type="curve" smooth="yes"/>
      <point x="401" y="291"/>
      <point x="484" y="377"/>
    </contour>
    <contour>
      <point x="207" y="0" type="line"/>
      <point x="137" y="0" type="line"/>
      <point x="408" y="311" type="line"/>
      <point x="412" y="307" type="line"/>
      <point x="374" y="271"/>
      <point x="328" y="252"/>
      <point x="272" y="252" type="curve" smooth="yes"/>
      <point x="156" y="254"/>
      <point x="90" y="361"/>
      <point x="104" y="474" type="curve" smooth="yes"/>
      <point x="122" y="606"/>
      <point x="228" y="710"/>
      <point x="362" y="710" type="curve" smooth="yes"/>
      <point x="496" y="710"/>
      <point x="569" y="601"/>
      <point x="552" y="474" type="curve" smooth="yes"/>
      <point x="544" y="418"/>
      <point x="516" y="363"/>
      <point x="482" y="323" type="curve" smooth="yes"/>
    </contour>
  </outline>
</glyph>
<glyph name="colon" format="2">
  <advance width="291"/>
  <unicode hex="003A"/>
  <outline>
    <contour>
      <point x="78" y="24" type="curve" smooth="yes"/>
      <point x="78" y="44"/>
      <point x="94" y="62"/>
      <point x="114" y="62" type="curve" smooth="yes"/>
      <point x="134" y="62"/>
      <point x="152" y="44"/>
      <point x="152" y="24" type="curve" smooth="yes"/>
      <point x="152" y="4"/>
      <point x="134" y="-12"/>
      <point x="114" y="-12" type="curve" smooth="yes"/>
      <point x="94" y="-12"/>
      <point x="78" y="4"/>
    </contour>
    <contour>
      <point x="140" y="392" type="curve" smooth="yes"/>
      <point x="140" y="412"/>
      <point x="158" y="428"/>
      <point x="178" y="428" type="curve" smooth="yes"/>
      <point x="198" y="428"/>
      <point x="214" y="412"/>
      <point x="214" y="392" type="curve" smooth="yes"/>
      <point x="214" y="372"/>
      <point x="198" y="354"/>
      <point x="178" y="354" type="curve" smooth="yes"/>
      <point x="158" y="354"/>
      <point x="140" y="372"/>
    </contour>
  </outline>
</glyph>
<glyph name="semicolon" format="2">
  <advance width="298"/>
  <unicode hex="003B"/>
  <outline>
    <contour>
      <point x="170" y="392" type="curve" smooth="yes"/>
      <point x="170" y="412"/>
      <point x="186" y="428"/>
      <point x="206" y="428" type="curve" smooth="yes"/>
      <point x="226" y="428"/>
      <point x="244" y="412"/>
      <point x="244" y="392" type="curve" smooth="yes"/>
      <point x="244" y="372"/>
      <point x="226" y="354"/>
      <point x="206" y="354" type="curve" smooth="yes"/>
      <point x="186" y="354"/>
      <point x="170" y="372"/>
    </contour>
    <contour>
      <point x="144" y="103" type="line"/>
      <point x="194" y="82" type="line"/>
      <point x="44" y="-165" type="line"/>
      <point x="8" y="-152" type="line"/>
    </contour>
  </outline>
</glyph>
<glyph name="less" format="2">
  <advance width="621"/>
  <unicode hex="003C"/>
  <outline>
    <contour>
      <point x="164" y="258" type="line"/>
      <point x="545" y="76" type="line"/>
      <point x="536" y="28" type="line"/>
      <point x="77" y="243" type="line"/>
      <point x="82" y="272" type="line"/>
      <point x="616" y="488" type="line"/>
      <point x="606" y="434" type="line"/>
    </contour>
  </outline>
</glyph>
<glyph name="equal" format="2">
  <advance width="596"/>
  <unicode hex="003D"/>
  <outline>
    <contour>
      <point x="64" y="158" type="line"/>
      <point x="71" y="207" type="line"/>
      <point x="543" y="207" type="line"/>
      <point x="534" y="158" type="line"/>
    </contour>
    <contour>
      <point x="87" y="298" type="line"/>
      <point x="95" y="347" type="line"/>
      <point x="567" y="347" type="line"/>
      <point x="558" y="298" type="line"/>
    </contour>
  </outline>
</glyph>
<glyph name="greater" format="2">
  <advance width="621"/>
  <unicode hex="003E"/>
  <outline>
    <contour>
      <point x="490" y="257" type="line"/>
      <point x="110" y="438" type="line"/>
      <point x="118" y="487" type="line"/>
      <point x="578" y="272" type="line"/>
      <point x="573" y="243" type="line"/>
      <point x="40" y="26" type="line"/>
      <point x="48" y="80" type="line"/>
    </contour>
  </outline>
</glyph>
<glyph name="question" format="2">
  <advance width="534"/>
  <unicode hex="003F"/>
  <outline>
    <contour>
      <point x="477" y="508" type="curve" smooth="yes"/>
      <point x="491" y="594"/>
      <point x="441" y="660"/>
      <point x="346" y="660" type="curve" smooth="yes"/>
      <point x="270" y="660"/>
      <point x="216" y="618"/>
      <point x="172" y="566" type="curve"/>
      <point x="134" y="594" type="line"/>
      <point x="190" y="660"/>
      <point x="255" y="711"/>
      <point x="357" y="710" type="curve" smooth="yes"/>
      <point x="476" y="709"/>
      <point x="546" y="617"/>
      <point x="529" y="508" type="curve" smooth="yes"/>
      <point x="509" y="396"/>
      <point x="400" y="320"/>
      <point x="284" y="309" type="curve"/>
      <point x="256" y="170" type="line"/>
      <point x="217" y="170" type="line"/>
      <point x="232" y="345" type="line"/>
      <point x="248" y="345" type="line"/>
      <point x="361" y="349"/>
      <point x="459" y="415"/>
    </contour>
    <contour>
      <point x="173" y="24" type="curve" smooth="yes"/>
      <point x="173" y="44"/>
      <point x="190" y="62"/>
      <point x="210" y="62" type="curve" smooth="yes"/>
      <point x="231" y="62"/>
      <point x="247" y="44"/>
      <point x="247" y="24" type="curve" smooth="yes"/>
      <point x="247" y="4"/>
      <point x="230" y="-12"/>
      <point x="210" y="-12" type="curve" smooth="yes"/>
      <point x="189" y="-12"/>
      <point x="173" y="4"/>
    </contour>
  </outline>
</glyph>
<glyph name="at" format="2">
  <advance width="747"/>
  <unicode hex="0040"/>
  <outline>
    <contour>
      <point x="266" y="320" type="curve" smooth="yes"/>
      <point x="258" y="262"/>
      <point x="279" y="210"/>
      <point x="340" y="208" type="curve" smooth="yes"/>
      <point x="414" y="206"/>
      <point x="486" y="282"/>
      <point x="498" y="370" type="curve" smooth="yes"/>
      <point x="506" y="425"/>
      <point x="483" y="480"/>
      <point x="424" y="482" type="curve" smooth="yes"/>
      <point x="350" y="484"/>
      <point x="278" y="408"/>
    </contour>
    <contour>
      <point x="216" y="318" type="curve" smooth="yes"/>
      <point x="230" y="436"/>
      <point x="330" y="531"/>
      <point x="428" y="528" type="curve" smooth="yes"/>
      <point x="511" y="526"/>
      <point x="532" y="440"/>
      <point x="522" y="368" type="curve" smooth="yes"/>
      <point x="507" y="258"/>
      <point x="425" y="161"/>
      <point x="325" y="162" type="curve" smooth="yes"/>
      <point x="245" y="163"/>
      <point x="206" y="234"/>
    </contour>
    <contour>
      <point x="60" y="320" type="curve" smooth="yes"/>
      <point x="94" y="530"/>
      <point x="271" y="710"/>
      <point x="494" y="709" type="curve" smooth="yes"/>
      <point x="688" y="708"/>
      <point x="780" y="547"/>
      <point x="754" y="390" type="curve" smooth="yes"/>
      <point x="738" y="256"/>
      <point x="638" y="145"/>
      <point x="540" y="151" type="curve" smooth="yes"/>
      <point x="473" y="154"/>
      <point x="464" y="216"/>
      <point x="478" y="278" type="curve"/>
      <point x="474" y="278" type="line"/>
      <point x="552" y="520" type="line"/>
      <point x="602" y="520" type="line"/>
      <point x="521" y="289" type="line" smooth="yes"/>
      <point x="519" y="281"/>
      <point x="516" y="268"/>
      <point x="514" y="259" type="curve" smooth="yes"/>
      <point x="510" y="232"/>
      <point x="512" y="200"/>
      <point x="550" y="196" type="curve" smooth="yes"/>
      <point x="616" y="186"/>
      <point x="696" y="292"/>
      <point x="708" y="390" type="curve" smooth="yes"/>
      <point x="732" y="526"/>
      <point x="658" y="664"/>
      <point x="491" y="666" type="curve" smooth="yes"/>
      <point x="292" y="668"/>
      <point x="137" y="506"/>
      <point x="106" y="320" type="curve" smooth="yes"/>
      <point x="82" y="163"/>
      <point x="158" y="36"/>
      <point x="327" y="34" type="curve" smooth="yes"/>
      <point x="409" y="33"/>
      <point x="482" y="54"/>
      <point x="548" y="88" type="curve"/>
      <point x="566" y="49" type="line"/>
      <point x="498" y="15"/>
      <point x="424" y="-8"/>
      <point x="324" y="-8" type="curve" smooth="yes"/>
      <point x="124" y="-6"/>
      <point x="32" y="138"/>
    </contour>
  </outline>
</glyph>
<glyph name="B" format="2">
  <advance width="516"/>
  <unicode hex="0042"/>
  <outline>
    <contour>
      <point x="160" y="376" type="line"/>
      <point x="165" y="408" type="line"/>
      <point x="270" y="408" type="line"/>
      <point x="350" y="409"/>
      <point x="422" y="448"/>
      <point x="436" y="528" type="curve" smooth="yes"/>
      <point x="449" y="604"/>
      <point x="394" y="650"/>
      <point x="314" y="650" type="curve" smooth="yes"/>
      <point x="220" y="651" type="line"/>
      <point x="116" y="49" type="line"/>
      <point x="218" y="50" type="line" smooth="yes"/>
      <point x="320" y="50"/>
      <point x="402" y="106"/>
      <point x="418" y="206" type="curve" smooth="yes"/>
      <point x="433" y="298"/>
      <point x="364" y="359"/>
      <point x="274" y="359" type="curve" smooth="yes"/>
      <point x="157" y="360" type="line"/>
      <point x="162" y="390" type="line"/>
      <point x="280" y="391" type="line" smooth="yes"/>
      <point x="392" y="390"/>
      <point x="491" y="324"/>
      <point x="473" y="202" type="curve" smooth="yes"/>
      <point x="453" y="70"/>
      <point x="344" y="0"/>
      <point x="214" y="0" type="curve" smooth="yes"/>
      <point x="54" y="0" type="line"/>
      <point x="174" y="700" type="line"/>
      <point x="320" y="700" type="line" smooth="yes"/>
      <point x="432" y="700"/>
      <point x="509" y="638"/>
      <point x="491" y="530" type="curve" smooth="yes"/>
      <point x="474" y="428"/>
      <point x="381" y="378"/>
      <point x="272" y="376" type="curve"/>
    </contour>
  </outline>
</glyph>
<glyph name="F" format="2">
  <advance width="465"/>
  <unicode hex="0046"/>
  <outline>
    <contour>
      <point x="194" y="648" type="line"/>
      <point x="202" y="700" type="line"/>
      <point x="501" y="700" type="line"/>
      <point x="492" y="648" type="line"/>
    </contour>
    <contour>
      <point x="143" y="354" type="line"/>
      <point x="152" y="405" type="line"/>
      <point x="441" y="405" type="line"/>
      <point x="432" y="353" type="line"/>
    </contour>
    <contour>
      <point x="173" y="700" type="line"/>
      <point x="228" y="700" type="line"/>
      <point x="108" y="0" type="line"/>
      <point x="54" y="0" type="line"/>
    </contour>
  </outline>
</glyph>
<glyph name="H" format="2">
  <advance width="666"/>
  <unicode hex="0048"/>
  <outline>
    <contour>
      <point x="144" y="355" type="line"/>
      <point x="152" y="407" type="line"/>
      <point x="611" y="407" type="line"/>
      <point x="602" y="355" type="line"/>
    </contour>
    <contour>
      <point x="624" y="700" type="line"/>
      <point x="680" y="700" type="line"/>
      <point x="558" y="0" type="line"/>
      <point x="505" y="0" type="line"/>
    </contour>
    <contour>
      <point x="173" y="700" type="line"/>
      <point x="228" y="700" type="line"/>
      <point x="108" y="0" type="line"/>
      <point x="54" y="0" type="line"/>
    </contour>
  </outline>
</glyph>
<glyph name="J" format="2">
  <advance width="215"/>
  <unicode hex="004A"/>
  <outline>
    <contour>
      <point x="-138" y="-126" type="line"/>
      <point x="-120" y="-149"/>
      <point x="-94" y="-168"/>
      <point x="-58" y="-168" type="curve" smooth="yes"/>
      <point x="2" y="-168"/>
      <point x="38" y="-120"/>
      <point x="48" y="-50" type="curve" smooth="yes"/>
      <point x="176" y="700" type="line"/>
      <point x="228" y="700" type="line"/>
      <point x="98" y="-60" type="line" smooth="yes"/>
      <point x="83" y="-155"/>
      <point x="29" y="-221"/>
      <point x="-65" y="-220" type="curve" smooth="yes"/>
      <point x="-113" y="-220"/>
      <point x="-153" y="-194"/>
      <point x="-173" y="-168" type="curve"/>
    </contour>
  </outline>
</glyph>
<glyph name="K" format="2">
  <advance width="504"/>
  <unicode hex="004B"/>
  <outline>
    <contour>
      <point x="172" y="700" type="line"/>
      <point x="226" y="700" type="line"/>
      <point x="106" y="0" type="line"/>
      <point x="52" y="0" type="line"/>
    </contour>
    <contour>
      <point x="506" y="700" type="line"/>
      <point x="576" y="700" type="line"/>
      <point x="219" y="370" type="line"/>
      <point x="468" y="0" type="line"/>
      <point x="403" y="0" type="line"/>
      <point x="154" y="372" type="line"/>
    </contour>
  </outline>
</glyph>
<glyph name="L" format="2">
  <advance width="428"/>
  <unicode hex="004C"/>
  <outline>
    <contour>
      <point x="174" y="700" type="line"/>
      <point x="228" y="700" type="line"/>
      <point x="117" y="52" type="line"/>
      <point x="398" y="52" type="line"/>
      <point x="388" y="0" type="line"/>
      <point x="54" y="0" type="line"/>
    </contour>
  </outline>
</glyph>
<glyph name="M" format="2">
  <advance width="793"/>
  <unicode hex="004D"/>
  <outline>
    <contour>
      <point x="227" y="554" type="line"/>
      <point x="73" y="0" type="line"/>
      <point x="18" y="0" type="line"/>
      <point x="222" y="728" type="line"/>
      <point x="401" y="190" type="line"/>
      <point x="768" y="730" type="line"/>
      <point x="720" y="0" type="line"/>
      <point x="666" y="0" type="line"/>
      <point x="703" y="550" type="line"/>
      <point x="384" y="80" type="line"/>
    </contour>
  </outline>
</glyph>
<glyph name="N" format="2">
  <advance width="721"/>
  <unicode hex="004E"/>
  <outline>
    <contour>
      <point x="682" y="700" type="line"/>
      <point x="737" y="700" type="line"/>
      <point x="612" y="-26" type="line"/>
      <point x="202" y="584" type="line"/>
      <point x="100" y="0" type="line"/>
      <point x="46" y="0" type="line"/>
      <point x="170" y="726" type="line"/>
      <point x="582" y="114" type="line"/>
    </contour>
  </outline>
</glyph>
<glyph name="P" format="2">
  <advance width="504"/>
  <unicode hex="0050"/>
  <outline>
    <contour>
      <point x="173" y="700" type="line"/>
      <point x="228" y="700" type="line"/>
      <point x="108" y="0" type="line"/>
      <point x="54" y="0" type="line"/>
    </contour>
    <contour>
      <point x="194" y="648" type="line"/>
      <point x="204" y="700" type="line"/>
      <point x="331" y="700" type="line" smooth="yes"/>
      <point x="455" y="700"/>
      <point x="539" y="614"/>
      <point x="520" y="492" type="curve" smooth="yes"/>
      <point x="500" y="366"/>
      <point x="392" y="286"/>
      <point x="264" y="286" type="curve" smooth="yes"/>
      <point x="132" y="286" type="line"/>
      <point x="142" y="338" type="line"/>
      <point x="270" y="338" type="line"/>
      <point x="370" y="339"/>
      <point x="450" y="396"/>
      <point x="466" y="493" type="curve" smooth="yes"/>
      <point x="482" y="587"/>
      <point x="422" y="648"/>
      <point x="326" y="648" type="curve" smooth="yes"/>
    </contour>
  </outline>
</glyph>
<glyph name="R" format="2">
  <advance width="507"/>
  <unicode hex="0052"/>
  <outline>
    <contour>
      <point x="226" y="334" type="line"/>
      <point x="286" y="334" type="line"/>
      <point x="460" y="0" type="line"/>
      <point x="396" y="0" type="line"/>
    </contour>
    <contour>
      <point x="173" y="700" type="line"/>
      <point x="228" y="700" type="line"/>
      <point x="108" y="0" type="line"/>
      <point x="54" y="0" type="line"/>
    </contour>
    <contour>
      <point x="192" y="651" type="line"/>
      <point x="202" y="700" type="line"/>
      <point x="328" y="700" type="line" smooth="yes"/>
      <point x="454" y="700"/>
      <point x="545" y="620"/>
      <point x="525" y="496" type="curve" smooth="yes"/>
      <point x="505" y="370"/>
      <point x="392" y="295"/>
      <point x="262" y="294" type="curve"/>
      <point x="132" y="294" type="line"/>
      <point x="140" y="343" type="line"/>
      <point x="266" y="343" type="line"/>
      <point x="368" y="344"/>
      <point x="454" y="399"/>
      <point x="471" y="497" type="curve" smooth="yes"/>
      <point x="487" y="593"/>
      <point x="420" y="650"/>
      <point x="322" y="651" type="curve"/>
    </contour>
  </outline>
</glyph>
<glyph name="S" format="2">
  <advance width="508"/>
  <unicode hex="0053"/>
  <outline>
    <contour>
      <point x="88" y="204" type="line"/>
      <point x="112" y="116"/>
      <point x="153" y="44"/>
      <point x="251" y="44" type="curve" smooth="yes"/>
      <point x="349" y="44"/>
      <point x="412" y="112"/>
      <point x="418" y="189" type="curve" smooth="yes"/>
      <point x="424" y="276"/>
      <point x="361" y="312"/>
      <point x="288" y="346" type="curve" smooth="yes"/>
      <point x="216" y="378"/>
      <point x="130" y="428"/>
      <point x="136" y="532" type="curve" smooth="yes"/>
      <point x="142" y="631"/>
      <point x="225" y="709"/>
      <point x="340" y="709" type="curve" smooth="yes"/>
      <point x="448" y="709"/>
      <point x="504" y="636"/>
      <point x="526" y="562" type="curve"/>
      <point x="478" y="538" type="line"/>
      <point x="461" y="595"/>
      <point x="424" y="656"/>
      <point x="334" y="656" type="curve" smooth="yes"/>
      <point x="253" y="656"/>
      <point x="198" y="606"/>
      <point x="192" y="539" type="curve" smooth="yes"/>
      <point x="186" y="465"/>
      <point x="244" y="421"/>
      <point x="330" y="385" type="curve" smooth="yes"/>
      <point x="403" y="353"/>
      <point x="481" y="303"/>
      <point x="475" y="195" type="curve" smooth="yes"/>
      <point x="469" y="81"/>
      <point x="371" y="-9"/>
      <point x="249" y="-9" type="curve" smooth="yes"/>
      <point x="131" y="-9"/>
      <point x="68" y="81"/>
      <point x="44" y="176" type="curve"/>
    </contour>
  </outline>
</glyph>
<glyph name="T" format="2">
  <advance width="437"/>
  <unicode hex="0054"/>
  <outline>
    <contour>
      <point x="96" y="648" type="line"/>
      <point x="106" y="700" type="line"/>
      <point x="518" y="700" type="line"/>
      <point x="508" y="648" type="line"/>
      <point x="330" y="648" type="line"/>
      <point x="218" y="0" type="line"/>
      <point x="164" y="0" type="line"/>
      <point x="275" y="648" type="line"/>
    </contour>
  </outline>
</glyph>
<glyph name="U" format="2">
  <advance width="587"/>
  <unicode hex="0055"/>
  <outline>
    <contour>
      <point x="169" y="700" type="line"/>
      <point x="224" y="700" type="line"/>
      <point x="142" y="226" type="line" smooth="yes"/>
      <point x="129" y="128"/>
      <point x="164" y="42"/>
      <point x="272" y="42" type="curve" smooth="yes"/>
      <point x="386" y="42"/>
      <point x="452" y="123"/>
      <point x="468" y="226" type="curve" smooth="yes"/>
      <point x="550" y="700" type="line"/>
      <point x="605" y="700" type="line"/>
      <point x="524" y="226" type="line" smooth="yes"/>
      <point x="502" y="95"/>
      <point x="417" y="-10"/>
      <point x="268" y="-10" type="curve" smooth="yes"/>
      <point x="130" y="-10"/>
      <point x="70" y="100"/>
      <point x="88" y="226" type="curve" smooth="yes"/>
    </contour>
  </outline>
</glyph>
<glyph name="V" format="2">
  <advance width="616"/>
  <unicode hex="0056"/>
  <outline>
    <contour>
      <point x="306" y="101" type="line"/>
      <point x="638" y="700" type="line"/>
      <point x="700" y="700" type="line"/>
      <point x="287" y="-28" type="line"/>
      <point x="100" y="700" type="line"/>
      <point x="159" y="700" type="line"/>
    </contour>
  </outline>
</glyph>
<glyph name="W" format="2">
  <advance width="944"/>
  <unicode hex="0057"/>
  <outline>
    <contour>
      <point x="678" y="120" type="line"/>
      <point x="962" y="700" type="line"/>
      <point x="1024" y="700" type="line"/>
      <point x="658" y="-28" type="line"/>
      <point x="545" y="574" type="line"/>
      <point x="244" y="-28" type="line"/>
      <point x="104" y="700" type="line"/>
      <point x="164" y="700" type="line"/>
      <point x="268" y="120" type="line"/>
      <point x="568" y="728" type="line"/>
    </contour>
  </outline>
</glyph>
<glyph name="X" format="2">
  <advance width="517"/>
  <unicode hex="0058"/>
  <outline>
    <contour>
      <point x="515" y="700" type="line"/>
      <point x="582" y="700" type="line"/>
      <point x="328" y="366" type="line"/>
      <point x="486" y="0" type="line"/>
      <point x="424" y="0" type="line"/>
      <point x="294" y="317" type="line"/>
      <point x="61" y="0" type="line"/>
      <point x="-6" y="0" type="line"/>
      <point x="274" y="368" type="line"/>
      <point x="129" y="700" type="line"/>
      <point x="192" y="700" type="line"/>
      <point x="308" y="416" type="line"/>
    </contour>
  </outline>
</glyph>
<glyph name="Y" format="2">
  <advance width="523"/>
  <unicode hex="0059"/>
  <outline>
    <contour>
      <point x="546" y="700" type="line"/>
      <point x="608" y="700" type="line"/>
      <point x="308" y="286" type="line"/>
      <point x="260" y="0" type="line"/>
      <point x="204" y="0" type="line"/>
      <point x="256" y="289" type="line"/>
      <point x="102" y="700" type="line"/>
      <point x="161" y="700" type="line"/>
      <point x="289" y="339" type="line"/>
    </contour>
  </outline>
</glyph>
<glyph name="Z" format="2">
  <advance width="524"/>
  <unicode hex="005A"/>
  <outline>
    <contour>
      <point x="118" y="648" type="line"/>
      <point x="128" y="700" type="line"/>
      <point x="602" y="700" type="line"/>
      <point x="91" y="52" type="line"/>
      <point x="475" y="52" type="line"/>
      <point x="466" y="0" type="line"/>
      <point x="-12" y="0" type="line"/>
      <point x="498" y="648" type="line"/>
    </contour>
  </outline>
</glyph>
<glyph name="bracketleft" format="2">
  <advance width="275"/>
  <unicode hex="005B"/>
  <outline>
    <contour>
      <point x="244" y="731" type="line"/>
      <point x="104" y="-171" type="line"/>
      <point x="214" y="-171" type="line"/>
      <point x="206" y="-220" type="line"/>
      <point x="45" y="-220" type="line"/>
      <point x="200" y="780" type="line"/>
      <point x="360" y="780" type="line"/>
      <point x="352" y="731" type="line"/>
    </contour>
  </outline>
</glyph>
<glyph name="backslash" format="2">
  <advance width="468"/>
  <unicode hex="005C"/>
  <outline>
    <contour>
      <point x="106" y="700" type="line"/>
      <point x="161" y="700" type="line"/>
      <point x="426" y="0" type="line"/>
      <point x="374" y="0" type="line"/>
    </contour>
  </outline>
</glyph>
<glyph name="bracketright" format="2">
  <advance width="275"/>
  <unicode hex="005D"/>
  <outline>
    <contour>
      <point x="84" y="-171" type="line"/>
      <point x="223" y="731" type="line"/>
      <point x="114" y="731" type="line"/>
      <point x="122" y="780" type="line"/>
      <point x="282" y="780" type="line"/>
      <point x="128" y="-220" type="line"/>
      <point x="-32" y="-220" type="line"/>
      <point x="-25" y="-171" type="line"/>
    </contour>
  </outline>
</glyph>
<glyph name="asciicircum" format="2">
  <advance width="494"/>
  <unicode hex="005E"/>
  <outline>
    <contour>
      <point x="333" y="649" type="line"/>
      <point x="168" y="460" type="line"/>
      <point x="112" y="460" type="line"/>
      <point x="328" y="710" type="line"/>
      <point x="352" y="710" type="line"/>
      <point x="484" y="460" type="line"/>
      <point x="432" y="460" type="line"/>
    </contour>
  </outline>
</glyph>
<glyph name="grave" format="2">
  <advance width="355"/>
  <unicode hex="0060"/>
  <outline>
    <contour>
      <point x="168" y="674" type="line"/>
      <point x="218" y="700" type="line"/>
      <point x="349" y="540" type="line"/>
      <point x="319" y="520" type="line"/>
    </contour>
  </outline>
</glyph>
<glyph name="a" format="2">
  <advance width="541"/>
  <unicode hex="0061"/>
  <outline>
    <contour>
      <point x="473" y="460" type="line"/>
      <point x="522" y="460" type="line"/>
      <point x="442" y="0" type="line"/>
      <point x="395" y="0" type="line"/>
    </contour>
    <contour>
      <point x="49" y="230" type="curve" smooth="yes"/>
      <point x="69" y="364"/>
      <point x="176" y="471"/>
      <point x="304" y="470" type="curve" smooth="yes"/>
      <point x="428" y="469"/>
      <point x="472" y="346"/>
      <point x="456" y="230" type="curve" smooth="yes"/>
      <point x="438" y="106"/>
      <point x="350" y="-10"/>
      <point x="226" y="-10" type="curve" smooth="yes"/>
      <point x="98" y="-10"/>
      <point x="31" y="102"/>
    </contour>
    <contour>
      <point x="102" y="230" type="curve" smooth="yes"/>
      <point x="88" y="128"/>
      <point x="136" y="40"/>
      <point x="238" y="40" type="curve" smooth="yes"/>
      <point x="332" y="40"/>
      <point x="416" y="130"/>
      <point x="432" y="230" type="curve" smooth="yes"/>
      <point x="445" y="323"/>
      <point x="398" y="418"/>
      <point x="306" y="420" type="curve" smooth="yes"/>
      <point x="204" y="422"/>
      <point x="118" y="337"/>
    </contour>
  </outline>
</glyph>
<glyph name="b" format="2">
  <advance width="541"/>
  <unicode hex="0062"/>
  <outline>
    <contour>
      <point x="230" y="780" type="line"/>
      <point x="95" y="0" type="line"/>
      <point x="44" y="0" type="line"/>
      <point x="178" y="780" type="line"/>
    </contour>
    <contour>
      <point x="516" y="230" type="curve" smooth="yes"/>
      <point x="496" y="96"/>
      <point x="390" y="-11"/>
      <point x="262" y="-10" type="curve" smooth="yes"/>
      <point x="138" y="-9"/>
      <point x="95" y="114"/>
      <point x="111" y="230" type="curve" smooth="yes"/>
      <point x="129" y="354"/>
      <point x="216" y="470"/>
      <point x="340" y="470" type="curve" smooth="yes"/>
      <point x="468" y="470"/>
      <point x="534" y="358"/>
    </contour>
    <contour>
      <point x="465" y="230" type="curve" smooth="yes"/>
      <point x="479" y="332"/>
      <point x="430" y="420"/>
      <point x="328" y="420" type="curve" smooth="yes"/>
      <point x="234" y="420"/>
      <point x="150" y="330"/>
      <point x="134" y="230" type="curve" smooth="yes"/>
      <point x="121" y="137"/>
      <point x="167" y="42"/>
      <point x="259" y="40" type="curve" smooth="yes"/>
      <point x="361" y="38"/>
      <point x="449" y="123"/>
    </contour>
  </outline>
</glyph>
<glyph name="c" format="2">
  <advance width="467"/>
  <unicode hex="0063"/>
  <outline>
    <contour>
      <point x="102" y="230" type="curve" smooth="yes"/>
      <point x="88" y="130"/>
      <point x="146" y="41"/>
      <point x="250" y="40" type="curve" smooth="yes"/>
      <point x="320" y="40"/>
      <point x="380" y="75"/>
      <point x="416" y="113" type="curve"/>
      <point x="406" y="48" type="line"/>
      <point x="367" y="15"/>
      <point x="309" y="-10"/>
      <point x="245" y="-10" type="curve" smooth="yes"/>
      <point x="112" y="-10"/>
      <point x="33" y="103"/>
      <point x="50" y="230" type="curve" smooth="yes"/>
      <point x="68" y="362"/>
      <point x="181" y="470"/>
      <point x="316" y="470" type="curve" smooth="yes"/>
      <point x="376" y="470"/>
      <point x="430" y="447"/>
      <point x="462" y="411" type="curve"/>
      <point x="452" y="346" type="line"/>
      <point x="428" y="388"/>
      <point x="378" y="420"/>
      <point x="312" y="420" type="curve" smooth="yes"/>
      <point x="206" y="420"/>
      <point x="118" y="334"/>
    </contour>
  </outline>
</glyph>
<glyph name="e" format="2">
  <advance width="500"/>
  <unicode hex="0065"/>
  <outline>
    <contour>
      <point x="233" y="-10" type="curve" smooth="yes"/>
      <point x="124" y="-10"/>
      <point x="50" y="71"/>
      <point x="50" y="199" type="curve" smooth="yes"/>
      <point x="50" y="339"/>
      <point x="164" y="470"/>
      <point x="304" y="470" type="curve" smooth="yes"/>
      <point x="411" y="470"/>
      <point x="482" y="393"/>
      <point x="482" y="273" type="curve" smooth="yes"/>
      <point x="482" y="255"/>
      <point x="477" y="229"/>
      <point x="471" y="217" type="curve"/>
      <point x="84" y="217" type="line"/>
      <point x="84" y="262" type="line"/>
      <point x="438" y="262" type="line"/>
      <point x="416" y="231" type="line"/>
      <point x="422" y="245"/>
      <point x="429" y="263"/>
      <point x="429" y="283" type="curve" smooth="yes"/>
      <point x="429" y="365"/>
      <point x="380" y="424"/>
      <point x="300" y="424" type="curve" smooth="yes"/>
      <point x="189" y="424"/>
      <point x="102" y="317"/>
      <point x="102" y="202" type="curve" smooth="yes"/>
      <point x="102" y="106"/>
      <point x="151" y="39"/>
      <point x="239" y="39" type="curve" smooth="yes"/>
      <point x="309" y="39"/>
      <point x="367" y="74"/>
      <point x="409" y="134" type="curve"/>
      <point x="450" y="107" type="line"/>
      <point x="398" y="35"/>
      <point x="325" y="-10"/>
    </contour>
  </outline>
</glyph>
<glyph name="f" format="2">
  <advance width="273"/>
  <unicode hex="0066"/>
  <outline>
    <contour>
      <point x="94" y="460" type="line"/>
      <point x="304" y="460" type="line"/>
      <point x="296" y="411" type="line"/>
      <point x="85" y="411" type="line"/>
    </contour>
    <contour>
      <point x="356" y="704" type="line"/>
      <point x="343" y="723"/>
      <point x="327" y="737"/>
      <point x="304" y="737" type="curve" smooth="yes"/>
      <point x="252" y="737"/>
      <point x="226" y="684"/>
      <point x="218" y="632" type="curve" smooth="yes"/>
      <point x="110" y="0" type="line"/>
      <point x="58" y="0" type="line"/>
      <point x="167" y="638" type="line" smooth="yes"/>
      <point x="180" y="720"/>
      <point x="227" y="790"/>
      <point x="312" y="788" type="curve" smooth="yes"/>
      <point x="350" y="788"/>
      <point x="374" y="767"/>
      <point x="391" y="745" type="curve"/>
    </contour>
  </outline>
</glyph>
<glyph name="i" format="2">
  <advance width="224"/>
  <unicode hex="0069"/>
  <outline>
    <contour>
      <point x="163" y="668" type="curve" smooth="yes"/>
      <point x="163" y="688"/>
      <point x="180" y="704"/>
      <point x="200" y="704" type="curve" smooth="yes"/>
      <point x="220" y="704"/>
      <point x="236" y="688"/>
      <point x="236" y="668" type="curve" smooth="yes"/>
      <point x="236" y="648"/>
      <point x="220" y="632"/>
      <point x="200" y="632" type="curve" smooth="yes"/>
      <point x="180" y="632"/>
      <point x="163" y="648"/>
    </contour>
    <contour>
      <point x="138" y="460" type="line"/>
      <point x="190" y="460" type="line"/>
      <point x="112" y="0" type="line"/>
      <point x="60" y="0" type="line"/>
    </contour>
  </outline>
</glyph>
<glyph name="j" format="2">
  <advance width="215"/>
  <unicode hex="006A"/>
  <outline>
    <contour>
      <point x="152" y="668" type="curve" smooth="yes"/>
      <point x="152" y="688"/>
      <point x="168" y="704"/>
      <point x="188" y="704" type="curve" smooth="yes"/>
      <point x="208" y="704"/>
      <point x="225" y="688"/>
      <point x="225" y="668" type="curve" smooth="yes"/>
      <point x="225" y="648"/>
      <point x="208" y="632"/>
      <point x="188" y="632" type="curve" smooth="yes"/>
      <point x="168" y="632"/>
      <point x="152" y="648"/>
    </contour>
    <contour>
      <point x="-99" y="-134" type="line"/>
      <point x="-89" y="-150"/>
      <point x="-68" y="-168"/>
      <point x="-46" y="-168" type="curve" smooth="yes"/>
      <point x="7" y="-169"/>
      <point x="31" y="-113"/>
      <point x="39" y="-63" type="curve" smooth="yes"/>
      <point x="129" y="460" type="line"/>
      <point x="180" y="460" type="line"/>
      <point x="90" y="-69" type="line" smooth="yes"/>
      <point x="77" y="-148"/>
      <point x="34" y="-221"/>
      <point x="-51" y="-220" type="curve" smooth="yes"/>
      <point x="-88" y="-220"/>
      <point x="-115" y="-200"/>
      <point x="-134" y="-176" type="curve"/>
    </contour>
  </outline>
</glyph>
<glyph name="k" format="2">
  <advance width="399"/>
  <unicode hex="006B"/>
  <outline>
    <contour>
      <point x="177" y="780" type="line"/>
      <point x="230" y="780" type="line"/>
      <point x="95" y="0" type="line"/>
      <point x="44" y="0" type="line"/>
    </contour>
    <contour>
      <point x="364" y="460" type="line"/>
      <point x="432" y="460" type="line"/>
      <point x="184" y="266" type="line"/>
      <point x="369" y="0" type="line"/>
      <point x="307" y="0" type="line"/>
      <point x="123" y="272" type="line"/>
    </contour>
  </outline>
</glyph>
<glyph name="l" format="2">
  <advance width="203"/>
  <unicode hex="006C"/>
  <outline>
    <contour>
      <point x="182" y="780" type="line"/>
      <point x="234" y="780" type="line"/>
      <point x="100" y="0" type="line"/>
      <point x="50" y="0" type="line"/>
    </contour>
  </outline>
</glyph>
<glyph name="m" format="2">
  <advance width="721"/>
  <unicode hex="006D"/>
  <outline>
    <contour>
      <point x="670" y="302" type="curve" smooth="yes"/>
      <point x="618" y="0" type="line"/>
      <point x="566" y="0" type="line"/>
      <point x="618" y="296" type="line" smooth="yes"/>
      <point x="626" y="360"/>
      <point x="617" y="420"/>
      <point x="550" y="420" type="curve" smooth="yes"/>
      <point x="478" y="421"/>
      <point x="420" y="356"/>
      <point x="409" y="284" type="curve" smooth="yes"/>
      <point x="359" y="0" type="line"/>
      <point x="308" y="0" type="line"/>
      <point x="360" y="296" type="line" smooth="yes"/>
      <point x="368" y="360"/>
      <point x="359" y="420"/>
      <point x="292" y="420" type="curve" smooth="yes"/>
      <point x="221" y="421"/>
      <point x="163" y="361"/>
      <point x="151" y="287" type="curve" smooth="yes"/>
      <point x="100" y="0" type="line"/>
      <point x="48" y="0" type="line"/>
      <point x="128" y="460" type="line"/>
      <point x="180" y="460" type="line"/>
      <point x="165" y="372" type="line"/>
      <point x="193" y="429"/>
      <point x="246" y="470"/>
      <point x="308" y="470" type="curve" smooth="yes"/>
      <point x="377" y="470"/>
      <point x="406" y="421"/>
      <point x="411" y="364" type="curve"/>
      <point x="445" y="428"/>
      <point x="498" y="470"/>
      <point x="566" y="470" type="curve" smooth="yes"/>
      <point x="657" y="470"/>
      <point x="680" y="389"/>
    </contour>
  </outline>
</glyph>
<glyph name="n" format="2">
  <advance width="489"/>
  <unicode hex="006E"/>
  <outline>
    <contour>
      <point x="386" y="296" type="line" smooth="yes"/>
      <point x="395" y="362"/>
      <point x="379" y="420"/>
      <point x="305" y="420" type="curve" smooth="yes"/>
      <point x="227" y="420"/>
      <point x="163" y="360"/>
      <point x="151" y="286" type="curve" smooth="yes"/>
      <point x="100" y="0" type="line"/>
      <point x="48" y="0" type="line"/>
      <point x="128" y="460" type="line"/>
      <point x="180" y="460" type="line"/>
      <point x="164" y="368" type="line"/>
      <point x="195" y="428"/>
      <point x="251" y="470"/>
      <point x="321" y="470" type="curve" smooth="yes"/>
      <point x="419" y="470"/>
      <point x="450" y="391"/>
      <point x="438" y="302" type="curve" smooth="yes"/>
      <point x="386" y="0" type="line"/>
      <point x="336" y="0" type="line"/>
    </contour>
  </outline>
</glyph>
<glyph name="o" format="2">
  <advance width="533"/>
  <unicode hex="006F"/>
  <outline>
    <contour>
      <point x="56" y="230" type="curve" smooth="yes"/>
      <point x="74" y="362"/>
      <point x="186" y="470"/>
      <point x="320" y="470" type="curve" smooth="yes"/>
      <point x="453" y="470"/>
      <point x="532" y="357"/>
      <point x="515" y="230" type="curve" smooth="yes"/>
      <point x="497" y="98"/>
      <point x="384" y="-10"/>
      <point x="250" y="-10" type="curve" smooth="yes"/>
      <point x="117" y="-10"/>
      <point x="39" y="103"/>
    </contour>
    <contour>
      <point x="108" y="230" type="curve" smooth="yes"/>
      <point x="94" y="131"/>
      <point x="150" y="40"/>
      <point x="254" y="40" type="curve" smooth="yes"/>
      <point x="360" y="40"/>
      <point x="447" y="126"/>
      <point x="463" y="230" type="curve" smooth="yes"/>
      <point x="477" y="329"/>
      <point x="420" y="420"/>
      <point x="316" y="420" type="curve" smooth="yes"/>
      <point x="210" y="420"/>
      <point x="124" y="334"/>
    </contour>
  </outline>
</glyph>
<glyph name="p" format="2">
  <advance width="541"/>
  <unicode hex="0070"/>
  <outline>
    <contour>
      <point x="58" y="-220" type="line"/>
      <point x="6" y="-220" type="line"/>
      <point x="124" y="460" type="line"/>
      <point x="174" y="460" type="line"/>
    </contour>
    <contour>
      <point x="516" y="230" type="curve" smooth="yes"/>
      <point x="496" y="96"/>
      <point x="390" y="-11"/>
      <point x="262" y="-10" type="curve" smooth="yes"/>
      <point x="138" y="-9"/>
      <point x="95" y="114"/>
      <point x="111" y="230" type="curve" smooth="yes"/>
      <point x="129" y="354"/>
      <point x="216" y="470"/>
      <point x="340" y="470" type="curve" smooth="yes"/>
      <point x="468" y="470"/>
      <point x="534" y="358"/>
    </contour>
    <contour>
      <point x="465" y="230" type="curve" smooth="yes"/>
      <point x="479" y="332"/>
      <point x="430" y="420"/>
      <point x="328" y="420" type="curve" smooth="yes"/>
      <point x="234" y="420"/>
      <point x="150" y="330"/>
      <point x="134" y="230" type="curve" smooth="yes"/>
      <point x="121" y="137"/>
      <point x="167" y="42"/>
      <point x="259" y="40" type="curve" smooth="yes"/>
      <point x="361" y="38"/>
      <point x="449" y="123"/>
    </contour>
  </outline>
</glyph>
<glyph name="s" format="2">
  <advance width="391"/>
  <unicode hex="0073"/>
  <outline>
    <contour>
      <point x="80" y="136" type="line"/>
      <point x="98" y="84"/>
      <point x="132" y="38"/>
      <point x="202" y="38" type="curve" smooth="yes"/>
      <point x="257" y="38"/>
      <point x="298" y="72"/>
      <point x="302" y="122" type="curve" smooth="yes"/>
      <point x="306" y="174"/>
      <point x="255" y="202"/>
      <point x="206" y="220" type="curve" smooth="yes"/>
      <point x="148" y="242"/>
      <point x="90" y="271"/>
      <point x="94" y="348" type="curve" smooth="yes"/>
      <point x="98" y="428"/>
      <point x="168" y="469"/>
      <point x="239" y="469" type="curve" smooth="yes"/>
      <point x="313" y="469"/>
      <point x="360" y="428"/>
      <point x="382" y="376" type="curve"/>
      <point x="342" y="350" type="line"/>
      <point x="322" y="391"/>
      <point x="290" y="424"/>
      <point x="236" y="424" type="curve" smooth="yes"/>
      <point x="186" y="424"/>
      <point x="148" y="398"/>
      <point x="144" y="354" type="curve" smooth="yes"/>
      <point x="140" y="302"/>
      <point x="182" y="282"/>
      <point x="234" y="262" type="curve" smooth="yes"/>
      <point x="300" y="236"/>
      <point x="358" y="205"/>
      <point x="354" y="128" type="curve" smooth="yes"/>
      <point x="350" y="50"/>
      <point x="284" y="-10"/>
      <point x="197" y="-10" type="curve" smooth="yes"/>
      <point x="103" y="-10"/>
      <point x="53" y="52"/>
      <point x="37" y="113" type="curve"/>
    </contour>
  </outline>
</glyph>
<glyph name="t" format="2">
  <advance width="213"/>
  <unicode hex="0074"/>
  <outline>
    <contour>
      <point x="62" y="460" type="line"/>
      <point x="258" y="460" type="line"/>
      <point x="250" y="411" type="line"/>
      <point x="52" y="411" type="line"/>
    </contour>
    <contour>
      <point x="160" y="620" type="line"/>
      <point x="212" y="620" type="line"/>
      <point x="104" y="0" type="line"/>
      <point x="54" y="0" type="line"/>
    </contour>
  </outline>
</glyph>
<glyph name="u" format="2">
  <advance width="489"/>
  <unicode hex="0075"/>
  <outline>
    <contour>
      <point x="128" y="168" type="line" smooth="yes"/>
      <point x="119" y="100"/>
      <point x="136" y="40"/>
      <point x="210" y="40" type="curve" smooth="yes"/>
      <point x="288" y="40"/>
      <point x="352" y="102"/>
      <point x="364" y="174" type="curve" smooth="yes"/>
      <point x="414" y="460" type="line"/>
      <point x="466" y="460" type="line"/>
      <point x="386" y="0" type="line"/>
      <point x="334" y="0" type="line"/>
      <point x="350" y="90" type="line"/>
      <point x="317" y="30"/>
      <point x="263" y="-10"/>
      <point x="193" y="-10" type="curve" smooth="yes"/>
      <point x="95" y="-10"/>
      <point x="63" y="70"/>
      <point x="76" y="162" type="curve" smooth="yes"/>
      <point x="128" y="460" type="line"/>
      <point x="178" y="460" type="line"/>
    </contour>
  </outline>
</glyph>
<glyph name="v" format="2">
  <advance width="418"/>
  <unicode hex="0076"/>
  <outline>
    <contour>
      <point x="58" y="460" type="line"/>
      <point x="114" y="460" type="line"/>
      <point x="205" y="87" type="line"/>
      <point x="412" y="460" type="line"/>
      <point x="471" y="460" type="line"/>
      <point x="188" y="-28" type="line"/>
    </contour>
  </outline>
</glyph>
<glyph name="w" format="2">
  <advance width="636"/>
  <unicode hex="0077"/>
  <outline>
    <contour>
      <point x="61" y="460" type="line"/>
      <point x="116" y="460" type="line"/>
      <point x="175" y="106" type="line"/>
      <point x="370" y="488" type="line"/>
      <point x="440" y="104" type="line"/>
      <point x="622" y="460" type="line"/>
      <point x="681" y="460" type="line"/>
      <point x="422" y="-28" type="line"/>
      <point x="349" y="355" type="line"/>
      <point x="150" y="-28" type="line"/>
    </contour>
  </outline>
</glyph>
<glyph name="x" format="2">
  <advance width="391"/>
  <unicode hex="0078"/>
  <outline>
    <contour>
      <point x="373" y="460" type="line"/>
      <point x="434" y="460" type="line"/>
      <point x="244" y="234" type="line"/>
      <point x="370" y="0" type="line"/>
      <point x="314" y="0" type="line"/>
      <point x="210" y="197" type="line"/>
      <point x="46" y="0" type="line"/>
      <point x="-15" y="0" type="line"/>
      <point x="188" y="240" type="line"/>
      <point x="68" y="460" type="line"/>
      <point x="124" y="460" type="line"/>
      <point x="222" y="278" type="line"/>
    </contour>
  </outline>
</glyph>
<glyph name="y" format="2">
  <advance width="420"/>
  <unicode hex="0079"/>
  <outline>
    <contour>
      <point x="470" y="460" type="line"/>
      <point x="62" y="-220" type="line"/>
      <point x="4" y="-220" type="line"/>
      <point x="166" y="48" type="line"/>
      <point x="56" y="460" type="line"/>
      <point x="112" y="460" type="line"/>
      <point x="211" y="68" type="line"/>
      <point x="187" y="70" type="line"/>
      <point x="412" y="460" type="line"/>
    </contour>
  </outline>
</glyph>
<glyph name="z" format="2">
  <advance width="434"/>
  <unicode hex="007A"/>
  <outline>
    <contour>
      <point x="364" y="411" type="line"/>
      <point x="84" y="411" type="line"/>
      <point x="92" y="460" type="line"/>
      <point x="468" y="460" type="line"/>
      <point x="92" y="49" type="line"/>
      <point x="388" y="49" type="line"/>
      <point x="380" y="0" type="line"/>
      <point x="-12" y="0" type="line"/>
    </contour>
  </outline>
</glyph>
<glyph name="braceleft" format="2">
  <advance width="289"/>
  <unicode hex="007B"/>
  <outline>
    <contour>
      <point x="245" y="652" type="curve" smooth="yes"/>
      <point x="216" y="466" type="line" smooth="yes"/>
      <point x="203" y="380"/>
      <point x="178" y="296"/>
      <point x="95" y="284" type="curve"/>
      <point x="97" y="297" type="line"/>
      <point x="175" y="281"/>
      <point x="172" y="192"/>
      <point x="162" y="114" type="curve" smooth="yes"/>
      <point x="132" y="-72" type="line" smooth="yes"/>
      <point x="126" y="-118"/>
      <point x="134" y="-154"/>
      <point x="180" y="-154" type="curve" smooth="yes"/>
      <point x="209" y="-154" type="line"/>
      <point x="202" y="-200" type="line"/>
      <point x="160" y="-200" type="line" smooth="yes"/>
      <point x="94" y="-200"/>
      <point x="76" y="-137"/>
      <point x="84" y="-60" type="curve" smooth="yes"/>
      <point x="116" y="150" type="line" smooth="yes"/>
      <point x="122" y="211"/>
      <point x="116" y="246"/>
      <point x="84" y="270" type="curve"/>
      <point x="90" y="310" type="line"/>
      <point x="128" y="330"/>
      <point x="151" y="366"/>
      <point x="159" y="430" type="curve" smooth="yes"/>
      <point x="191" y="640" type="line" smooth="yes"/>
      <point x="202" y="722"/>
      <point x="243" y="780"/>
      <point x="308" y="780" type="curve" smooth="yes"/>
      <point x="352" y="780" type="line"/>
      <point x="346" y="734" type="line"/>
      <point x="318" y="734" type="line" smooth="yes"/>
      <point x="272" y="734"/>
      <point x="252" y="701"/>
    </contour>
  </outline>
</glyph>
<glyph name="bar" format="2">
  <advance width="240"/>
  <unicode hex="007C"/>
  <outline>
    <contour>
      <point x="200" y="784" type="line"/>
      <point x="248" y="784" type="line"/>
      <point x="94" y="-214" type="line"/>
      <point x="46" y="-214" type="line"/>
    </contour>
  </outline>
</glyph>
<glyph name="braceright" format="2">
  <advance width="289"/>
  <unicode hex="007D"/>
  <outline>
    <contour>
      <point x="106" y="-72" type="curve" smooth="yes"/>
      <point x="134" y="114" type="line" smooth="yes"/>
      <point x="147" y="200"/>
      <point x="172" y="284"/>
      <point x="255" y="296" type="curve"/>
      <point x="253" y="283" type="line"/>
      <point x="175" y="299"/>
      <point x="178" y="388"/>
      <point x="188" y="466" type="curve" smooth="yes"/>
      <point x="218" y="652" type="line" smooth="yes"/>
      <point x="224" y="698"/>
      <point x="216" y="734"/>
      <point x="170" y="734" type="curve" smooth="yes"/>
      <point x="142" y="734" type="line"/>
      <point x="148" y="780" type="line"/>
      <point x="190" y="780" type="line" smooth="yes"/>
      <point x="256" y="780"/>
      <point x="274" y="717"/>
      <point x="266" y="640" type="curve" smooth="yes"/>
      <point x="234" y="430" type="line" smooth="yes"/>
      <point x="228" y="369"/>
      <point x="234" y="334"/>
      <point x="266" y="310" type="curve"/>
      <point x="260" y="270" type="line"/>
      <point x="222" y="250"/>
      <point x="200" y="214"/>
      <point x="192" y="150" type="curve" smooth="yes"/>
      <point x="160" y="-60" type="line" smooth="yes"/>
      <point x="149" y="-142"/>
      <point x="107" y="-200"/>
      <point x="42" y="-200" type="curve" smooth="yes"/>
      <point x="-2" y="-200" type="line"/>
      <point x="4" y="-154" type="line"/>
      <point x="32" y="-154" type="line" smooth="yes"/>
      <point x="78" y="-154"/>
      <point x="99" y="-121"/>
    </contour>
  </outline>
</glyph>
<glyph name="asciitilde" format="2">
  <advance width="558"/>
  <unicode hex="007E"/>
  <outline>
    <contour>
      <point x="127" y="177" type="curve"/>
      <point x="80" y="181" type="line"/>
      <point x="80" y="189"/>
      <point x="79" y="198"/>
      <point x="80" y="206" type="curve" smooth="yes"/>
      <point x="84" y="232"/>
      <point x="97" y="259"/>
      <point x="116" y="281" type="curve" smooth="yes"/>
      <point x="141" y="309"/>
      <point x="177" y="326"/>
      <point x="216" y="326" type="curve" smooth="yes"/>
      <point x="261" y="326"/>
      <point x="293" y="298"/>
      <point x="324" y="267" type="curve" smooth="yes"/>
      <point x="346" y="245"/>
      <point x="369" y="222"/>
      <point x="399" y="222" type="curve" smooth="yes"/>
      <point x="439" y="222"/>
      <point x="464" y="256"/>
      <point x="470" y="294" type="curve" smooth="yes"/>
      <point x="472" y="302"/>
      <point x="472" y="312"/>
      <point x="470" y="322" type="curve"/>
      <point x="520" y="318" type="line"/>
      <point x="520" y="310"/>
      <point x="521" y="300"/>
      <point x="519" y="290" type="curve" smooth="yes"/>
      <point x="515" y="264"/>
      <point x="504" y="235"/>
      <point x="486" y="214" type="curve" smooth="yes"/>
      <point x="464" y="188"/>
      <point x="432" y="172"/>
      <point x="398" y="172" type="curve" smooth="yes"/>
      <point x="357" y="172"/>
      <point x="326" y="199"/>
      <point x="296" y="229" type="curve" smooth="yes"/>
      <point x="272" y="253"/>
      <point x="248" y="278"/>
      <point x="212" y="278" type="curve" smooth="yes"/>
      <point x="165" y="278"/>
      <point x="134" y="243"/>
      <point x="127" y="199" type="curve" smooth="yes"/>
      <point x="125" y="192"/>
      <point x="126" y="185"/>
    </contour>
  </outline>
</glyph>
<glyph name="exclamdown" format="2">
  <advance width="291"/>
  <unicode hex="00A1"/>
  <outline>
    <contour>
      <point x="116" y="-245" type="line"/>
      <point x="51" y="-245" type="line"/>
      <point x="150" y="254" type="line"/>
      <point x="188" y="254" type="line"/>
    </contour>
    <contour>
      <point x="236" y="430" type="curve" smooth="yes"/>
      <point x="234" y="412"/>
      <point x="212" y="393"/>
      <point x="194" y="394" type="curve" smooth="yes"/>
      <point x="175" y="395"/>
      <point x="160" y="412"/>
      <point x="162" y="432" type="curve" smooth="yes"/>
      <point x="164" y="450"/>
      <point x="187" y="469"/>
      <point x="205" y="468" type="curve" smooth="yes"/>
      <point x="224" y="467"/>
      <point x="238" y="450"/>
    </contour>
  </outline>
</glyph>
<glyph name="cent" format="2">
  <advance width="562"/>
  <unicode hex="00A2"/>
  <outline>
    <contour>
      <point x="262" y="20" type="line"/>
      <point x="302" y="20" type="line"/>
      <point x="280" y="-112" type="line"/>
      <point x="237" y="-112" type="line"/>
    </contour>
    <contour>
      <point x="144" y="230" type="curve" smooth="yes"/>
      <point x="128" y="132"/>
      <point x="184" y="41"/>
      <point x="288" y="40" type="curve" smooth="yes"/>
      <point x="358" y="40"/>
      <point x="419" y="75"/>
      <point x="455" y="113" type="curve"/>
      <point x="445" y="48" type="line"/>
      <point x="406" y="15"/>
      <point x="346" y="-10"/>
      <point x="282" y="-10" type="curve" smooth="yes"/>
      <point x="148" y="-10"/>
      <point x="74" y="104"/>
      <point x="92" y="230" type="curve" smooth="yes"/>
      <point x="112" y="362"/>
      <point x="225" y="470"/>
      <point x="361" y="470" type="curve" smooth="yes"/>
      <point x="421" y="470"/>
      <point x="474" y="447"/>
      <point x="506" y="411" type="curve"/>
      <point x="496" y="346" type="line"/>
      <point x="474" y="389"/>
      <point x="421" y="420"/>
      <point x="356" y="420" type="curve" smooth="yes"/>
      <point x="250" y="420"/>
      <point x="162" y="334"/>
    </contour>
    <contour>
      <point x="355" y="578" type="line"/>
      <point x="398" y="578" type="line"/>
      <point x="372" y="442" type="line"/>
      <point x="333" y="442" type="line"/>
    </contour>
  </outline>
</glyph>
<glyph name="sterling" format="2">
  <advance width="562"/>
  <unicode hex="00A3"/>
  <outline>
    <contour>
      <point x="104" y="344" type="line"/>
      <point x="435" y="344" type="line"/>
      <point x="426" y="295" type="line"/>
      <point x="95" y="295" type="line"/>
    </contour>
    <contour>
      <point x="504" y="487" type="line"/>
      <point x="510" y="559"/>
      <point x="491" y="654"/>
      <point x="394" y="656" type="curve" smooth="yes"/>
      <point x="318" y="658"/>
      <point x="251" y="601"/>
      <point x="238" y="527" type="curve" smooth="yes"/>
      <point x="222" y="423"/>
      <point x="310" y="364"/>
      <point x="296" y="264" type="curve" smooth="yes"/>
      <point x="280" y="158"/>
      <point x="180" y="73"/>
      <point x="108" y="31" type="curve"/>
      <point x="111" y="52" type="line"/>
      <point x="476" y="52" type="line"/>
      <point x="467" y="0" type="line"/>
      <point x="46" y="0" type="line"/>
      <point x="132" y="88"/>
      <point x="224" y="155"/>
      <point x="242" y="255" type="curve" smooth="yes"/>
      <point x="257" y="349"/>
      <point x="168" y="414"/>
      <point x="182" y="526" type="curve" smooth="yes"/>
      <point x="198" y="630"/>
      <point x="289" y="711"/>
      <point x="400" y="710" type="curve" smooth="yes"/>
      <point x="524" y="709"/>
      <point x="559" y="590"/>
      <point x="553" y="504" type="curve"/>
    </contour>
  </outline>
</glyph>
<glyph name="currency" format="2">
  <advance width="554"/>
  <unicode hex="00A4"/>
  <outline>
    <contour>
      <point x="103" y="512" type="line"/>
      <point x="142" y="544" type="line"/>
      <point x="208" y="462" type="line"/>
      <point x="170" y="430" type="line"/>
    </contour>
    <contour>
      <point x="60" y="56" type="line"/>
      <point x="31" y="90" type="line"/>
      <point x="124" y="170" type="line"/>
      <point x="152" y="136" type="line"/>
    </contour>
    <contour>
      <point x="483" y="430" type="line"/>
      <point x="454" y="464" type="line"/>
      <point x="548" y="544" type="line"/>
      <point x="575" y="510" type="line"/>
    </contour>
    <contour>
      <point x="398" y="138" type="line"/>
      <point x="436" y="170" type="line"/>
      <point x="503" y="88" type="line"/>
      <point x="466" y="56" type="line"/>
    </contour>
    <contour>
      <point x="74" y="300" type="curve" smooth="yes"/>
      <point x="94" y="431"/>
      <point x="207" y="540"/>
      <point x="340" y="540" type="curve" smooth="yes"/>
      <point x="472" y="540"/>
      <point x="548" y="426"/>
      <point x="530" y="300" type="curve" smooth="yes"/>
      <point x="510" y="169"/>
      <point x="395" y="60"/>
      <point x="262" y="60" type="curve" smooth="yes"/>
      <point x="130" y="60"/>
      <point x="56" y="174"/>
    </contour>
    <contour>
      <point x="126" y="300" type="curve" smooth="yes"/>
      <point x="111" y="202"/>
      <point x="163" y="110"/>
      <point x="267" y="110" type="curve" smooth="yes"/>
      <point x="371" y="110"/>
      <point x="461" y="197"/>
      <point x="478" y="300" type="curve" smooth="yes"/>
      <point x="493" y="398"/>
      <point x="440" y="490"/>
      <point x="336" y="490" type="curve" smooth="yes"/>
      <point x="232" y="490"/>
      <point x="143" y="403"/>
    </contour>
  </outline>
</glyph>
<glyph name="yen" format="2">
  <advance width="556"/>
  <unicode hex="00A5"/>
  <outline>
    <contour>
      <point x="59" y="282" type="line"/>
      <point x="67" y="331" type="line"/>
      <point x="536" y="331" type="line"/>
      <point x="528" y="282" type="line"/>
    </contour>
    <contour>
      <point x="35" y="142" type="line"/>
      <point x="43" y="191" type="line"/>
      <point x="512" y="191" type="line"/>
      <point x="504" y="142" type="line"/>
    </contour>
    <contour>
      <point x="558" y="700" type="line"/>
      <point x="620" y="700" type="line"/>
      <point x="322" y="288" type="line"/>
      <point x="272" y="0" type="line"/>
      <point x="216" y="0" type="line"/>
      <point x="268" y="291" type="line"/>
      <point x="114" y="700" type="line"/>
      <point x="172" y="700" type="line"/>
      <point x="301" y="339" type="line"/>
    </contour>
  </outline>
</glyph>
<glyph name="brokenbar" format="2">
  <advance width="240"/>
  <unicode hex="00A6"/>
  <outline>
    <contour>
      <point x="188" y="694" type="line"/>
      <point x="236" y="694" type="line"/>
      <point x="194" y="456" type="line"/>
      <point x="147" y="456" type="line"/>
    </contour>
    <contour>
      <point x="159" y="244" type="line"/>
      <point x="118" y="6" type="line"/>
      <point x="70" y="6" type="line"/>
      <point x="112" y="244" type="line"/>
    </contour>
  </outline>
</glyph>
<glyph name="section" format="2">
  <advance width="391"/>
  <unicode hex="00A7"/>
  <outline>
    <contour>
      <point x="395" y="594" type="line"/>
      <point x="377" y="636"/>
      <point x="336" y="660"/>
      <point x="288" y="660" type="curve" smooth="yes"/>
      <point x="243" y="660"/>
      <point x="189" y="638"/>
      <point x="182" y="592" type="curve" smooth="yes"/>
      <point x="174" y="541"/>
      <point x="246" y="517"/>
      <point x="290" y="497" type="curve" smooth="yes"/>
      <point x="348" y="470"/>
      <point x="408" y="432"/>
      <point x="399" y="366" type="curve" smooth="yes"/>
      <point x="386" y="274"/>
      <point x="306" y="244"/>
      <point x="216" y="241" type="curve"/>
      <point x="219" y="261" type="line"/>
      <point x="279" y="273"/>
      <point x="338" y="306"/>
      <point x="346" y="362" type="curve" smooth="yes"/>
      <point x="354" y="416"/>
      <point x="294" y="442"/>
      <point x="248" y="462" type="curve" smooth="yes"/>
      <point x="190" y="488"/>
      <point x="120" y="520"/>
      <point x="131" y="594" type="curve" smooth="yes"/>
      <point x="142" y="668"/>
      <point x="220" y="710"/>
      <point x="292" y="710" type="curve" smooth="yes"/>
      <point x="360" y="710"/>
      <point x="420" y="676"/>
      <point x="438" y="620" type="curve"/>
    </contour>
    <contour>
      <point x="68" y="147" type="line"/>
      <point x="76" y="87"/>
      <point x="119" y="40"/>
      <point x="186" y="40" type="curve" smooth="yes"/>
      <point x="238" y="40"/>
      <point x="294" y="61"/>
      <point x="303" y="114" type="curve" smooth="yes"/>
      <point x="313" y="174"/>
      <point x="254" y="199"/>
      <point x="204" y="222" type="curve" smooth="yes"/>
      <point x="146" y="250"/>
      <point x="80" y="290"/>
      <point x="90" y="360" type="curve" smooth="yes"/>
      <point x="104" y="439"/>
      <point x="177" y="475"/>
      <point x="274" y="479" type="curve"/>
      <point x="272" y="464" type="line"/>
      <point x="207" y="446"/>
      <point x="152" y="417"/>
      <point x="142" y="365" type="curve" smooth="yes"/>
      <point x="132" y="303"/>
      <point x="199" y="278"/>
      <point x="246" y="256" type="curve" smooth="yes"/>
      <point x="306" y="228"/>
      <point x="366" y="190"/>
      <point x="356" y="118" type="curve" smooth="yes"/>
      <point x="344" y="32"/>
      <point x="264" y="-11"/>
      <point x="178" y="-10" type="curve" smooth="yes"/>
      <point x="94" y="-9"/>
      <point x="30" y="48"/>
      <point x="22" y="124" type="curve"/>
    </contour>
  </outline>
</glyph>
<glyph name="dieresis" format="2">
  <advance width="437"/>
  <unicode hex="00A8"/>
  <outline>
    <contour>
      <point x="366" y="672" type="curve" smooth="yes"/>
      <point x="368" y="690"/>
      <point x="389" y="709"/>
      <point x="407" y="708" type="curve" smooth="yes"/>
      <point x="426" y="707"/>
      <point x="441" y="691"/>
      <point x="439" y="671" type="curve" smooth="yes"/>
      <point x="437" y="653"/>
      <point x="414" y="633"/>
      <point x="396" y="634" type="curve" smooth="yes"/>
      <point x="377" y="635"/>
      <point x="364" y="652"/>
    </contour>
    <contour>
      <point x="172" y="672" type="curve" smooth="yes"/>
      <point x="174" y="690"/>
      <point x="195" y="709"/>
      <point x="213" y="708" type="curve" smooth="yes"/>
      <point x="232" y="707"/>
      <point x="247" y="691"/>
      <point x="245" y="671" type="curve" smooth="yes"/>
      <point x="243" y="653"/>
      <point x="220" y="633"/>
      <point x="202" y="634" type="curve" smooth="yes"/>
      <point x="183" y="635"/>
      <point x="170" y="652"/>
    </contour>
  </outline>
</glyph>
<glyph name="copyright" format="2">
  <advance width="776"/>
  <unicode hex="00A9"/>
  <outline>
    <contour>
      <point x="253" y="350" type="curve" smooth="yes"/>
      <point x="239" y="256"/>
      <point x="289" y="169"/>
      <point x="388" y="168" type="curve" smooth="yes"/>
      <point x="445" y="167"/>
      <point x="492" y="192"/>
      <point x="530" y="224" type="curve"/>
      <point x="524" y="180" type="line"/>
      <point x="485" y="152"/>
      <point x="442" y="134"/>
      <point x="386" y="134" type="curve" smooth="yes"/>
      <point x="270" y="134"/>
      <point x="203" y="237"/>
      <point x="218" y="350" type="curve" smooth="yes"/>
      <point x="234" y="468"/>
      <point x="332" y="565"/>
      <point x="450" y="566" type="curve" smooth="yes"/>
      <point x="504" y="566"/>
      <point x="542" y="549"/>
      <point x="576" y="519" type="curve"/>
      <point x="569" y="475" type="line"/>
      <point x="539" y="511"/>
      <point x="500" y="532"/>
      <point x="448" y="532" type="curve" smooth="yes"/>
      <point x="348" y="532"/>
      <point x="268" y="450"/>
    </contour>
    <contour>
      <point x="112" y="350" type="curve" smooth="yes"/>
      <point x="88" y="179"/>
      <point x="193" y="24"/>
      <point x="373" y="24" type="curve" smooth="yes"/>
      <point x="556" y="24"/>
      <point x="711" y="171"/>
      <point x="738" y="350" type="curve" smooth="yes"/>
      <point x="762" y="521"/>
      <point x="657" y="676"/>
      <point x="477" y="676" type="curve" smooth="yes"/>
      <point x="294" y="676"/>
      <point x="139" y="529"/>
    </contour>
    <contour>
      <point x="75" y="350" type="curve" smooth="yes"/>
      <point x="103" y="550"/>
      <point x="274" y="710"/>
      <point x="478" y="710" type="curve" smooth="yes"/>
      <point x="679" y="710"/>
      <point x="801" y="542"/>
      <point x="775" y="350" type="curve" smooth="yes"/>
      <point x="747" y="150"/>
      <point x="576" y="-10"/>
      <point x="372" y="-10" type="curve" smooth="yes"/>
      <point x="171" y="-10"/>
      <point x="49" y="158"/>
    </contour>
  </outline>
</glyph>
<glyph name="ordfeminine" format="2">
  <advance width="230"/>
  <unicode hex="00AA"/>
  <outline>
    <contour>
      <point x="110" y="530" type="curve" smooth="yes"/>
      <point x="106" y="500"/>
      <point x="126" y="481"/>
      <point x="157" y="480" type="curve" smooth="yes"/>
      <point x="198" y="478"/>
      <point x="229" y="510"/>
      <point x="241" y="546" type="curve"/>
      <point x="244" y="530" type="line"/>
      <point x="232" y="490"/>
      <point x="199" y="455"/>
      <point x="150" y="456" type="curve" smooth="yes"/>
      <point x="110" y="457"/>
      <point x="78" y="487"/>
      <point x="84" y="531" type="curve" smooth="yes"/>
      <point x="92" y="577"/>
      <point x="143" y="608"/>
      <point x="189" y="608" type="curve" smooth="yes"/>
      <point x="223" y="608"/>
      <point x="243" y="592"/>
      <point x="257" y="580" type="curve"/>
      <point x="254" y="564" type="line"/>
      <point x="236" y="577"/>
      <point x="216" y="588"/>
      <point x="189" y="588" type="curve" smooth="yes"/>
      <point x="154" y="588"/>
      <point x="114" y="564"/>
    </contour>
    <contour>
      <point x="139" y="652" type="curve"/>
      <point x="129" y="674" type="line"/>
      <point x="151" y="688"/>
      <point x="179" y="704"/>
      <point x="215" y="703" type="curve" smooth="yes"/>
      <point x="261" y="701"/>
      <point x="285" y="672"/>
      <point x="281" y="630" type="curve"/>
      <point x="252" y="460" type="line"/>
      <point x="226" y="460" type="line"/>
      <point x="256" y="631" type="line"/>
      <point x="256" y="659"/>
      <point x="244" y="677"/>
      <point x="214" y="679" type="curve" smooth="yes"/>
      <point x="184" y="681"/>
      <point x="157" y="664"/>
    </contour>
  </outline>
</glyph>
<glyph name="guillemotleft" format="2">
  <advance width="484"/>
  <unicode hex="00AB"/>
  <outline>
    <contour>
      <point x="267" y="257" type="line"/>
      <point x="399" y="50" type="line"/>
      <point x="363" y="20" type="line"/>
      <point x="210" y="257" type="line"/>
      <point x="441" y="490" type="line"/>
      <point x="470" y="459" type="line"/>
    </contour>
    <contour>
      <point x="112" y="257" type="line"/>
      <point x="244" y="50" type="line"/>
      <point x="208" y="20" type="line"/>
      <point x="55" y="257" type="line"/>
      <point x="286" y="490" type="line"/>
      <point x="314" y="459" type="line"/>
    </contour>
  </outline>
</glyph>
<glyph name="uni00AD" format="2">
  <advance width="203"/>
  <unicode hex="00AD"/>
  <outline>
    <contour>
      <point x="16" y="226" type="line"/>
      <point x="24" y="275" type="line"/>
      <point x="220" y="275" type="line"/>
      <point x="212" y="226" type="line"/>
    </contour>
  </outline>
</glyph>
<glyph name="registered" format="2">
  <advance width="776"/>
  <unicode hex="00AE"/>
  <outline>
    <contour>
      <point x="380" y="350" type="line"/>
      <point x="417" y="350" type="line"/>
      <point x="527" y="150" type="line"/>
      <point x="487" y="150" type="line"/>
    </contour>
    <contour>
      <point x="346" y="570" type="line"/>
      <point x="380" y="570" type="line"/>
      <point x="314" y="150" type="line"/>
      <point x="282" y="150" type="line"/>
    </contour>
    <contour>
      <point x="358" y="540" type="line"/>
      <point x="363" y="570" type="line"/>
      <point x="438" y="570" type="line"/>
      <point x="513" y="568"/>
      <point x="570" y="523"/>
      <point x="560" y="448" type="curve" smooth="yes"/>
      <point x="550" y="372"/>
      <point x="480" y="328"/>
      <point x="403" y="326" type="curve"/>
      <point x="326" y="326" type="line"/>
      <point x="330" y="355" type="line"/>
      <point x="406" y="355" type="line"/>
      <point x="466" y="357"/>
      <point x="519" y="388"/>
      <point x="527" y="448" type="curve" smooth="yes"/>
      <point x="535" y="506"/>
      <point x="494" y="538"/>
      <point x="436" y="540" type="curve"/>
    </contour>
    <contour>
      <point x="112" y="350" type="curve" smooth="yes"/>
      <point x="88" y="179"/>
      <point x="193" y="24"/>
      <point x="373" y="24" type="curve" smooth="yes"/>
      <point x="556" y="24"/>
      <point x="711" y="171"/>
      <point x="738" y="350" type="curve" smooth="yes"/>
      <point x="762" y="521"/>
      <point x="657" y="676"/>
      <point x="477" y="676" type="curve" smooth="yes"/>
      <point x="294" y="676"/>
      <point x="139" y="529"/>
    </contour>
    <contour>
      <point x="75" y="350" type="curve" smooth="yes"/>
      <point x="103" y="550"/>
      <point x="274" y="710"/>
      <point x="478" y="710" type="curve" smooth="yes"/>
      <point x="679" y="710"/>
      <point x="801" y="542"/>
      <point x="775" y="350" type="curve" smooth="yes"/>
      <point x="747" y="150"/>
      <point x="576" y="-10"/>
      <point x="372" y="-10" type="curve" smooth="yes"/>
      <point x="171" y="-10"/>
      <point x="49" y="158"/>
    </contour>
  </outline>
</glyph>
<glyph name="macron" format="2">
  <advance width="494"/>
  <unicode hex="00AF"/>
  <outline>
    <contour>
      <point x="157" y="626" type="line"/>
      <point x="164" y="675" type="line"/>
      <point x="505" y="675" type="line"/>
      <point x="498" y="626" type="line"/>
    </contour>
  </outline>
</glyph>
<glyph name="degree" format="2">
  <advance width="269"/>
  <unicode hex="00B0"/>
  <outline>
    <contour>
      <point x="94" y="600" type="curve" smooth="yes"/>
      <point x="104" y="666"/>
      <point x="163" y="720"/>
      <point x="230" y="720" type="curve" smooth="yes"/>
      <point x="297" y="720"/>
      <point x="335" y="664"/>
      <point x="326" y="600" type="curve" smooth="yes"/>
      <point x="316" y="534"/>
      <point x="258" y="480"/>
      <point x="191" y="480" type="curve" smooth="yes"/>
      <point x="124" y="480"/>
      <point x="85" y="536"/>
    </contour>
    <contour>
      <point x="122" y="600" type="curve" smooth="yes"/>
      <point x="114" y="552"/>
      <point x="142" y="508"/>
      <point x="192" y="508" type="curve" smooth="yes"/>
      <point x="243" y="508"/>
      <point x="290" y="550"/>
      <point x="298" y="600" type="curve" smooth="yes"/>
      <point x="306" y="648"/>
      <point x="278" y="692"/>
      <point x="228" y="692" type="curve" smooth="yes"/>
      <point x="177" y="692"/>
      <point x="130" y="650"/>
    </contour>
  </outline>
</glyph>
<glyph name="plusminus" format="2">
  <advance width="594"/>
  <unicode hex="00B1"/>
  <outline>
    <contour>
      <point x="46" y="0" type="line"/>
      <point x="54" y="52" type="line"/>
      <point x="524" y="52" type="line"/>
      <point x="516" y="0" type="line"/>
    </contour>
    <contour>
      <point x="102" y="359" type="line"/>
      <point x="110" y="411" type="line"/>
      <point x="579" y="411" type="line"/>
      <point x="571" y="359" type="line"/>
    </contour>
    <contour>
      <point x="348" y="620" type="line"/>
      <point x="404" y="620" type="line"/>
      <point x="330" y="150" type="line"/>
      <point x="276" y="150" type="line"/>
    </contour>
  </outline>
</glyph>
<glyph name="uni00B2" format="2">
  <advance width="329"/>
  <unicode hex="00B2"/>
  <outline>
    <contour>
      <point x="47" y="283" type="line"/>
      <point x="271" y="490" type="line" smooth="yes"/>
      <point x="301" y="518"/>
      <point x="331" y="549"/>
      <point x="338" y="589" type="curve" smooth="yes"/>
      <point x="345" y="630"/>
      <point x="323" y="676"/>
      <point x="268" y="678" type="curve" smooth="yes"/>
      <point x="204" y="680"/>
      <point x="162" y="621"/>
      <point x="148" y="559" type="curve"/>
      <point x="114" y="559" type="line"/>
      <point x="130" y="639"/>
      <point x="185" y="709"/>
      <point x="270" y="708" type="curve" smooth="yes"/>
      <point x="348" y="708"/>
      <point x="380" y="643"/>
      <point x="370" y="586" type="curve" smooth="yes"/>
      <point x="362" y="540"/>
      <point x="330" y="503"/>
      <point x="296" y="471" type="curve" smooth="yes"/>
      <point x="121" y="314" type="line"/>
      <point x="330" y="313" type="line"/>
      <point x="325" y="282" type="line"/>
    </contour>
  </outline>
</glyph>
<glyph name="uni00B3" format="2">
  <advance width="300"/>
  <unicode hex="00B3"/>
  <outline>
    <contour>
      <point x="193" y="492" type="curve"/>
      <point x="196" y="513" type="line"/>
      <point x="248" y="518"/>
      <point x="300" y="545"/>
      <point x="310" y="596" type="curve" smooth="yes"/>
      <point x="317" y="637"/>
      <point x="294" y="674"/>
      <point x="247" y="676" type="curve" smooth="yes"/>
      <point x="197" y="678"/>
      <point x="162" y="639"/>
      <point x="150" y="597" type="curve"/>
      <point x="118" y="598" type="line"/>
      <point x="133" y="658"/>
      <point x="180" y="707"/>
      <point x="249" y="706" type="curve" smooth="yes"/>
      <point x="315" y="705"/>
      <point x="352" y="652"/>
      <point x="342" y="596" type="curve" smooth="yes"/>
      <point x="330" y="530"/>
      <point x="263" y="496"/>
    </contour>
    <contour>
      <point x="176" y="274" type="curve" smooth="yes"/>
      <point x="98" y="274"/>
      <point x="62" y="326"/>
      <point x="66" y="391" type="curve"/>
      <point x="98" y="391" type="line"/>
      <point x="96" y="343"/>
      <point x="120" y="307"/>
      <point x="178" y="306" type="curve" smooth="yes"/>
      <point x="232" y="305"/>
      <point x="278" y="342"/>
      <point x="286" y="392" type="curve" smooth="yes"/>
      <point x="296" y="452"/>
      <point x="244" y="478"/>
      <point x="192" y="483" type="curve"/>
      <point x="195" y="504" type="line"/>
      <point x="265" y="500"/>
      <point x="330" y="467"/>
      <point x="318" y="388" type="curve" smooth="yes"/>
      <point x="308" y="321"/>
      <point x="247" y="274"/>
    </contour>
  </outline>
</glyph>
<glyph name="acute" format="2">
  <advance width="355"/>
  <unicode hex="00B4"/>
  <outline>
    <contour>
      <point x="360" y="672" type="line"/>
      <point x="164" y="521" type="line"/>
      <point x="138" y="542" type="line"/>
      <point x="316" y="700" type="line"/>
    </contour>
  </outline>
</glyph>
<glyph name="mu" format="2">
  <advance width="489"/>
  <unicode hex="00B5"/>
  <outline>
    <contour>
      <point x="180" y="460" type="line"/>
      <point x="126" y="158" type="line"/>
      <point x="118" y="92"/>
      <point x="140" y="40"/>
      <point x="210" y="40" type="curve" smooth="yes"/>
      <point x="289" y="40"/>
      <point x="352" y="100"/>
      <point x="364" y="174" type="curve" smooth="yes"/>
      <point x="414" y="460" type="line"/>
      <point x="466" y="460" type="line"/>
      <point x="386" y="0" type="line"/>
      <point x="334" y="0" type="line"/>
      <point x="349" y="84" type="line"/>
      <point x="317" y="29"/>
      <point x="261" y="-10"/>
      <point x="193" y="-10" type="curve" smooth="yes"/>
      <point x="148" y="-10"/>
      <point x="122" y="10"/>
      <point x="108" y="38" type="curve"/>
      <point x="45" y="-320" type="line"/>
      <point x="-5" y="-320" type="line"/>
      <point x="128" y="460" type="line"/>
    </contour>
  </outline>
</glyph>
<glyph name="paragraph" format="2">
  <advance width="510"/>
  <unicode hex="00B6"/>
  <outline>
    <contour>
      <point x="298" y="270" type="line"/>
      <point x="176" y="277"/>
      <point x="93" y="357"/>
      <point x="113" y="486" type="curve" smooth="yes"/>
      <point x="134" y="620"/>
      <point x="243" y="700"/>
      <point x="371" y="700" type="curve" smooth="yes"/>
      <point x="545" y="700" type="line"/>
      <point x="388" y="-220" type="line"/>
      <point x="342" y="-220" type="line"/>
      <point x="492" y="658" type="line"/>
      <point x="410" y="658" type="line"/>
      <point x="260" y="-220" type="line"/>
      <point x="214" y="-220" type="line"/>
    </contour>
  </outline>
</glyph>
<glyph name="periodcentered" format="2">
  <advance width="268"/>
  <unicode hex="00B7"/>
  <outline>
    <contour>
      <point x="110" y="233" type="curve" smooth="yes"/>
      <point x="112" y="251"/>
      <point x="134" y="271"/>
      <point x="152" y="270" type="curve" smooth="yes"/>
      <point x="171" y="269"/>
      <point x="186" y="252"/>
      <point x="184" y="232" type="curve" smooth="yes"/>
      <point x="182" y="214"/>
      <point x="159" y="195"/>
      <point x="141" y="196" type="curve" smooth="yes"/>
      <point x="122" y="197"/>
      <point x="108" y="213"/>
    </contour>
  </outline>
</glyph>
<glyph name="cedilla" format="2">
  <advance width="339"/>
  <unicode hex="00B8"/>
  <outline>
    <contour>
      <point x="161" y="36" type="line"/>
      <point x="202" y="36" type="line"/>
      <point x="126" y="-62" type="line"/>
      <point x="137" y="-57"/>
      <point x="145" y="-52"/>
      <point x="158" y="-52" type="curve" smooth="yes"/>
      <point x="194" y="-55"/>
      <point x="223" y="-83"/>
      <point x="219" y="-127" type="curve" smooth="yes"/>
      <point x="213" y="-184"/>
      <point x="154" y="-220"/>
      <point x="100" y="-220" type="curve" smooth="yes"/>
      <point x="65" y="-220"/>
      <point x="43" y="-206"/>
      <point x="18" y="-181" type="curve"/>
      <point x="44" y="-156" type="line"/>
      <point x="63" y="-172"/>
      <point x="77" y="-184"/>
      <point x="103" y="-184" type="curve" smooth="yes"/>
      <point x="139" y="-184"/>
      <point x="178" y="-160"/>
      <point x="182" y="-126" type="curve" smooth="yes"/>
      <point x="186" y="-98"/>
      <point x="165" y="-80"/>
      <point x="137" y="-79" type="curve" smooth="yes"/>
      <point x="116" y="-77"/>
      <point x="89" y="-87"/>
      <point x="67" y="-99" type="curve"/>
    </contour>
  </outline>
</glyph>
<glyph name="uni00B9" format="2">
  <advance width="456"/>
  <unicode hex="00B9"/>
  <outline>
    <contour>
      <point x="225" y="634" type="line"/>
      <point x="230" y="668" type="line"/>
      <point x="364" y="699" type="line"/>
      <point x="290" y="274" type="line"/>
      <point x="257" y="274" type="line"/>
      <point x="322" y="658" type="line"/>
    </contour>
  </outline>
</glyph>
<glyph name="ordmasculine" format="2">
  <advance width="269"/>
  <unicode hex="00BA"/>
  <outline>
    <contour>
      <point x="90" y="580" type="curve" smooth="yes"/>
      <point x="100" y="646"/>
      <point x="159" y="700"/>
      <point x="226" y="700" type="curve" smooth="yes"/>
      <point x="293" y="700"/>
      <point x="332" y="644"/>
      <point x="323" y="580" type="curve" smooth="yes"/>
      <point x="313" y="514"/>
      <point x="255" y="460"/>
      <point x="188" y="460" type="curve" smooth="yes"/>
      <point x="121" y="460"/>
      <point x="81" y="516"/>
    </contour>
    <contour>
      <point x="118" y="580" type="curve" smooth="yes"/>
      <point x="110" y="532"/>
      <point x="139" y="488"/>
      <point x="189" y="488" type="curve" smooth="yes"/>
      <point x="240" y="488"/>
      <point x="288" y="530"/>
      <point x="296" y="580" type="curve" smooth="yes"/>
      <point x="304" y="628"/>
      <point x="274" y="672"/>
      <point x="224" y="672" type="curve" smooth="yes"/>
      <point x="173" y="672"/>
      <point x="126" y="630"/>
    </contour>
  </outline>
</glyph>
<glyph name="guillemotright" format="2">
  <advance width="484"/>
  <unicode hex="00BB"/>
  <outline>
    <contour>
      <point x="251" y="253" type="line"/>
      <point x="119" y="460" type="line"/>
      <point x="155" y="490" type="line"/>
      <point x="308" y="253" type="line"/>
      <point x="77" y="20" type="line"/>
      <point x="48" y="51" type="line"/>
    </contour>
    <contour>
      <point x="406" y="253" type="line"/>
      <point x="274" y="460" type="line"/>
      <point x="310" y="490" type="line"/>
      <point x="463" y="253" type="line"/>
      <point x="232" y="20" type="line"/>
      <point x="204" y="51" type="line"/>
    </contour>
  </outline>
</glyph>
<glyph name="onequarter" format="2">
  <advance width="731"/>
  <unicode hex="00BC"/>
  <outline>
    <contour>
      <point x="712" y="699" type="line"/>
      <point x="756" y="698" type="line"/>
      <point x="112" y="0" type="line"/>
      <point x="68" y="0" type="line"/>
    </contour>
    <contour>
      <point x="106" y="634" type="line"/>
      <point x="112" y="668" type="line"/>
      <point x="245" y="699" type="line"/>
      <point x="172" y="274" type="line"/>
      <point x="138" y="274" type="line"/>
      <point x="204" y="658" type="line"/>
    </contour>
    <contour>
      <point x="374" y="84" type="line"/>
      <point x="405" y="112" type="line"/>
      <point x="596" y="113" type="line"/>
      <point x="603" y="113" type="line"/>
      <point x="681" y="113" type="line"/>
      <point x="676" y="84" type="line"/>
    </contour>
    <contour>
      <point x="410" y="85" type="line"/>
      <point x="374" y="86" type="line"/>
      <point x="656" y="419" type="line"/>
      <point x="670" y="420" type="line"/>
      <point x="598" y="0" type="line"/>
      <point x="565" y="0" type="line"/>
      <point x="582" y="98" type="line"/>
      <point x="582" y="102" type="line"/>
      <point x="624" y="340" type="line"/>
    </contour>
  </outline>
</glyph>
<glyph name="onehalf" format="2">
  <advance width="794"/>
  <unicode hex="00BD"/>
  <outline>
    <contour>
      <point x="712" y="699" type="line"/>
      <point x="756" y="698" type="line"/>
      <point x="112" y="0" type="line"/>
      <point x="68" y="0" type="line"/>
    </contour>
    <contour>
      <point x="106" y="634" type="line"/>
      <point x="112" y="668" type="line"/>
      <point x="245" y="699" type="line"/>
      <point x="172" y="274" type="line"/>
      <point x="138" y="274" type="line"/>
      <point x="204" y="658" type="line"/>
    </contour>
    <contour>
      <point x="452" y="3" type="line"/>
      <point x="676" y="209" type="line" smooth="yes"/>
      <point x="706" y="237"/>
      <point x="736" y="269"/>
      <point x="743" y="309" type="curve" smooth="yes"/>
      <point x="750" y="350"/>
      <point x="729" y="395"/>
      <point x="674" y="397" type="curve" smooth="yes"/>
      <point x="610" y="399"/>
      <point x="567" y="341"/>
      <point x="553" y="279" type="curve"/>
      <point x="520" y="279" type="line"/>
      <point x="536" y="359"/>
      <point x="591" y="429"/>
      <point x="676" y="428" type="curve" smooth="yes"/>
      <point x="754" y="427"/>
      <point x="786" y="363"/>
      <point x="776" y="306" type="curve" smooth="yes"/>
      <point x="768" y="260"/>
      <point x="736" y="223"/>
      <point x="702" y="191" type="curve" smooth="yes"/>
      <point x="527" y="34" type="line"/>
      <point x="736" y="33" type="line"/>
      <point x="732" y="2" type="line"/>
    </contour>
  </outline>
</glyph>
<glyph name="threequarters" format="2">
  <advance width="795"/>
  <unicode hex="00BE"/>
  <outline>
    <contour>
      <point x="776" y="699" type="line"/>
      <point x="820" y="698" type="line"/>
      <point x="176" y="0" type="line"/>
      <point x="132" y="0" type="line"/>
    </contour>
    <contour>
      <point x="198" y="492" type="curve"/>
      <point x="202" y="513" type="line"/>
      <point x="254" y="518"/>
      <point x="304" y="545"/>
      <point x="314" y="596" type="curve" smooth="yes"/>
      <point x="321" y="637"/>
      <point x="299" y="674"/>
      <point x="252" y="676" type="curve" smooth="yes"/>
      <point x="202" y="678"/>
      <point x="166" y="639"/>
      <point x="154" y="597" type="curve"/>
      <point x="122" y="598" type="line"/>
      <point x="137" y="658"/>
      <point x="185" y="707"/>
      <point x="254" y="706" type="curve" smooth="yes"/>
      <point x="320" y="705"/>
      <point x="357" y="652"/>
      <point x="347" y="596" type="curve" smooth="yes"/>
      <point x="335" y="530"/>
      <point x="268" y="496"/>
    </contour>
    <contour>
      <point x="180" y="274" type="curve" smooth="yes"/>
      <point x="102" y="274"/>
      <point x="66" y="326"/>
      <point x="70" y="391" type="curve"/>
      <point x="103" y="391" type="line"/>
      <point x="101" y="343"/>
      <point x="124" y="307"/>
      <point x="182" y="306" type="curve" smooth="yes"/>
      <point x="236" y="305"/>
      <point x="283" y="342"/>
      <point x="291" y="392" type="curve" smooth="yes"/>
      <point x="301" y="452"/>
      <point x="248" y="478"/>
      <point x="196" y="483" type="curve"/>
      <point x="200" y="504" type="line"/>
      <point x="270" y="500"/>
      <point x="336" y="467"/>
      <point x="324" y="388" type="curve" smooth="yes"/>
      <point x="314" y="321"/>
      <point x="251" y="274"/>
    </contour>
    <contour>
      <point x="440" y="84" type="line"/>
      <point x="470" y="112" type="line"/>
      <point x="661" y="113" type="line"/>
      <point x="668" y="113" type="line"/>
      <point x="746" y="113" type="line"/>
      <point x="742" y="84" type="line"/>
    </contour>
    <contour>
      <point x="474" y="85" type="line"/>
      <point x="439" y="86" type="line"/>
      <point x="721" y="419" type="line"/>
      <point x="734" y="420" type="line"/>
      <point x="663" y="0" type="line"/>
      <point x="630" y="0" type="line"/>
      <point x="647" y="98" type="line"/>
      <point x="648" y="102" type="line"/>
      <point x="688" y="340" type="line"/>
    </contour>
  </outline>
</glyph>
<glyph name="questiondown" format="2">
  <advance width="534"/>
  <unicode hex="00BF"/>
  <outline>
    <contour>
      <point x="123" y="192" type="curve" smooth="yes"/>
      <point x="107" y="106"/>
      <point x="159" y="40"/>
      <point x="253" y="40" type="curve" smooth="yes"/>
      <point x="329" y="40"/>
      <point x="384" y="82"/>
      <point x="428" y="134" type="curve"/>
      <point x="466" y="106" type="line"/>
      <point x="410" y="40"/>
      <point x="345" y="-11"/>
      <point x="243" y="-10" type="curve" smooth="yes"/>
      <point x="124" y="-9"/>
      <point x="54" y="83"/>
      <point x="71" y="192" type="curve" smooth="yes"/>
      <point x="91" y="304"/>
      <point x="200" y="380"/>
      <point x="316" y="391" type="curve"/>
      <point x="344" y="530" type="line"/>
      <point x="383" y="530" type="line"/>
      <point x="368" y="355" type="line"/>
      <point x="354" y="355" type="line"/>
      <point x="226" y="349"/>
      <point x="139" y="274"/>
    </contour>
    <contour>
      <point x="426" y="675" type="curve" smooth="yes"/>
      <point x="424" y="657"/>
      <point x="402" y="637"/>
      <point x="384" y="638" type="curve" smooth="yes"/>
      <point x="365" y="639"/>
      <point x="352" y="656"/>
      <point x="354" y="676" type="curve" smooth="yes"/>
      <point x="356" y="694"/>
      <point x="378" y="713"/>
      <point x="396" y="712" type="curve" smooth="yes"/>
      <point x="415" y="711"/>
      <point x="428" y="695"/>
    </contour>
  </outline>
</glyph>
<glyph name="Agrave" format="2">
  <advance width="616"/>
  <unicode hex="00C0"/>
  <outline>
    <contour>
      <point x="148" y="236" type="line"/>
      <point x="174" y="286" type="line"/>
      <point x="489" y="287" type="line"/>
      <point x="498" y="235" type="line"/>
    </contour>
    <contour>
      <point x="386" y="600" type="line"/>
      <point x="196" y="269" type="line"/>
      <point x="189" y="257" type="line"/>
      <point x="42" y="0" type="line"/>
      <point x="-20" y="0" type="line"/>
      <point x="406" y="728" type="line"/>
      <point x="581" y="0" type="line"/>
      <point x="521" y="0" type="line"/>
      <point x="464" y="253" type="line"/>
      <point x="462" y="266" type="line"/>
    </contour>
    <contour>
      <point x="313" y="940" type="line"/>
      <point x="364" y="967" type="line"/>
      <point x="492" y="806" type="line"/>
      <point x="461" y="787" type="line"/>
    </contour>
  </outline>
</glyph>
<glyph name="Aacute" format="2">
  <advance width="616"/>
  <unicode hex="00C1"/>
  <outline>
    <contour>
      <point x="148" y="236" type="line"/>
      <point x="174" y="286" type="line"/>
      <point x="489" y="287" type="line"/>
      <point x="498" y="235" type="line"/>
    </contour>
    <contour>
      <point x="386" y="600" type="line"/>
      <point x="196" y="269" type="line"/>
      <point x="189" y="257" type="line"/>
      <point x="42" y="0" type="line"/>
      <point x="-20" y="0" type="line"/>
      <point x="406" y="728" type="line"/>
      <point x="581" y="0" type="line"/>
      <point x="521" y="0" type="line"/>
      <point x="464" y="253" type="line"/>
      <point x="462" y="266" type="line"/>
    </contour>
    <contour>
      <point x="571" y="938" type="line"/>
      <point x="373" y="788" type="line"/>
      <point x="347" y="808" type="line"/>
      <point x="527" y="966" type="line"/>
    </contour>
  </outline>
</glyph>
<glyph name="Acircumflex" format="2">
  <advance width="616"/>
  <unicode hex="00C2"/>
  <outline>
    <contour>
      <point x="148" y="236" type="line"/>
      <point x="174" y="286" type="line"/>
      <point x="489" y="287" type="line"/>
      <point x="498" y="235" type="line"/>
    </contour>
    <contour>
      <point x="386" y="600" type="line"/>
      <point x="196" y="269" type="line"/>
      <point x="189" y="257" type="line"/>
      <point x="42" y="0" type="line"/>
      <point x="-20" y="0" type="line"/>
      <point x="406" y="728" type="line"/>
      <point x="581" y="0" type="line"/>
      <point x="521" y="0" type="line"/>
      <point x="464" y="253" type="line"/>
      <point x="462" y="266" type="line"/>
    </contour>
    <contour>
      <point x="432" y="874" type="line"/>
      <point x="290" y="764" type="line"/>
      <point x="260" y="791" type="line"/>
      <point x="439" y="930" type="line"/>
      <point x="572" y="790" type="line"/>
      <point x="536" y="764" type="line"/>
    </contour>
  </outline>
</glyph>
<glyph name="Atilde" format="2">
  <advance width="616"/>
  <unicode hex="00C3"/>
  <outline>
    <contour>
      <point x="148" y="236" type="line"/>
      <point x="174" y="286" type="line"/>
      <point x="489" y="287" type="line"/>
      <point x="498" y="235" type="line"/>
    </contour>
    <contour>
      <point x="386" y="600" type="line"/>
      <point x="196" y="269" type="line"/>
      <point x="189" y="257" type="line"/>
      <point x="42" y="0" type="line"/>
      <point x="-20" y="0" type="line"/>
      <point x="406" y="728" type="line"/>
      <point x="581" y="0" type="line"/>
      <point x="521" y="0" type="line"/>
      <point x="464" y="253" type="line"/>
      <point x="462" y="266" type="line"/>
    </contour>
    <contour>
      <point x="274" y="807" type="line"/>
      <point x="290" y="843"/>
      <point x="324" y="879"/>
      <point x="370" y="878" type="curve" smooth="yes"/>
      <point x="422" y="878"/>
      <point x="436" y="830"/>
      <point x="482" y="832" type="curve" smooth="yes"/>
      <point x="508" y="833"/>
      <point x="527" y="853"/>
      <point x="545" y="878" type="curve"/>
      <point x="572" y="851" type="line"/>
      <point x="551" y="819"/>
      <point x="517" y="787"/>
      <point x="475" y="788" type="curve" smooth="yes"/>
      <point x="427" y="789"/>
      <point x="408" y="835"/>
      <point x="366" y="834" type="curve" smooth="yes"/>
      <point x="330" y="833"/>
      <point x="314" y="804"/>
      <point x="306" y="784" type="curve"/>
    </contour>
  </outline>
</glyph>
<glyph name="Adieresis" format="2">
  <advance width="616"/>
  <unicode hex="00C4"/>
  <outline>
    <contour>
      <point x="148" y="236" type="line"/>
      <point x="174" y="286" type="line"/>
      <point x="489" y="287" type="line"/>
      <point x="498" y="235" type="line"/>
    </contour>
    <contour>
      <point x="386" y="600" type="line"/>
      <point x="196" y="269" type="line"/>
      <point x="189" y="257" type="line"/>
      <point x="42" y="0" type="line"/>
      <point x="-20" y="0" type="line"/>
      <point x="406" y="728" type="line"/>
      <point x="581" y="0" type="line"/>
      <point x="521" y="0" type="line"/>
      <point x="464" y="253" type="line"/>
      <point x="462" y="266" type="line"/>
    </contour>
    <contour>
      <point x="484" y="833" type="curve" smooth="yes"/>
      <point x="486" y="851"/>
      <point x="508" y="871"/>
      <point x="526" y="870" type="curve" smooth="yes"/>
      <point x="545" y="869"/>
      <point x="559" y="852"/>
      <point x="557" y="832" type="curve" smooth="yes"/>
      <point x="555" y="814"/>
      <point x="533" y="795"/>
      <point x="515" y="796" type="curve" smooth="yes"/>
      <point x="496" y="797"/>
      <point x="482" y="813"/>
    </contour>
    <contour>
      <point x="290" y="833" type="curve" smooth="yes"/>
      <point x="292" y="851"/>
      <point x="314" y="871"/>
      <point x="332" y="870" type="curve" smooth="yes"/>
      <point x="351" y="869"/>
      <point x="365" y="852"/>
      <point x="363" y="832" type="curve" smooth="yes"/>
      <point x="361" y="814"/>
      <point x="339" y="795"/>
      <point x="321" y="796" type="curve" smooth="yes"/>
      <point x="302" y="797"/>
      <point x="288" y="813"/>
    </contour>
  </outline>
</glyph>
<glyph name="Aring" format="2">
  <advance width="616"/>
  <unicode hex="00C5"/>
  <outline>
    <contour>
      <point x="148" y="236" type="line"/>
      <point x="174" y="286" type="line"/>
      <point x="489" y="287" type="line"/>
      <point x="498" y="235" type="line"/>
    </contour>
    <contour>
      <point x="386" y="600" type="line"/>
      <point x="196" y="269" type="line"/>
      <point x="189" y="257" type="line"/>
      <point x="42" y="0" type="line"/>
      <point x="-20" y="0" type="line"/>
      <point x="406" y="728" type="line"/>
      <point x="581" y="0" type="line"/>
      <point x="521" y="0" type="line"/>
      <point x="464" y="253" type="line"/>
      <point x="462" y="266" type="line"/>
    </contour>
    <contour>
      <point x="318" y="803" type="curve" smooth="yes"/>
      <point x="326" y="858"/>
      <point x="381" y="902"/>
      <point x="434" y="902" type="curve" smooth="yes"/>
      <point x="487" y="902"/>
      <point x="526" y="855"/>
      <point x="518" y="801" type="curve" smooth="yes"/>
      <point x="510" y="746"/>
      <point x="455" y="702"/>
      <point x="402" y="702" type="curve" smooth="yes"/>
      <point x="349" y="702"/>
      <point x="310" y="749"/>
    </contour>
    <contour>
      <point x="353" y="802" type="curve" smooth="yes"/>
      <point x="349" y="767"/>
      <point x="372" y="736"/>
      <point x="406" y="734" type="curve" smooth="yes"/>
      <point x="440" y="732"/>
      <point x="479" y="766"/>
      <point x="484" y="802" type="curve" smooth="yes"/>
      <point x="488" y="837"/>
      <point x="465" y="868"/>
      <point x="431" y="870" type="curve" smooth="yes"/>
      <point x="397" y="872"/>
      <point x="358" y="838"/>
    </contour>
  </outline>
</glyph>
<glyph name="AE" format="2">
  <advance width="906"/>
  <unicode hex="00C6"/>
  <outline>
    <contour>
      <point x="220" y="238" type="line"/>
      <point x="229" y="290" type="line"/>
      <point x="518" y="290" type="line"/>
      <point x="508" y="238" type="line"/>
    </contour>
    <contour>
      <point x="535" y="700" type="line"/>
      <point x="576" y="674" type="line"/>
      <point x="39" y="0" type="line"/>
      <point x="-22" y="0" type="line"/>
    </contour>
    <contour>
      <point x="478" y="0" type="line"/>
      <point x="488" y="52" type="line"/>
      <point x="818" y="52" type="line"/>
      <point x="808" y="0" type="line"/>
    </contour>
    <contour>
      <point x="597" y="648" type="line"/>
      <point x="535" y="700" type="line"/>
      <point x="928" y="700" type="line"/>
      <point x="919" y="648" type="line"/>
    </contour>
    <contour>
      <point x="540" y="358" type="line"/>
      <point x="548" y="410" type="line"/>
      <point x="859" y="410" type="line"/>
      <point x="850" y="358" type="line"/>
    </contour>
    <contour>
      <point x="568" y="700" type="line"/>
      <point x="623" y="700" type="line"/>
      <point x="502" y="0" type="line"/>
      <point x="448" y="0" type="line"/>
    </contour>
  </outline>
</glyph>
<glyph name="Ccedilla" format="2">
  <advance width="664"/>
  <unicode hex="00C7"/>
  <outline>
    <contour>
      <point x="133" y="350" type="curve" smooth="yes"/>
      <point x="109" y="194"/>
      <point x="192" y="50"/>
      <point x="354" y="48" type="curve" smooth="yes"/>
      <point x="450" y="47"/>
      <point x="527" y="86"/>
      <point x="590" y="142" type="curve"/>
      <point x="578" y="68" type="line"/>
      <point x="512" y="19"/>
      <point x="442" y="-9"/>
      <point x="348" y="-9" type="curve" smooth="yes"/>
      <point x="152" y="-8"/>
      <point x="46" y="163"/>
      <point x="74" y="350" type="curve" smooth="yes"/>
      <point x="104" y="547"/>
      <point x="268" y="708"/>
      <point x="466" y="709" type="curve" smooth="yes"/>
      <point x="555" y="709"/>
      <point x="618" y="684"/>
      <point x="674" y="631" type="curve"/>
      <point x="662" y="558" type="line"/>
      <point x="616" y="620"/>
      <point x="547" y="653"/>
      <point x="461" y="653" type="curve" smooth="yes"/>
      <point x="297" y="653"/>
      <point x="160" y="516"/>
    </contour>
    <contour>
      <point x="344" y="34" type="line"/>
      <point x="386" y="34" type="line"/>
      <point x="309" y="-62" type="line"/>
      <point x="320" y="-57"/>
      <point x="329" y="-53"/>
      <point x="342" y="-53" type="curve" smooth="yes"/>
      <point x="378" y="-56"/>
      <point x="407" y="-85"/>
      <point x="402" y="-128" type="curve" smooth="yes"/>
      <point x="395" y="-184"/>
      <point x="338" y="-220"/>
      <point x="284" y="-220" type="curve" smooth="yes"/>
      <point x="249" y="-220"/>
      <point x="227" y="-207"/>
      <point x="202" y="-182" type="curve"/>
      <point x="227" y="-157" type="line"/>
      <point x="246" y="-173"/>
      <point x="261" y="-184"/>
      <point x="287" y="-184" type="curve" smooth="yes"/>
      <point x="323" y="-184"/>
      <point x="360" y="-160"/>
      <point x="364" y="-126" type="curve" smooth="yes"/>
      <point x="368" y="-98"/>
      <point x="348" y="-81"/>
      <point x="320" y="-80" type="curve" smooth="yes"/>
      <point x="299" y="-78"/>
      <point x="272" y="-88"/>
      <point x="250" y="-100" type="curve"/>
    </contour>
  </outline>
</glyph>
<glyph name="Eacute" format="2">
  <advance width="517"/>
  <unicode hex="00C9"/>
  <outline>
    <contour>
      <point x="82" y="0" type="line"/>
      <point x="91" y="52" type="line"/>
      <point x="429" y="52" type="line"/>
      <point x="420" y="0" type="line"/>
    </contour>
    <contour>
      <point x="194" y="648" type="line"/>
      <point x="202" y="700" type="line"/>
      <point x="540" y="700" type="line"/>
      <point x="531" y="648" type="line"/>
    </contour>
    <contour>
      <point x="144" y="358" type="line"/>
      <point x="152" y="410" type="line"/>
      <point x="470" y="410" type="line"/>
      <point x="462" y="358" type="line"/>
    </contour>
    <contour>
      <point x="173" y="700" type="line"/>
      <point x="228" y="700" type="line"/>
      <point x="108" y="0" type="line"/>
      <point x="54" y="0" type="line"/>
    </contour>
    <contour>
      <point x="531" y="920" type="line"/>
      <point x="333" y="770" type="line"/>
      <point x="306" y="790" type="line"/>
      <point x="488" y="948" type="line"/>
    </contour>
  </outline>
</glyph>
<glyph name="Ecircumflex" format="2">
  <advance width="517"/>
  <unicode hex="00CA"/>
  <outline>
    <contour>
      <point x="82" y="0" type="line"/>
      <point x="91" y="52" type="line"/>
      <point x="429" y="52" type="line"/>
      <point x="420" y="0" type="line"/>
    </contour>
    <contour>
      <point x="194" y="648" type="line"/>
      <point x="202" y="700" type="line"/>
      <point x="540" y="700" type="line"/>
      <point x="531" y="648" type="line"/>
    </contour>
    <contour>
      <point x="144" y="358" type="line"/>
      <point x="152" y="410" type="line"/>
      <point x="470" y="410" type="line"/>
      <point x="462" y="358" type="line"/>
    </contour>
    <contour>
      <point x="173" y="700" type="line"/>
      <point x="228" y="700" type="line"/>
      <point x="108" y="0" type="line"/>
      <point x="54" y="0" type="line"/>
    </contour>
    <contour>
      <point x="394" y="880" type="line"/>
      <point x="252" y="770" type="line"/>
      <point x="222" y="798" type="line"/>
      <point x="401" y="936" type="line"/>
      <point x="534" y="796" type="line"/>
      <point x="499" y="770" type="line"/>
    </contour>
  </outline>
</glyph>
<glyph name="Edieresis" format="2">
  <advance width="517"/>
  <unicode hex="00CB"/>
  <outline>
    <contour>
      <point x="82" y="0" type="line"/>
      <point x="91" y="52" type="line"/>
      <point x="429" y="52" type="line"/>
      <point x="420" y="0" type="line"/>
    </contour>
    <contour>
      <point x="194" y="648" type="line"/>
      <point x="202" y="700" type="line"/>
      <point x="540" y="700" type="line"/>
      <point x="531" y="648" type="line"/>
    </contour>
    <contour>
      <point x="144" y="358" type="line"/>
      <point x="152" y="410" type="line"/>
      <point x="470" y="410" type="line"/>
      <point x="462" y="358" type="line"/>
    </contour>
    <contour>
      <point x="173" y="700" type="line"/>
      <point x="228" y="700" type="line"/>
      <point x="108" y="0" type="line"/>
      <point x="54" y="0" type="line"/>
    </contour>
    <contour>
      <point x="444" y="828" type="curve" smooth="yes"/>
      <point x="446" y="846"/>
      <point x="468" y="865"/>
      <point x="486" y="864" type="curve" smooth="yes"/>
      <point x="505" y="863"/>
      <point x="520" y="846"/>
      <point x="518" y="826" type="curve" smooth="yes"/>
      <point x="516" y="808"/>
      <point x="494" y="789"/>
      <point x="476" y="790" type="curve" smooth="yes"/>
      <point x="457" y="791"/>
      <point x="442" y="808"/>
    </contour>
    <contour>
      <point x="250" y="828" type="curve" smooth="yes"/>
      <point x="252" y="846"/>
      <point x="274" y="865"/>
      <point x="292" y="864" type="curve" smooth="yes"/>
      <point x="311" y="863"/>
      <point x="326" y="846"/>
      <point x="324" y="826" type="curve" smooth="yes"/>
      <point x="322" y="808"/>
      <point x="300" y="789"/>
      <point x="282" y="790" type="curve" smooth="yes"/>
      <point x="263" y="791"/>
      <point x="248" y="808"/>
    </contour>
  </outline>
</glyph>
<glyph name="Igrave" format="2">
  <advance width="212"/>
  <unicode hex="00CC"/>
  <outline>
    <contour>
      <point x="172" y="700" type="line"/>
      <point x="226" y="700" type="line"/>
      <point x="106" y="0" type="line"/>
      <point x="52" y="0" type="line"/>
    </contour>
    <contour>
      <point x="100" y="922" type="line"/>
      <point x="151" y="949" type="line"/>
      <point x="278" y="788" type="line"/>
      <point x="248" y="770" type="line"/>
    </contour>
  </outline>
</glyph>
<glyph name="Iacute" format="2">
  <advance width="212"/>
  <unicode hex="00CD"/>
  <outline>
    <contour>
      <point x="172" y="700" type="line"/>
      <point x="226" y="700" type="line"/>
      <point x="106" y="0" type="line"/>
      <point x="52" y="0" type="line"/>
    </contour>
    <contour>
      <point x="373" y="920" type="line"/>
      <point x="175" y="770" type="line"/>
      <point x="150" y="790" type="line"/>
      <point x="330" y="948" type="line"/>
    </contour>
  </outline>
</glyph>
<glyph name="Icircumflex" format="2">
  <advance width="212"/>
  <unicode hex="00CE"/>
  <outline>
    <contour>
      <point x="172" y="700" type="line"/>
      <point x="226" y="700" type="line"/>
      <point x="106" y="0" type="line"/>
      <point x="52" y="0" type="line"/>
    </contour>
    <contour>
      <point x="231" y="880" type="line"/>
      <point x="88" y="770" type="line"/>
      <point x="58" y="798" type="line"/>
      <point x="237" y="936" type="line"/>
      <point x="370" y="796" type="line"/>
      <point x="335" y="770" type="line"/>
    </contour>
  </outline>
</glyph>
<glyph name="Idieresis" format="2">
  <advance width="212"/>
  <unicode hex="00CF"/>
  <outline>
    <contour>
      <point x="172" y="700" type="line"/>
      <point x="226" y="700" type="line"/>
      <point x="106" y="0" type="line"/>
      <point x="52" y="0" type="line"/>
    </contour>
    <contour>
      <point x="267" y="816" type="curve" smooth="yes"/>
      <point x="269" y="834"/>
      <point x="291" y="853"/>
      <point x="309" y="852" type="curve" smooth="yes"/>
      <point x="328" y="851"/>
      <point x="342" y="834"/>
      <point x="340" y="814" type="curve" smooth="yes"/>
      <point x="338" y="796"/>
      <point x="316" y="777"/>
      <point x="298" y="778" type="curve" smooth="yes"/>
      <point x="278" y="779"/>
      <point x="265" y="797"/>
    </contour>
    <contour>
      <point x="96" y="816" type="curve" smooth="yes"/>
      <point x="98" y="834"/>
      <point x="120" y="853"/>
      <point x="138" y="852" type="curve" smooth="yes"/>
      <point x="157" y="851"/>
      <point x="172" y="834"/>
      <point x="170" y="814" type="curve" smooth="yes"/>
      <point x="168" y="796"/>
      <point x="145" y="777"/>
      <point x="127" y="778" type="curve" smooth="yes"/>
      <point x="107" y="779"/>
      <point x="94" y="797"/>
    </contour>
  </outline>
</glyph>
<glyph name="Eth" format="2">
  <advance width="659"/>
  <unicode hex="00D0"/>
  <outline>
    <contour>
      <point x="33" y="324" type="line"/>
      <point x="42" y="373" type="line"/>
      <point x="334" y="373" type="line"/>
      <point x="326" y="324" type="line"/>
    </contour>
    <contour>
      <point x="173" y="700" type="line"/>
      <point x="228" y="700" type="line"/>
      <point x="108" y="0" type="line"/>
      <point x="54" y="0" type="line"/>
    </contour>
    <contour>
      <point x="241" y="0" type="curve"/>
      <point x="83" y="0" type="line"/>
      <point x="92" y="55" type="line"/>
      <point x="246" y="55" type="line"/>
      <point x="420" y="58"/>
      <point x="550" y="180"/>
      <point x="578" y="350" type="curve" smooth="yes"/>
      <point x="604" y="511"/>
      <point x="520" y="641"/>
      <point x="350" y="645" type="curve"/>
      <point x="193" y="645" type="line"/>
      <point x="202" y="700" type="line"/>
      <point x="356" y="700" type="line"/>
      <point x="556" y="696"/>
      <point x="661" y="540"/>
      <point x="633" y="350" type="curve" smooth="yes"/>
      <point x="602" y="151"/>
      <point x="445" y="3"/>
    </contour>
  </outline>
</glyph>
<glyph name="Ntilde" format="2">
  <advance width="709"/>
  <unicode hex="00D1"/>
  <outline>
    <contour>
      <point x="674" y="700" type="line"/>
      <point x="729" y="700" type="line"/>
      <point x="604" y="-26" type="line"/>
      <point x="194" y="584" type="line"/>
      <point x="92" y="0" type="line"/>
      <point x="38" y="0" type="line"/>
      <point x="162" y="726" type="line"/>
      <point x="574" y="114" type="line"/>
    </contour>
    <contour>
      <point x="310" y="779" type="line"/>
      <point x="326" y="815"/>
      <point x="360" y="851"/>
      <point x="406" y="850" type="curve" smooth="yes"/>
      <point x="456" y="850"/>
      <point x="472" y="802"/>
      <point x="518" y="804" type="curve" smooth="yes"/>
      <point x="544" y="805"/>
      <point x="563" y="825"/>
      <point x="581" y="850" type="curve"/>
      <point x="608" y="823" type="line"/>
      <point x="587" y="791"/>
      <point x="553" y="759"/>
      <point x="511" y="760" type="curve" smooth="yes"/>
      <point x="465" y="761"/>
      <point x="444" y="806"/>
      <point x="402" y="806" type="curve" smooth="yes"/>
      <point x="366" y="806"/>
      <point x="350" y="776"/>
      <point x="342" y="756" type="curve"/>
    </contour>
  </outline>
</glyph>
<glyph name="Oacute" format="2">
  <advance width="760"/>
  <unicode hex="00D3"/>
  <outline>
    <contour>
      <point x="132" y="350" type="curve" smooth="yes"/>
      <point x="108" y="194"/>
      <point x="191" y="47"/>
      <point x="359" y="46" type="curve" smooth="yes"/>
      <point x="529" y="45"/>
      <point x="666" y="186"/>
      <point x="693" y="350" type="curve" smooth="yes"/>
      <point x="717" y="506"/>
      <point x="635" y="653"/>
      <point x="467" y="654" type="curve" smooth="yes"/>
      <point x="297" y="655"/>
      <point x="159" y="514"/>
    </contour>
    <contour>
      <point x="74" y="350" type="curve" smooth="yes"/>
      <point x="104" y="546"/>
      <point x="270" y="709"/>
      <point x="472" y="709" type="curve" smooth="yes"/>
      <point x="672" y="709"/>
      <point x="780" y="536"/>
      <point x="752" y="350" type="curve" smooth="yes"/>
      <point x="722" y="154"/>
      <point x="556" y="-9"/>
      <point x="354" y="-9" type="curve" smooth="yes"/>
      <point x="154" y="-9"/>
      <point x="46" y="164"/>
    </contour>
    <contour>
      <point x="634" y="920" type="line"/>
      <point x="436" y="770" type="line"/>
      <point x="410" y="790" type="line"/>
      <point x="590" y="948" type="line"/>
    </contour>
  </outline>
</glyph>
<glyph name="Ocircumflex" format="2">
  <advance width="760"/>
  <unicode hex="00D4"/>
  <outline>
    <contour>
      <point x="132" y="350" type="curve" smooth="yes"/>
      <point x="108" y="194"/>
      <point x="191" y="47"/>
      <point x="359" y="46" type="curve" smooth="yes"/>
      <point x="529" y="45"/>
      <point x="666" y="186"/>
      <point x="693" y="350" type="curve" smooth="yes"/>
      <point x="717" y="506"/>
      <point x="635" y="653"/>
      <point x="467" y="654" type="curve" smooth="yes"/>
      <point x="297" y="655"/>
      <point x="159" y="514"/>
    </contour>
    <contour>
      <point x="74" y="350" type="curve" smooth="yes"/>
      <point x="104" y="546"/>
      <point x="270" y="709"/>
      <point x="472" y="709" type="curve" smooth="yes"/>
      <point x="672" y="709"/>
      <point x="780" y="536"/>
      <point x="752" y="350" type="curve" smooth="yes"/>
      <point x="722" y="154"/>
      <point x="556" y="-9"/>
      <point x="354" y="-9" type="curve" smooth="yes"/>
      <point x="154" y="-9"/>
      <point x="46" y="164"/>
    </contour>
    <contour>
      <point x="505" y="880" type="line"/>
      <point x="362" y="770" type="line"/>
      <point x="333" y="798" type="line"/>
      <point x="512" y="936" type="line"/>
      <point x="645" y="796" type="line"/>
      <point x="610" y="770" type="line"/>
    </contour>
  </outline>
</glyph>
<glyph name="Odieresis" format="2">
  <advance width="760"/>
  <unicode hex="00D6"/>
  <outline>
    <contour>
      <point x="132" y="350" type="curve" smooth="yes"/>
      <point x="108" y="194"/>
      <point x="191" y="47"/>
      <point x="359" y="46" type="curve" smooth="yes"/>
      <point x="529" y="45"/>
      <point x="666" y="186"/>
      <point x="693" y="350" type="curve" smooth="yes"/>
      <point x="717" y="506"/>
      <point x="635" y="653"/>
      <point x="467" y="654" type="curve" smooth="yes"/>
      <point x="297" y="655"/>
      <point x="159" y="514"/>
    </contour>
    <contour>
      <point x="74" y="350" type="curve" smooth="yes"/>
      <point x="104" y="546"/>
      <point x="270" y="709"/>
      <point x="472" y="709" type="curve" smooth="yes"/>
      <point x="672" y="709"/>
      <point x="780" y="536"/>
      <point x="752" y="350" type="curve" smooth="yes"/>
      <point x="722" y="154"/>
      <point x="556" y="-9"/>
      <point x="354" y="-9" type="curve" smooth="yes"/>
      <point x="154" y="-9"/>
      <point x="46" y="164"/>
    </contour>
    <contour>
      <point x="557" y="820" type="curve" smooth="yes"/>
      <point x="559" y="838"/>
      <point x="582" y="857"/>
      <point x="600" y="856" type="curve" smooth="yes"/>
      <point x="619" y="855"/>
      <point x="632" y="838"/>
      <point x="630" y="818" type="curve" smooth="yes"/>
      <point x="628" y="800"/>
      <point x="606" y="781"/>
      <point x="588" y="782" type="curve" smooth="yes"/>
      <point x="569" y="783"/>
      <point x="555" y="800"/>
    </contour>
    <contour>
      <point x="355" y="820" type="curve" smooth="yes"/>
      <point x="357" y="838"/>
      <point x="380" y="857"/>
      <point x="398" y="856" type="curve" smooth="yes"/>
      <point x="417" y="855"/>
      <point x="430" y="838"/>
      <point x="428" y="818" type="curve" smooth="yes"/>
      <point x="426" y="800"/>
      <point x="404" y="781"/>
      <point x="386" y="782" type="curve" smooth="yes"/>
      <point x="367" y="783"/>
      <point x="353" y="800"/>
    </contour>
  </outline>
</glyph>
<glyph name="multiply" format="2">
  <advance width="570"/>
  <unicode hex="00D7"/>
  <outline>
    <contour>
      <point x="84" y="32" type="line"/>
      <point x="53" y="70" type="line"/>
      <point x="270" y="256" type="line"/>
      <point x="117" y="444" type="line"/>
      <point x="157" y="478" type="line"/>
      <point x="306" y="288" type="line"/>
      <point x="520" y="478" type="line"/>
      <point x="551" y="440" type="line"/>
      <point x="334" y="254" type="line"/>
      <point x="486" y="66" type="line"/>
      <point x="446" y="32" type="line"/>
      <point x="298" y="221" type="line"/>
    </contour>
  </outline>
</glyph>
<glyph name="Oslash" format="2">
  <advance width="766"/>
  <unicode hex="00D8"/>
  <outline>
    <contour>
      <point x="132" y="350" type="curve" smooth="yes"/>
      <point x="108" y="194"/>
      <point x="191" y="47"/>
      <point x="359" y="46" type="curve" smooth="yes"/>
      <point x="529" y="45"/>
      <point x="666" y="186"/>
      <point x="693" y="350" type="curve" smooth="yes"/>
      <point x="717" y="506"/>
      <point x="635" y="653"/>
      <point x="467" y="654" type="curve" smooth="yes"/>
      <point x="297" y="655"/>
      <point x="159" y="514"/>
    </contour>
    <contour>
      <point x="74" y="350" type="curve" smooth="yes"/>
      <point x="104" y="546"/>
      <point x="270" y="709"/>
      <point x="472" y="709" type="curve" smooth="yes"/>
      <point x="672" y="709"/>
      <point x="780" y="536"/>
      <point x="752" y="350" type="curve" smooth="yes"/>
      <point x="722" y="154"/>
      <point x="556" y="-9"/>
      <point x="354" y="-9" type="curve" smooth="yes"/>
      <point x="154" y="-9"/>
      <point x="46" y="164"/>
    </contour>
    <contour>
      <point x="776" y="742" type="line"/>
      <point x="812" y="716" type="line"/>
      <point x="52" y="-42" type="line"/>
      <point x="18" y="-16" type="line"/>
    </contour>
  </outline>
</glyph>
<glyph name="Ugrave" format="2">
  <advance width="587"/>
  <unicode hex="00D9"/>
  <outline>
    <contour>
      <point x="169" y="700" type="line"/>
      <point x="224" y="700" type="line"/>
      <point x="142" y="226" type="line" smooth="yes"/>
      <point x="129" y="128"/>
      <point x="164" y="43"/>
      <point x="272" y="42" type="curve" smooth="yes"/>
      <point x="380" y="41"/>
      <point x="450" y="124"/>
      <point x="468" y="226" type="curve"/>
      <point x="550" y="700" type="line"/>
      <point x="605" y="700" type="line"/>
      <point x="524" y="226" type="line" smooth="yes"/>
      <point x="502" y="96"/>
      <point x="408" y="-10"/>
      <point x="268" y="-10" type="curve" smooth="yes"/>
      <point x="130" y="-10"/>
      <point x="71" y="100"/>
      <point x="88" y="226" type="curve"/>
    </contour>
    <contour>
      <point x="296" y="922" type="line"/>
      <point x="346" y="949" type="line"/>
      <point x="474" y="788" type="line"/>
      <point x="444" y="770" type="line"/>
    </contour>
  </outline>
</glyph>
<glyph name="Ucircumflex" format="2">
  <advance width="587"/>
  <unicode hex="00DB"/>
  <outline>
    <contour>
      <point x="169" y="700" type="line"/>
      <point x="224" y="700" type="line"/>
      <point x="142" y="226" type="line" smooth="yes"/>
      <point x="129" y="128"/>
      <point x="164" y="43"/>
      <point x="272" y="42" type="curve" smooth="yes"/>
      <point x="380" y="41"/>
      <point x="450" y="124"/>
      <point x="468" y="226" type="curve"/>
      <point x="550" y="700" type="line"/>
      <point x="605" y="700" type="line"/>
      <point x="524" y="226" type="line" smooth="yes"/>
      <point x="502" y="96"/>
      <point x="408" y="-10"/>
      <point x="268" y="-10" type="curve" smooth="yes"/>
      <point x="130" y="-10"/>
      <point x="71" y="100"/>
      <point x="88" y="226" type="curve"/>
    </contour>
    <contour>
      <point x="419" y="880" type="line"/>
      <point x="276" y="770" type="line"/>
      <point x="247" y="798" type="line"/>
      <point x="426" y="936" type="line"/>
      <point x="559" y="796" type="line"/>
      <point x="523" y="770" type="line"/>
    </contour>
  </outline>
</glyph>
<glyph name="Udieresis" format="2">
  <advance width="587"/>
  <unicode hex="00DC"/>
  <outline>
    <contour>
      <point x="169" y="700" type="line"/>
      <point x="224" y="700" type="line"/>
      <point x="142" y="226" type="line" smooth="yes"/>
      <point x="129" y="128"/>
      <point x="164" y="43"/>
      <point x="272" y="42" type="curve" smooth="yes"/>
      <point x="380" y="41"/>
      <point x="450" y="124"/>
      <point x="468" y="226" type="curve"/>
      <point x="550" y="700" type="line"/>
      <point x="605" y="700" type="line"/>
      <point x="524" y="226" type="line" smooth="yes"/>
      <point x="502" y="96"/>
      <point x="408" y="-10"/>
      <point x="268" y="-10" type="curve" smooth="yes"/>
      <point x="130" y="-10"/>
      <point x="71" y="100"/>
      <point x="88" y="226" type="curve"/>
    </contour>
    <contour>
      <point x="462" y="808" type="curve" smooth="yes"/>
      <point x="464" y="826"/>
      <point x="486" y="845"/>
      <point x="504" y="844" type="curve" smooth="yes"/>
      <point x="523" y="843"/>
      <point x="536" y="826"/>
      <point x="534" y="806" type="curve" smooth="yes"/>
      <point x="532" y="788"/>
      <point x="510" y="769"/>
      <point x="492" y="770" type="curve" smooth="yes"/>
      <point x="473" y="771"/>
      <point x="460" y="788"/>
    </contour>
    <contour>
      <point x="275" y="808" type="curve" smooth="yes"/>
      <point x="277" y="826"/>
      <point x="299" y="845"/>
      <point x="317" y="844" type="curve" smooth="yes"/>
      <point x="336" y="843"/>
      <point x="350" y="826"/>
      <point x="348" y="806" type="curve" smooth="yes"/>
      <point x="346" y="788"/>
      <point x="324" y="769"/>
      <point x="306" y="770" type="curve" smooth="yes"/>
      <point x="287" y="771"/>
      <point x="273" y="788"/>
    </contour>
  </outline>
</glyph>
<glyph name="Yacute" format="2">
  <advance width="523"/>
  <unicode hex="00DD"/>
  <outline>
    <contour>
      <point x="528" y="920" type="line"/>
      <point x="330" y="770" type="line"/>
      <point x="305" y="790" type="line"/>
      <point x="485" y="948" type="line"/>
    </contour>
    <contour>
      <point x="546" y="700" type="line"/>
      <point x="608" y="700" type="line"/>
      <point x="308" y="286" type="line"/>
      <point x="260" y="0" type="line"/>
      <point x="204" y="0" type="line"/>
      <point x="256" y="289" type="line"/>
      <point x="102" y="700" type="line"/>
      <point x="161" y="700" type="line"/>
      <point x="289" y="339" type="line"/>
    </contour>
  </outline>
</glyph>
<glyph name="Thorn" format="2">
  <advance width="521"/>
  <unicode hex="00DE"/>
  <outline>
    <contour>
      <point x="170" y="700" type="line"/>
      <point x="224" y="700" type="line"/>
      <point x="104" y="0" type="line"/>
      <point x="50" y="0" type="line"/>
    </contour>
    <contour>
      <point x="165" y="508" type="line"/>
      <point x="174" y="560" type="line"/>
      <point x="317" y="560" type="line"/>
      <point x="444" y="558"/>
      <point x="534" y="474"/>
      <point x="514" y="350" type="curve" smooth="yes"/>
      <point x="494" y="223"/>
      <point x="380" y="142"/>
      <point x="249" y="140" type="curve"/>
      <point x="102" y="140" type="line"/>
      <point x="112" y="192" type="line"/>
      <point x="254" y="192" type="line"/>
      <point x="355" y="194"/>
      <point x="443" y="254"/>
      <point x="460" y="350" type="curve" smooth="yes"/>
      <point x="476" y="446"/>
      <point x="410" y="506"/>
      <point x="312" y="508" type="curve"/>
    </contour>
  </outline>
</glyph>
<glyph name="germandbls" format="2">
  <advance width="551"/>
  <unicode hex="00DF"/>
  <outline>
    <contour>
      <point x="319" y="-11" type="curve" smooth="yes"/>
      <point x="259" y="-11"/>
      <point x="205" y="14"/>
      <point x="171" y="52" type="curve"/>
      <point x="203" y="90" type="line"/>
      <point x="234" y="59"/>
      <point x="278" y="38"/>
      <point x="323" y="38" type="curve" smooth="yes"/>
      <point x="403" y="38"/>
      <point x="464" y="111"/>
      <point x="464" y="195" type="curve" smooth="yes"/>
      <point x="464" y="328"/>
      <point x="311" y="310"/>
      <point x="311" y="414" type="curve" smooth="yes"/>
      <point x="311" y="504"/>
      <point x="474" y="527"/>
      <point x="474" y="648" type="curve" smooth="yes"/>
      <point x="474" y="712"/>
      <point x="425" y="746"/>
      <point x="362" y="746" type="curve" smooth="yes"/>
      <point x="278" y="746"/>
      <point x="216" y="683"/>
      <point x="200" y="585" type="curve" smooth="yes"/>
      <point x="101" y="-1" type="line"/>
      <point x="48" y="-1" type="line"/>
      <point x="148" y="596" type="line" smooth="yes"/>
      <point x="165" y="705"/>
      <point x="248" y="794"/>
      <point x="370" y="794" type="curve" smooth="yes"/>
      <point x="461" y="794"/>
      <point x="528" y="741"/>
      <point x="528" y="652" type="curve" smooth="yes"/>
      <point x="528" y="500"/>
      <point x="368" y="489"/>
      <point x="368" y="413" type="curve" smooth="yes"/>
      <point x="368" y="341"/>
      <point x="518" y="356"/>
      <point x="518" y="202" type="curve" smooth="yes"/>
      <point x="518" y="84"/>
      <point x="431" y="-11"/>
    </contour>
  </outline>
</glyph>
<glyph name="atilde" format="2">
  <advance width="541"/>
  <unicode hex="00E3"/>
  <outline>
    <contour>
      <point x="473" y="460" type="line"/>
      <point x="522" y="460" type="line"/>
      <point x="442" y="0" type="line"/>
      <point x="395" y="0" type="line"/>
    </contour>
    <contour>
      <point x="49" y="230" type="curve" smooth="yes"/>
      <point x="69" y="364"/>
      <point x="176" y="471"/>
      <point x="304" y="470" type="curve" smooth="yes"/>
      <point x="428" y="469"/>
      <point x="472" y="346"/>
      <point x="456" y="230" type="curve" smooth="yes"/>
      <point x="438" y="106"/>
      <point x="350" y="-10"/>
      <point x="226" y="-10" type="curve" smooth="yes"/>
      <point x="98" y="-10"/>
      <point x="31" y="102"/>
    </contour>
    <contour>
      <point x="102" y="230" type="curve" smooth="yes"/>
      <point x="88" y="128"/>
      <point x="136" y="40"/>
      <point x="238" y="40" type="curve" smooth="yes"/>
      <point x="332" y="40"/>
      <point x="416" y="130"/>
      <point x="432" y="230" type="curve" smooth="yes"/>
      <point x="445" y="323"/>
      <point x="398" y="418"/>
      <point x="306" y="420" type="curve" smooth="yes"/>
      <point x="204" y="422"/>
      <point x="118" y="337"/>
    </contour>
    <contour>
      <point x="188" y="562" type="line"/>
      <point x="198" y="600"/>
      <point x="244" y="632"/>
      <point x="284" y="632" type="curve" smooth="yes"/>
      <point x="334" y="632"/>
      <point x="349" y="584"/>
      <point x="396" y="586" type="curve" smooth="yes"/>
      <point x="422" y="587"/>
      <point x="442" y="609"/>
      <point x="460" y="634" type="curve"/>
      <point x="487" y="606" type="line"/>
      <point x="466" y="574"/>
      <point x="432" y="541"/>
      <point x="390" y="542" type="curve" smooth="yes"/>
      <point x="344" y="543"/>
      <point x="322" y="589"/>
      <point x="280" y="588" type="curve" smooth="yes"/>
      <point x="244" y="587"/>
      <point x="228" y="558"/>
      <point x="220" y="538" type="curve"/>
    </contour>
  </outline>
</glyph>
<glyph name="adieresis" format="2">
  <advance width="541"/>
  <unicode hex="00E4"/>
  <outline>
    <contour>
      <point x="473" y="460" type="line"/>
      <point x="522" y="460" type="line"/>
      <point x="442" y="0" type="line"/>
      <point x="395" y="0" type="line"/>
    </contour>
    <contour>
      <point x="49" y="230" type="curve" smooth="yes"/>
      <point x="69" y="364"/>
      <point x="176" y="471"/>
      <point x="304" y="470" type="curve" smooth="yes"/>
      <point x="428" y="469"/>
      <point x="472" y="346"/>
      <point x="456" y="230" type="curve" smooth="yes"/>
      <point x="438" y="106"/>
      <point x="350" y="-10"/>
      <point x="226" y="-10" type="curve" smooth="yes"/>
      <point x="98" y="-10"/>
      <point x="31" y="102"/>
    </contour>
    <contour>
      <point x="102" y="230" type="curve" smooth="yes"/>
      <point x="88" y="128"/>
      <point x="136" y="40"/>
      <point x="238" y="40" type="curve" smooth="yes"/>
      <point x="332" y="40"/>
      <point x="416" y="130"/>
      <point x="432" y="230" type="curve" smooth="yes"/>
      <point x="445" y="323"/>
      <point x="398" y="418"/>
      <point x="306" y="420" type="curve" smooth="yes"/>
      <point x="204" y="422"/>
      <point x="118" y="337"/>
    </contour>
    <contour>
      <point x="402" y="588" type="curve" smooth="yes"/>
      <point x="404" y="606"/>
      <point x="426" y="625"/>
      <point x="444" y="624" type="curve" smooth="yes"/>
      <point x="463" y="623"/>
      <point x="478" y="606"/>
      <point x="476" y="586" type="curve" smooth="yes"/>
      <point x="474" y="568"/>
      <point x="451" y="549"/>
      <point x="433" y="550" type="curve" smooth="yes"/>
      <point x="414" y="551"/>
      <point x="400" y="568"/>
    </contour>
    <contour>
      <point x="208" y="588" type="curve" smooth="yes"/>
      <point x="210" y="606"/>
      <point x="232" y="625"/>
      <point x="250" y="624" type="curve" smooth="yes"/>
      <point x="269" y="623"/>
      <point x="283" y="606"/>
      <point x="281" y="586" type="curve" smooth="yes"/>
      <point x="279" y="568"/>
      <point x="257" y="549"/>
      <point x="239" y="550" type="curve" smooth="yes"/>
      <point x="220" y="551"/>
      <point x="206" y="568"/>
    </contour>
  </outline>
</glyph>
<glyph name="aring" format="2">
  <advance width="541"/>
  <unicode hex="00E5"/>
  <outline>
    <contour>
      <point x="473" y="460" type="line"/>
      <point x="522" y="460" type="line"/>
      <point x="442" y="0" type="line"/>
      <point x="395" y="0" type="line"/>
    </contour>
    <contour>
      <point x="49" y="230" type="curve" smooth="yes"/>
      <point x="69" y="364"/>
      <point x="176" y="471"/>
      <point x="304" y="470" type="curve" smooth="yes"/>
      <point x="428" y="469"/>
      <point x="472" y="346"/>
      <point x="456" y="230" type="curve" smooth="yes"/>
      <point x="438" y="106"/>
      <point x="350" y="-10"/>
      <point x="226" y="-10" type="curve" smooth="yes"/>
      <point x="98" y="-10"/>
      <point x="31" y="102"/>
    </contour>
    <contour>
      <point x="102" y="230" type="curve" smooth="yes"/>
      <point x="88" y="128"/>
      <point x="136" y="40"/>
      <point x="238" y="40" type="curve" smooth="yes"/>
      <point x="332" y="40"/>
      <point x="416" y="130"/>
      <point x="432" y="230" type="curve" smooth="yes"/>
      <point x="445" y="323"/>
      <point x="398" y="418"/>
      <point x="306" y="420" type="curve" smooth="yes"/>
      <point x="204" y="422"/>
      <point x="118" y="337"/>
    </contour>
    <contour>
      <point x="230" y="630" type="curve" smooth="yes"/>
      <point x="238" y="685"/>
      <point x="292" y="729"/>
      <point x="345" y="729" type="curve" smooth="yes"/>
      <point x="398" y="729"/>
      <point x="437" y="683"/>
      <point x="429" y="629" type="curve" smooth="yes"/>
      <point x="421" y="574"/>
      <point x="367" y="530"/>
      <point x="314" y="530" type="curve" smooth="yes"/>
      <point x="261" y="530"/>
      <point x="222" y="576"/>
    </contour>
    <contour>
      <point x="264" y="630" type="curve" smooth="yes"/>
      <point x="260" y="595"/>
      <point x="282" y="562"/>
      <point x="316" y="562" type="curve" smooth="yes"/>
      <point x="350" y="562"/>
      <point x="390" y="594"/>
      <point x="395" y="630" type="curve" smooth="yes"/>
      <point x="399" y="665"/>
      <point x="376" y="697"/>
      <point x="342" y="697" type="curve" smooth="yes"/>
      <point x="308" y="697"/>
      <point x="269" y="666"/>
    </contour>
  </outline>
</glyph>
<glyph name="ae" format="2">
  <advance width="810"/>
  <unicode hex="00E6"/>
  <outline>
    <contour>
      <point x="172" y="-10" type="curve" smooth="yes"/>
      <point x="71" y="-10"/>
      <point x="17" y="49"/>
      <point x="23" y="125" type="curve" smooth="yes"/>
      <point x="29" y="216"/>
      <point x="113" y="284"/>
      <point x="230" y="284" type="curve" smooth="yes"/>
      <point x="285" y="284"/>
      <point x="328" y="269"/>
      <point x="378" y="232" type="curve"/>
      <point x="352" y="231" type="line"/>
      <point x="366" y="314" type="line" smooth="yes"/>
      <point x="377" y="386"/>
      <point x="344" y="424"/>
      <point x="282" y="424" type="curve" smooth="yes"/>
      <point x="233" y="424"/>
      <point x="178" y="404"/>
      <point x="134" y="369" type="curve"/>
      <point x="108" y="409" type="line"/>
      <point x="158" y="448"/>
      <point x="220" y="470"/>
      <point x="282" y="470" type="curve" smooth="yes"/>
      <point x="373" y="470"/>
      <point x="419" y="421"/>
      <point x="405" y="326" type="curve"/>
      <point x="391" y="317" type="line"/>
      <point x="428" y="403"/>
      <point x="516" y="470"/>
      <point x="618" y="470" type="curve" smooth="yes"/>
      <point x="725" y="470"/>
      <point x="798" y="386"/>
      <point x="790" y="263" type="curve" smooth="yes"/>
      <point x="790" y="243"/>
      <point x="785" y="231"/>
      <point x="780" y="217" type="curve"/>
      <point x="388" y="217" type="line"/>
      <point x="404" y="229" type="line"/>
      <point x="386" y="120"/>
      <point x="431" y="39"/>
      <point x="534" y="39" type="curve" smooth="yes"/>
      <point x="605" y="39"/>
      <point x="670" y="72"/>
      <point x="714" y="134" type="curve"/>
      <point x="756" y="107" type="line"/>
      <point x="703" y="31"/>
      <point x="618" y="-10"/>
      <point x="532" y="-10" type="curve" smooth="yes"/>
      <point x="433" y="-10"/>
      <point x="374" y="39"/>
      <point x="358" y="137" type="curve"/>
      <point x="369" y="137" type="line"/>
      <point x="340" y="45"/>
      <point x="270" y="-10"/>
    </contour>
    <contour>
      <point x="182" y="37" type="curve" smooth="yes"/>
      <point x="268" y="37"/>
      <point x="328" y="90"/>
      <point x="356" y="194" type="curve"/>
      <point x="349" y="141" type="line"/>
      <point x="351" y="225" type="line"/>
      <point x="357" y="206" type="line"/>
      <point x="327" y="230"/>
      <point x="282" y="243"/>
      <point x="232" y="243" type="curve" smooth="yes"/>
      <point x="147" y="243"/>
      <point x="82" y="199"/>
      <point x="76" y="131" type="curve" smooth="yes"/>
      <point x="71" y="70"/>
      <point x="109" y="37"/>
    </contour>
    <contour>
      <point x="404" y="238" type="curve"/>
      <point x="389" y="262" type="line"/>
      <point x="750" y="262" type="line"/>
      <point x="732" y="244" type="line"/>
      <point x="734" y="248"/>
      <point x="736" y="252"/>
      <point x="736" y="260" type="curve" smooth="yes"/>
      <point x="744" y="356"/>
      <point x="699" y="424"/>
      <point x="606" y="424" type="curve" smooth="yes"/>
      <point x="506" y="424"/>
      <point x="427" y="346"/>
    </contour>
  </outline>
</glyph>
<glyph name="ccedilla" format="2">
  <advance width="467"/>
  <unicode hex="00E7"/>
  <outline>
    <contour>
      <point x="96" y="230" type="curve" smooth="yes"/>
      <point x="80" y="132"/>
      <point x="136" y="41"/>
      <point x="240" y="40" type="curve" smooth="yes"/>
      <point x="310" y="40"/>
      <point x="372" y="75"/>
      <point x="408" y="113" type="curve"/>
      <point x="398" y="48" type="line"/>
      <point x="359" y="15"/>
      <point x="299" y="-10"/>
      <point x="235" y="-10" type="curve" smooth="yes"/>
      <point x="101" y="-10"/>
      <point x="26" y="104"/>
      <point x="44" y="230" type="curve" smooth="yes"/>
      <point x="64" y="362"/>
      <point x="178" y="470"/>
      <point x="314" y="470" type="curve" smooth="yes"/>
      <point x="374" y="470"/>
      <point x="426" y="447"/>
      <point x="458" y="411" type="curve"/>
      <point x="448" y="346" type="line"/>
      <point x="426" y="389"/>
      <point x="374" y="420"/>
      <point x="309" y="420" type="curve" smooth="yes"/>
      <point x="203" y="420"/>
      <point x="114" y="334"/>
    </contour>
    <contour>
      <point x="232" y="34" type="line"/>
      <point x="272" y="34" type="line"/>
      <point x="196" y="-63" type="line"/>
      <point x="207" y="-58"/>
      <point x="217" y="-54"/>
      <point x="230" y="-54" type="curve" smooth="yes"/>
      <point x="266" y="-57"/>
      <point x="295" y="-85"/>
      <point x="290" y="-128" type="curve" smooth="yes"/>
      <point x="283" y="-184"/>
      <point x="225" y="-222"/>
      <point x="171" y="-222" type="curve" smooth="yes"/>
      <point x="136" y="-222"/>
      <point x="113" y="-208"/>
      <point x="88" y="-183" type="curve"/>
      <point x="114" y="-158" type="line"/>
      <point x="133" y="-174"/>
      <point x="148" y="-185"/>
      <point x="174" y="-185" type="curve" smooth="yes"/>
      <point x="210" y="-185"/>
      <point x="248" y="-162"/>
      <point x="252" y="-128" type="curve" smooth="yes"/>
      <point x="256" y="-100"/>
      <point x="236" y="-82"/>
      <point x="208" y="-81" type="curve" smooth="yes"/>
      <point x="187" y="-79"/>
      <point x="160" y="-89"/>
      <point x="138" y="-101" type="curve"/>
    </contour>
  </outline>
</glyph>
<glyph name="eacute" format="2">
  <advance width="494"/>
  <unicode hex="00E9"/>
  <outline>
    <contour>
      <point x="82" y="218" type="line"/>
      <point x="90" y="262" type="line"/>
      <point x="421" y="262" type="line"/>
      <point x="431" y="344"/>
      <point x="392" y="423"/>
      <point x="300" y="424" type="curve" smooth="yes"/>
      <point x="204" y="425"/>
      <point x="126" y="347"/>
      <point x="108" y="250" type="curve"/>
      <point x="104" y="231" type="line"/>
      <point x="92" y="132"/>
      <point x="130" y="42"/>
      <point x="232" y="40" type="curve" smooth="yes"/>
      <point x="312" y="39"/>
      <point x="365" y="86"/>
      <point x="406" y="134" type="curve"/>
      <point x="444" y="106" type="line"/>
      <point x="392" y="44"/>
      <point x="329" y="-10"/>
      <point x="222" y="-10" type="curve" smooth="yes"/>
      <point x="96" y="-9"/>
      <point x="36" y="109"/>
      <point x="52" y="231" type="curve" smooth="yes"/>
      <point x="55" y="252"/>
      <point x="60" y="272"/>
      <point x="68" y="291" type="curve" smooth="yes"/>
      <point x="104" y="391"/>
      <point x="193" y="470"/>
      <point x="304" y="470" type="curve" smooth="yes"/>
      <point x="428" y="470"/>
      <point x="489" y="362"/>
      <point x="474" y="242" type="curve" smooth="yes"/>
      <point x="473" y="234"/>
      <point x="471" y="226"/>
      <point x="469" y="218" type="curve"/>
    </contour>
    <contour>
      <point x="496" y="686" type="line"/>
      <point x="300" y="536" type="line"/>
      <point x="273" y="556" type="line"/>
      <point x="452" y="714" type="line"/>
    </contour>
  </outline>
</glyph>
<glyph name="edieresis" format="2">
  <advance width="494"/>
  <unicode hex="00EB"/>
  <outline>
    <contour>
      <point x="82" y="218" type="line"/>
      <point x="90" y="262" type="line"/>
      <point x="421" y="262" type="line"/>
      <point x="431" y="344"/>
      <point x="392" y="423"/>
      <point x="300" y="424" type="curve" smooth="yes"/>
      <point x="204" y="425"/>
      <point x="126" y="347"/>
      <point x="108" y="250" type="curve"/>
      <point x="104" y="231" type="line"/>
      <point x="92" y="132"/>
      <point x="130" y="42"/>
      <point x="232" y="40" type="curve" smooth="yes"/>
      <point x="312" y="39"/>
      <point x="365" y="86"/>
      <point x="406" y="134" type="curve"/>
      <point x="444" y="106" type="line"/>
      <point x="392" y="44"/>
      <point x="329" y="-10"/>
      <point x="222" y="-10" type="curve" smooth="yes"/>
      <point x="96" y="-9"/>
      <point x="36" y="109"/>
      <point x="52" y="231" type="curve" smooth="yes"/>
      <point x="55" y="252"/>
      <point x="60" y="272"/>
      <point x="68" y="291" type="curve" smooth="yes"/>
      <point x="104" y="391"/>
      <point x="193" y="470"/>
      <point x="304" y="470" type="curve" smooth="yes"/>
      <point x="428" y="470"/>
      <point x="489" y="362"/>
      <point x="474" y="242" type="curve" smooth="yes"/>
      <point x="473" y="234"/>
      <point x="471" y="226"/>
      <point x="469" y="218" type="curve"/>
    </contour>
    <contour>
      <point x="380" y="568" type="curve" smooth="yes"/>
      <point x="382" y="586"/>
      <point x="404" y="605"/>
      <point x="422" y="604" type="curve" smooth="yes"/>
      <point x="441" y="603"/>
      <point x="456" y="586"/>
      <point x="454" y="566" type="curve" smooth="yes"/>
      <point x="452" y="548"/>
      <point x="430" y="529"/>
      <point x="412" y="530" type="curve" smooth="yes"/>
      <point x="393" y="531"/>
      <point x="378" y="548"/>
    </contour>
    <contour>
      <point x="186" y="568" type="curve" smooth="yes"/>
      <point x="188" y="586"/>
      <point x="210" y="605"/>
      <point x="228" y="604" type="curve" smooth="yes"/>
      <point x="247" y="603"/>
      <point x="262" y="586"/>
      <point x="260" y="566" type="curve" smooth="yes"/>
      <point x="258" y="548"/>
      <point x="236" y="529"/>
      <point x="218" y="530" type="curve" smooth="yes"/>
      <point x="199" y="531"/>
      <point x="184" y="548"/>
    </contour>
  </outline>
</glyph>
<glyph name="iacute" format="2">
  <advance width="224"/>
  <unicode hex="00ED"/>
  <outline>
    <contour>
      <point x="138" y="460" type="line"/>
      <point x="190" y="460" type="line"/>
      <point x="110" y="0" type="line"/>
      <point x="60" y="0" type="line"/>
    </contour>
    <contour>
      <point x="358" y="693" type="line"/>
      <point x="161" y="543" type="line"/>
      <point x="134" y="564" type="line"/>
      <point x="314" y="722" type="line"/>
    </contour>
  </outline>
</glyph>
<glyph name="icircumflex" format="2">
  <advance width="224"/>
  <unicode hex="00EE"/>
  <outline>
    <contour>
      <point x="138" y="460" type="line"/>
      <point x="190" y="460" type="line"/>
      <point x="110" y="0" type="line"/>
      <point x="60" y="0" type="line"/>
    </contour>
    <contour>
      <point x="198" y="646" type="line"/>
      <point x="54" y="536" type="line"/>
      <point x="26" y="564" type="line"/>
      <point x="204" y="702" type="line"/>
      <point x="338" y="562" type="line"/>
      <point x="302" y="536" type="line"/>
    </contour>
  </outline>
</glyph>
<glyph name="idieresis" format="2">
  <advance width="224"/>
  <unicode hex="00EF"/>
  <outline>
    <contour>
      <point x="138" y="460" type="line"/>
      <point x="190" y="460" type="line"/>
      <point x="110" y="0" type="line"/>
      <point x="60" y="0" type="line"/>
    </contour>
    <contour>
      <point x="238" y="586" type="curve" smooth="yes"/>
      <point x="240" y="604"/>
      <point x="262" y="623"/>
      <point x="280" y="622" type="curve" smooth="yes"/>
      <point x="299" y="621"/>
      <point x="313" y="604"/>
      <point x="311" y="584" type="curve" smooth="yes"/>
      <point x="309" y="566"/>
      <point x="287" y="547"/>
      <point x="269" y="548" type="curve" smooth="yes"/>
      <point x="250" y="549"/>
      <point x="236" y="566"/>
    </contour>
    <contour>
      <point x="60" y="586" type="curve" smooth="yes"/>
      <point x="62" y="604"/>
      <point x="84" y="623"/>
      <point x="102" y="622" type="curve" smooth="yes"/>
      <point x="121" y="621"/>
      <point x="134" y="604"/>
      <point x="132" y="584" type="curve" smooth="yes"/>
      <point x="130" y="566"/>
      <point x="108" y="547"/>
      <point x="90" y="548" type="curve" smooth="yes"/>
      <point x="71" y="549"/>
      <point x="58" y="566"/>
    </contour>
  </outline>
</glyph>
<glyph name="eth" format="2">
  <advance width="560"/>
  <unicode hex="00F0"/>
  <outline>
    <contour>
      <point x="252" y="-10" type="curve" smooth="yes"/>
      <point x="128" y="-10"/>
      <point x="51" y="70"/>
      <point x="51" y="195" type="curve" smooth="yes"/>
      <point x="51" y="336"/>
      <point x="176" y="449"/>
      <point x="298" y="449" type="curve" smooth="yes"/>
      <point x="364" y="449"/>
      <point x="416" y="424"/>
      <point x="464" y="374" type="curve"/>
      <point x="440" y="373" type="line"/>
      <point x="396" y="480"/>
      <point x="352" y="547"/>
      <point x="242" y="679" type="curve"/>
      <point x="274" y="715" type="line"/>
      <point x="464" y="473"/>
      <point x="515" y="377"/>
      <point x="515" y="267" type="curve" smooth="yes"/>
      <point x="515" y="123"/>
      <point x="403" y="-10"/>
    </contour>
    <contour>
      <point x="253" y="40" type="curve" smooth="yes"/>
      <point x="366" y="40"/>
      <point x="460" y="146"/>
      <point x="460" y="255" type="curve" smooth="yes"/>
      <point x="460" y="345"/>
      <point x="403" y="408"/>
      <point x="308" y="408" type="curve" smooth="yes"/>
      <point x="207" y="408"/>
      <point x="104" y="308"/>
      <point x="104" y="195" type="curve" smooth="yes"/>
      <point x="104" y="101"/>
      <point x="164" y="40"/>
    </contour>
    <contour>
      <point x="228" y="510" type="line"/>
      <point x="216" y="542" type="line"/>
      <point x="491" y="650" type="line"/>
      <point x="503" y="618" type="line"/>
    </contour>
  </outline>
</glyph>
<glyph name="ntilde" format="2">
  <advance width="489"/>
  <unicode hex="00F1"/>
  <outline>
    <contour>
      <point x="180" y="460" type="line"/>
      <point x="100" y="0" type="line"/>
      <point x="48" y="0" type="line"/>
      <point x="128" y="460" type="line"/>
    </contour>
    <contour>
      <point x="386" y="296" type="line" smooth="yes"/>
      <point x="394" y="362"/>
      <point x="379" y="418"/>
      <point x="305" y="420" type="curve" smooth="yes"/>
      <point x="225" y="422"/>
      <point x="166" y="353"/>
      <point x="148" y="281" type="curve"/>
      <point x="124" y="281" type="line"/>
      <point x="144" y="379"/>
      <point x="219" y="470"/>
      <point x="321" y="470" type="curve" smooth="yes"/>
      <point x="418" y="470"/>
      <point x="450" y="394"/>
      <point x="438" y="302" type="curve"/>
      <point x="386" y="0" type="line"/>
      <point x="336" y="0" type="line"/>
    </contour>
    <contour>
      <point x="168" y="562" type="line"/>
      <point x="184" y="598"/>
      <point x="218" y="633"/>
      <point x="264" y="632" type="curve" smooth="yes"/>
      <point x="314" y="632"/>
      <point x="331" y="584"/>
      <point x="377" y="586" type="curve" smooth="yes"/>
      <point x="403" y="587"/>
      <point x="422" y="609"/>
      <point x="440" y="634" type="curve"/>
      <point x="468" y="606" type="line"/>
      <point x="447" y="574"/>
      <point x="412" y="541"/>
      <point x="370" y="542" type="curve" smooth="yes"/>
      <point x="324" y="543"/>
      <point x="302" y="588"/>
      <point x="260" y="588" type="curve" smooth="yes"/>
      <point x="224" y="588"/>
      <point x="208" y="558"/>
      <point x="200" y="538" type="curve"/>
    </contour>
  </outline>
</glyph>
<glyph name="ograve" format="2">
  <advance width="533"/>
  <unicode hex="00F2"/>
  <outline>
    <contour>
      <point x="49" y="230" type="curve" smooth="yes"/>
      <point x="69" y="362"/>
      <point x="183" y="470"/>
      <point x="318" y="470" type="curve" smooth="yes"/>
      <point x="452" y="470"/>
      <point x="527" y="356"/>
      <point x="509" y="230" type="curve" smooth="yes"/>
      <point x="489" y="98"/>
      <point x="375" y="-10"/>
      <point x="240" y="-10" type="curve" smooth="yes"/>
      <point x="106" y="-10"/>
      <point x="31" y="104"/>
    </contour>
    <contour>
      <point x="102" y="230" type="curve" smooth="yes"/>
      <point x="86" y="132"/>
      <point x="140" y="40"/>
      <point x="244" y="40" type="curve" smooth="yes"/>
      <point x="350" y="40"/>
      <point x="439" y="126"/>
      <point x="456" y="230" type="curve" smooth="yes"/>
      <point x="472" y="328"/>
      <point x="418" y="420"/>
      <point x="314" y="420" type="curve" smooth="yes"/>
      <point x="208" y="420"/>
      <point x="119" y="334"/>
    </contour>
    <contour>
      <point x="212" y="696" type="line"/>
      <point x="262" y="722" type="line"/>
      <point x="390" y="562" type="line"/>
      <point x="360" y="542" type="line"/>
    </contour>
  </outline>
</glyph>
<glyph name="oacute" format="2">
  <advance width="533"/>
  <unicode hex="00F3"/>
  <outline>
    <contour>
      <point x="49" y="230" type="curve" smooth="yes"/>
      <point x="69" y="362"/>
      <point x="183" y="470"/>
      <point x="318" y="470" type="curve" smooth="yes"/>
      <point x="452" y="470"/>
      <point x="527" y="356"/>
      <point x="509" y="230" type="curve" smooth="yes"/>
      <point x="489" y="98"/>
      <point x="375" y="-10"/>
      <point x="240" y="-10" type="curve" smooth="yes"/>
      <point x="106" y="-10"/>
      <point x="31" y="104"/>
    </contour>
    <contour>
      <point x="102" y="230" type="curve" smooth="yes"/>
      <point x="86" y="132"/>
      <point x="140" y="40"/>
      <point x="244" y="40" type="curve" smooth="yes"/>
      <point x="350" y="40"/>
      <point x="439" y="126"/>
      <point x="456" y="230" type="curve" smooth="yes"/>
      <point x="472" y="328"/>
      <point x="418" y="420"/>
      <point x="314" y="420" type="curve" smooth="yes"/>
      <point x="208" y="420"/>
      <point x="119" y="334"/>
    </contour>
    <contour>
      <point x="504" y="693" type="line"/>
      <point x="307" y="543" type="line"/>
      <point x="280" y="564" type="line"/>
      <point x="461" y="722" type="line"/>
    </contour>
  </outline>
</glyph>
<glyph name="ocircumflex" format="2">
  <advance width="533"/>
  <unicode hex="00F4"/>
  <outline>
    <contour>
      <point x="49" y="230" type="curve" smooth="yes"/>
      <point x="69" y="362"/>
      <point x="183" y="470"/>
      <point x="318" y="470" type="curve" smooth="yes"/>
      <point x="452" y="470"/>
      <point x="527" y="356"/>
      <point x="509" y="230" type="curve" smooth="yes"/>
      <point x="489" y="98"/>
      <point x="375" y="-10"/>
      <point x="240" y="-10" type="curve" smooth="yes"/>
      <point x="106" y="-10"/>
      <point x="31" y="104"/>
    </contour>
    <contour>
      <point x="102" y="230" type="curve" smooth="yes"/>
      <point x="86" y="132"/>
      <point x="140" y="40"/>
      <point x="244" y="40" type="curve" smooth="yes"/>
      <point x="350" y="40"/>
      <point x="439" y="126"/>
      <point x="456" y="230" type="curve" smooth="yes"/>
      <point x="472" y="328"/>
      <point x="418" y="420"/>
      <point x="314" y="420" type="curve" smooth="yes"/>
      <point x="208" y="420"/>
      <point x="119" y="334"/>
    </contour>
    <contour>
      <point x="354" y="660" type="line"/>
      <point x="211" y="550" type="line"/>
      <point x="182" y="578" type="line"/>
      <point x="361" y="716" type="line"/>
      <point x="494" y="576" type="line"/>
      <point x="458" y="550" type="line"/>
    </contour>
  </outline>
</glyph>
<glyph name="otilde" format="2">
  <advance width="533"/>
  <unicode hex="00F5"/>
  <outline>
    <contour>
      <point x="49" y="230" type="curve" smooth="yes"/>
      <point x="69" y="362"/>
      <point x="183" y="470"/>
      <point x="318" y="470" type="curve" smooth="yes"/>
      <point x="452" y="470"/>
      <point x="527" y="356"/>
      <point x="509" y="230" type="curve" smooth="yes"/>
      <point x="489" y="98"/>
      <point x="375" y="-10"/>
      <point x="240" y="-10" type="curve" smooth="yes"/>
      <point x="106" y="-10"/>
      <point x="31" y="104"/>
    </contour>
    <contour>
      <point x="102" y="230" type="curve" smooth="yes"/>
      <point x="86" y="132"/>
      <point x="140" y="40"/>
      <point x="244" y="40" type="curve" smooth="yes"/>
      <point x="350" y="40"/>
      <point x="439" y="126"/>
      <point x="456" y="230" type="curve" smooth="yes"/>
      <point x="472" y="328"/>
      <point x="418" y="420"/>
      <point x="314" y="420" type="curve" smooth="yes"/>
      <point x="208" y="420"/>
      <point x="119" y="334"/>
    </contour>
    <contour>
      <point x="190" y="562" type="line"/>
      <point x="188" y="600"/>
      <point x="252" y="632"/>
      <point x="286" y="632" type="curve" smooth="yes"/>
      <point x="336" y="632"/>
      <point x="351" y="584"/>
      <point x="398" y="586" type="curve" smooth="yes"/>
      <point x="424" y="587"/>
      <point x="444" y="609"/>
      <point x="462" y="634" type="curve"/>
      <point x="489" y="606" type="line"/>
      <point x="468" y="574"/>
      <point x="434" y="541"/>
      <point x="392" y="542" type="curve" smooth="yes"/>
      <point x="346" y="543"/>
      <point x="324" y="589"/>
      <point x="282" y="588" type="curve" smooth="yes"/>
      <point x="246" y="587"/>
      <point x="230" y="558"/>
      <point x="222" y="538" type="curve"/>
    </contour>
  </outline>
</glyph>
<glyph name="odieresis" format="2">
  <advance width="533"/>
  <unicode hex="00F6"/>
  <outline>
    <contour>
      <point x="49" y="230" type="curve" smooth="yes"/>
      <point x="69" y="362"/>
      <point x="183" y="470"/>
      <point x="318" y="470" type="curve" smooth="yes"/>
      <point x="452" y="470"/>
      <point x="527" y="356"/>
      <point x="509" y="230" type="curve" smooth="yes"/>
      <point x="489" y="98"/>
      <point x="375" y="-10"/>
      <point x="240" y="-10" type="curve" smooth="yes"/>
      <point x="106" y="-10"/>
      <point x="31" y="104"/>
    </contour>
    <contour>
      <point x="102" y="230" type="curve" smooth="yes"/>
      <point x="86" y="132"/>
      <point x="140" y="40"/>
      <point x="244" y="40" type="curve" smooth="yes"/>
      <point x="350" y="40"/>
      <point x="439" y="126"/>
      <point x="456" y="230" type="curve" smooth="yes"/>
      <point x="472" y="328"/>
      <point x="418" y="420"/>
      <point x="314" y="420" type="curve" smooth="yes"/>
      <point x="208" y="420"/>
      <point x="119" y="334"/>
    </contour>
    <contour>
      <point x="402" y="594" type="curve" smooth="yes"/>
      <point x="404" y="612"/>
      <point x="426" y="631"/>
      <point x="444" y="630" type="curve" smooth="yes"/>
      <point x="463" y="629"/>
      <point x="476" y="612"/>
      <point x="474" y="592" type="curve" smooth="yes"/>
      <point x="472" y="574"/>
      <point x="450" y="555"/>
      <point x="432" y="556" type="curve" smooth="yes"/>
      <point x="413" y="557"/>
      <point x="400" y="574"/>
    </contour>
    <contour>
      <point x="208" y="594" type="curve" smooth="yes"/>
      <point x="210" y="612"/>
      <point x="232" y="631"/>
      <point x="250" y="630" type="curve" smooth="yes"/>
      <point x="269" y="629"/>
      <point x="282" y="612"/>
      <point x="280" y="592" type="curve" smooth="yes"/>
      <point x="278" y="574"/>
      <point x="256" y="555"/>
      <point x="238" y="556" type="curve" smooth="yes"/>
      <point x="219" y="557"/>
      <point x="206" y="574"/>
    </contour>
  </outline>
</glyph>
<glyph name="divide" format="2">
  <advance width="604"/>
  <unicode hex="00F7"/>
  <outline>
    <contour>
      <point x="314" y="451" type="curve" smooth="yes"/>
      <point x="316" y="469"/>
      <point x="338" y="489"/>
      <point x="356" y="488" type="curve" smooth="yes"/>
      <point x="375" y="487"/>
      <point x="389" y="470"/>
      <point x="387" y="450" type="curve" smooth="yes"/>
      <point x="385" y="432"/>
      <point x="363" y="413"/>
      <point x="345" y="414" type="curve" smooth="yes"/>
      <point x="326" y="415"/>
      <point x="312" y="431"/>
    </contour>
    <contour>
      <point x="246" y="55" type="curve" smooth="yes"/>
      <point x="248" y="73"/>
      <point x="270" y="93"/>
      <point x="288" y="92" type="curve" smooth="yes"/>
      <point x="307" y="91"/>
      <point x="322" y="74"/>
      <point x="320" y="54" type="curve" smooth="yes"/>
      <point x="318" y="36"/>
      <point x="296" y="17"/>
      <point x="278" y="18" type="curve" smooth="yes"/>
      <point x="259" y="19"/>
      <point x="244" y="35"/>
    </contour>
    <contour>
      <point x="70" y="230" type="line"/>
      <point x="79" y="281" type="line"/>
      <point x="565" y="281" type="line"/>
      <point x="556" y="229" type="line"/>
    </contour>
  </outline>
</glyph>
<glyph name="ucircumflex" format="2">
  <advance width="489"/>
  <unicode hex="00FB"/>
  <outline>
    <contour>
      <point x="334" y="0" type="line"/>
      <point x="414" y="460" type="line"/>
      <point x="466" y="460" type="line"/>
      <point x="386" y="0" type="line"/>
    </contour>
    <contour>
      <point x="128" y="168" type="line" smooth="yes"/>
      <point x="120" y="100"/>
      <point x="135" y="41"/>
      <point x="210" y="40" type="curve" smooth="yes"/>
      <point x="290" y="38"/>
      <point x="348" y="107"/>
      <point x="366" y="179" type="curve"/>
      <point x="390" y="179" type="line"/>
      <point x="370" y="81"/>
      <point x="295" y="-10"/>
      <point x="193" y="-10" type="curve" smooth="yes"/>
      <point x="95" y="-10"/>
      <point x="64" y="68"/>
      <point x="76" y="162" type="curve"/>
      <point x="128" y="460" type="line"/>
      <point x="178" y="460" type="line"/>
    </contour>
    <contour>
      <point x="332" y="656" type="line"/>
      <point x="188" y="546" type="line"/>
      <point x="160" y="574" type="line"/>
      <point x="338" y="712" type="line"/>
      <point x="472" y="572" type="line"/>
      <point x="436" y="546" type="line"/>
    </contour>
  </outline>
</glyph>
<glyph name="udieresis" format="2">
  <advance width="489"/>
  <unicode hex="00FC"/>
  <outline>
    <contour>
      <point x="334" y="0" type="line"/>
      <point x="414" y="460" type="line"/>
      <point x="466" y="460" type="line"/>
      <point x="386" y="0" type="line"/>
    </contour>
    <contour>
      <point x="128" y="168" type="line" smooth="yes"/>
      <point x="120" y="100"/>
      <point x="135" y="41"/>
      <point x="210" y="40" type="curve" smooth="yes"/>
      <point x="290" y="38"/>
      <point x="348" y="107"/>
      <point x="366" y="179" type="curve"/>
      <point x="390" y="179" type="line"/>
      <point x="370" y="81"/>
      <point x="295" y="-10"/>
      <point x="193" y="-10" type="curve" smooth="yes"/>
      <point x="95" y="-10"/>
      <point x="64" y="68"/>
      <point x="76" y="162" type="curve"/>
      <point x="128" y="460" type="line"/>
      <point x="178" y="460" type="line"/>
    </contour>
    <contour>
      <point x="371" y="588" type="curve" smooth="yes"/>
      <point x="373" y="606"/>
      <point x="394" y="625"/>
      <point x="412" y="624" type="curve" smooth="yes"/>
      <point x="431" y="623"/>
      <point x="446" y="606"/>
      <point x="444" y="586" type="curve" smooth="yes"/>
      <point x="442" y="568"/>
      <point x="420" y="549"/>
      <point x="402" y="550" type="curve" smooth="yes"/>
      <point x="382" y="551"/>
      <point x="369" y="569"/>
    </contour>
    <contour>
      <point x="192" y="588" type="curve" smooth="yes"/>
      <point x="194" y="606"/>
      <point x="216" y="625"/>
      <point x="234" y="624" type="curve" smooth="yes"/>
      <point x="253" y="623"/>
      <point x="268" y="606"/>
      <point x="266" y="586" type="curve" smooth="yes"/>
      <point x="264" y="568"/>
      <point x="241" y="549"/>
      <point x="223" y="550" type="curve" smooth="yes"/>
      <point x="203" y="551"/>
      <point x="190" y="569"/>
    </contour>
  </outline>
</glyph>
<glyph name="yacute" format="2">
  <advance width="420"/>
  <unicode hex="00FD"/>
  <outline>
    <contour>
      <point x="470" y="460" type="line"/>
      <point x="62" y="-220" type="line"/>
      <point x="4" y="-220" type="line"/>
      <point x="166" y="48" type="line"/>
      <point x="56" y="460" type="line"/>
      <point x="116" y="460" type="line"/>
      <point x="210" y="68" type="line"/>
      <point x="187" y="70" type="line"/>
      <point x="412" y="460" type="line"/>
    </contour>
    <contour>
      <point x="438" y="693" type="line"/>
      <point x="241" y="543" type="line"/>
      <point x="214" y="564" type="line"/>
      <point x="395" y="722" type="line"/>
    </contour>
  </outline>
</glyph>
<glyph name="ydieresis" format="2">
  <advance width="420"/>
  <unicode hex="00FF"/>
  <outline>
    <contour>
      <point x="470" y="460" type="line"/>
      <point x="62" y="-220" type="line"/>
      <point x="4" y="-220" type="line"/>
      <point x="166" y="48" type="line"/>
      <point x="56" y="460" type="line"/>
      <point x="116" y="460" type="line"/>
      <point x="210" y="68" type="line"/>
      <point x="187" y="70" type="line"/>
      <point x="412" y="460" type="line"/>
    </contour>
    <contour>
      <point x="334" y="576" type="curve" smooth="yes"/>
      <point x="336" y="594"/>
      <point x="358" y="613"/>
      <point x="376" y="612" type="curve" smooth="yes"/>
      <point x="395" y="611"/>
      <point x="410" y="594"/>
      <point x="408" y="574" type="curve" smooth="yes"/>
      <point x="406" y="556"/>
      <point x="384" y="537"/>
      <point x="366" y="538" type="curve" smooth="yes"/>
      <point x="347" y="539"/>
      <point x="332" y="556"/>
    </contour>
    <contour>
      <point x="156" y="576" type="curve" smooth="yes"/>
      <point x="158" y="594"/>
      <point x="180" y="613"/>
      <point x="198" y="612" type="curve" smooth="yes"/>
      <point x="217" y="611"/>
      <point x="232" y="594"/>
      <point x="230" y="574" type="curve" smooth="yes"/>
      <point x="228" y="556"/>
      <point x="204" y="537"/>
      <point x="186" y="538" type="curve" smooth="yes"/>
      <point x="167" y="539"/>
      <point x="154" y="556"/>
    </contour>
  </outline>
</glyph>
<glyph name="Abreve" format="2">
  <advance width="616"/>
  <unicode hex="0102"/>
  <outline>
    <contour>
      <point x="148" y="236" type="line"/>
      <point x="174" y="286" type="line"/>
      <point x="489" y="287" type="line"/>
      <point x="498" y="235" type="line"/>
    </contour>
    <contour>
      <point x="386" y="600" type="line"/>
      <point x="196" y="269" type="line"/>
      <point x="189" y="257" type="line"/>
      <point x="42" y="0" type="line"/>
      <point x="-20" y="0" type="line"/>
      <point x="406" y="728" type="line"/>
      <point x="581" y="0" type="line"/>
      <point x="521" y="0" type="line"/>
      <point x="464" y="253" type="line"/>
      <point x="462" y="266" type="line"/>
    </contour>
    <contour>
      <point x="286" y="931" type="curve"/>
      <point x="332" y="930" type="line"/>
      <point x="328" y="883"/>
      <point x="352" y="834"/>
      <point x="422" y="834" type="curve" smooth="yes"/>
      <point x="494" y="834"/>
      <point x="532" y="884"/>
      <point x="548" y="930" type="curve"/>
      <point x="594" y="930" type="line"/>
      <point x="574" y="858"/>
      <point x="515" y="792"/>
      <point x="418" y="792" type="curve" smooth="yes"/>
      <point x="322" y="792"/>
      <point x="280" y="857"/>
    </contour>
  </outline>
</glyph>
<glyph name="abreve" format="2">
  <advance width="541"/>
  <unicode hex="0103"/>
  <outline>
    <contour>
      <point x="473" y="460" type="line"/>
      <point x="522" y="460" type="line"/>
      <point x="442" y="0" type="line"/>
      <point x="395" y="0" type="line"/>
    </contour>
    <contour>
      <point x="49" y="230" type="curve" smooth="yes"/>
      <point x="69" y="364"/>
      <point x="176" y="471"/>
      <point x="304" y="470" type="curve" smooth="yes"/>
      <point x="428" y="469"/>
      <point x="472" y="346"/>
      <point x="456" y="230" type="curve" smooth="yes"/>
      <point x="438" y="106"/>
      <point x="350" y="-10"/>
      <point x="226" y="-10" type="curve" smooth="yes"/>
      <point x="98" y="-10"/>
      <point x="31" y="102"/>
    </contour>
    <contour>
      <point x="102" y="230" type="curve" smooth="yes"/>
      <point x="88" y="128"/>
      <point x="136" y="40"/>
      <point x="238" y="40" type="curve" smooth="yes"/>
      <point x="332" y="40"/>
      <point x="416" y="130"/>
      <point x="432" y="230" type="curve" smooth="yes"/>
      <point x="445" y="323"/>
      <point x="398" y="418"/>
      <point x="306" y="420" type="curve" smooth="yes"/>
      <point x="204" y="422"/>
      <point x="118" y="337"/>
    </contour>
    <contour>
      <point x="176" y="678" type="curve"/>
      <point x="222" y="678" type="line"/>
      <point x="219" y="631"/>
      <point x="242" y="581"/>
      <point x="312" y="581" type="curve" smooth="yes"/>
      <point x="384" y="581"/>
      <point x="422" y="631"/>
      <point x="438" y="677" type="curve"/>
      <point x="484" y="676" type="line"/>
      <point x="466" y="604"/>
      <point x="406" y="538"/>
      <point x="309" y="538" type="curve" smooth="yes"/>
      <point x="213" y="538"/>
      <point x="170" y="604"/>
    </contour>
  </outline>
</glyph>
<glyph name="Aogonek" format="2">
  <advance width="616"/>
  <unicode hex="0104"/>
  <outline>
    <contour>
      <point x="149" y="236" type="line"/>
      <point x="174" y="286" type="line"/>
      <point x="489" y="287" type="line"/>
      <point x="498" y="235" type="line"/>
    </contour>
    <contour>
      <point x="386" y="600" type="line"/>
      <point x="196" y="269" type="line"/>
      <point x="189" y="257" type="line"/>
      <point x="42" y="0" type="line"/>
      <point x="-20" y="0" type="line"/>
      <point x="406" y="728" type="line"/>
      <point x="581" y="0" type="line"/>
      <point x="521" y="0" type="line"/>
      <point x="464" y="253" type="line"/>
      <point x="462" y="266" type="line"/>
    </contour>
    <contour>
      <point x="572" y="-148" type="curve"/>
      <point x="589" y="-182" type="line"/>
      <point x="567" y="-202"/>
      <point x="534" y="-220"/>
      <point x="494" y="-220" type="curve" smooth="yes"/>
      <point x="428" y="-220"/>
      <point x="388" y="-184"/>
      <point x="396" y="-128" type="curve" smooth="yes"/>
      <point x="407" y="-58"/>
      <point x="489" y="-15"/>
      <point x="557" y="18" type="curve"/>
      <point x="582" y="0" type="line"/>
      <point x="528" y="-26"/>
      <point x="457" y="-63"/>
      <point x="449" y="-116" type="curve" smooth="yes"/>
      <point x="445" y="-152"/>
      <point x="468" y="-172"/>
      <point x="502" y="-174" type="curve" smooth="yes"/>
      <point x="530" y="-175"/>
      <point x="554" y="-162"/>
    </contour>
  </outline>
</glyph>
<glyph name="aogonek" format="2">
  <advance width="541"/>
  <unicode hex="0105"/>
  <outline>
    <contour>
      <point x="473" y="460" type="line"/>
      <point x="522" y="460" type="line"/>
      <point x="442" y="0" type="line"/>
      <point x="395" y="0" type="line"/>
    </contour>
    <contour>
      <point x="49" y="230" type="curve" smooth="yes"/>
      <point x="69" y="364"/>
      <point x="176" y="471"/>
      <point x="304" y="470" type="curve" smooth="yes"/>
      <point x="428" y="469"/>
      <point x="472" y="346"/>
      <point x="456" y="230" type="curve" smooth="yes"/>
      <point x="438" y="106"/>
      <point x="350" y="-10"/>
      <point x="226" y="-10" type="curve" smooth="yes"/>
      <point x="98" y="-10"/>
      <point x="31" y="102"/>
    </contour>
    <contour>
      <point x="102" y="230" type="curve" smooth="yes"/>
      <point x="88" y="128"/>
      <point x="136" y="40"/>
      <point x="238" y="40" type="curve" smooth="yes"/>
      <point x="332" y="40"/>
      <point x="416" y="130"/>
      <point x="432" y="230" type="curve" smooth="yes"/>
      <point x="445" y="323"/>
      <point x="398" y="418"/>
      <point x="306" y="420" type="curve" smooth="yes"/>
      <point x="204" y="422"/>
      <point x="118" y="337"/>
    </contour>
    <contour>
      <point x="434" y="-148" type="curve"/>
      <point x="450" y="-182" type="line"/>
      <point x="428" y="-202"/>
      <point x="396" y="-220"/>
      <point x="356" y="-220" type="curve" smooth="yes"/>
      <point x="290" y="-220"/>
      <point x="250" y="-184"/>
      <point x="258" y="-128" type="curve" smooth="yes"/>
      <point x="269" y="-58"/>
      <point x="350" y="-15"/>
      <point x="418" y="18" type="curve"/>
      <point x="444" y="0" type="line"/>
      <point x="390" y="-26"/>
      <point x="319" y="-63"/>
      <point x="311" y="-116" type="curve" smooth="yes"/>
      <point x="307" y="-152"/>
      <point x="330" y="-172"/>
      <point x="364" y="-174" type="curve" smooth="yes"/>
      <point x="392" y="-175"/>
      <point x="416" y="-162"/>
    </contour>
  </outline>
</glyph>
<glyph name="cacute" format="2">
  <advance width="467"/>
  <unicode hex="0107"/>
  <outline>
    <contour>
      <point x="96" y="230" type="curve" smooth="yes"/>
      <point x="80" y="132"/>
      <point x="136" y="41"/>
      <point x="240" y="40" type="curve" smooth="yes"/>
      <point x="310" y="40"/>
      <point x="372" y="75"/>
      <point x="408" y="113" type="curve"/>
      <point x="398" y="48" type="line"/>
      <point x="359" y="15"/>
      <point x="299" y="-10"/>
      <point x="235" y="-10" type="curve" smooth="yes"/>
      <point x="101" y="-10"/>
      <point x="26" y="104"/>
      <point x="44" y="230" type="curve" smooth="yes"/>
      <point x="64" y="362"/>
      <point x="178" y="470"/>
      <point x="314" y="470" type="curve" smooth="yes"/>
      <point x="374" y="470"/>
      <point x="426" y="447"/>
      <point x="458" y="411" type="curve"/>
      <point x="448" y="346" type="line"/>
      <point x="426" y="389"/>
      <point x="374" y="420"/>
      <point x="309" y="420" type="curve" smooth="yes"/>
      <point x="203" y="420"/>
      <point x="114" y="334"/>
    </contour>
    <contour>
      <point x="485" y="685" type="line"/>
      <point x="288" y="535" type="line"/>
      <point x="260" y="556" type="line"/>
      <point x="441" y="714" type="line"/>
    </contour>
  </outline>
</glyph>
<glyph name="ccircumflex" format="2">
  <advance width="467"/>
  <unicode hex="0109"/>
  <outline>
    <contour>
      <point x="96" y="230" type="curve" smooth="yes"/>
      <point x="80" y="132"/>
      <point x="136" y="41"/>
      <point x="240" y="40" type="curve" smooth="yes"/>
      <point x="310" y="40"/>
      <point x="372" y="75"/>
      <point x="408" y="113" type="curve"/>
      <point x="398" y="48" type="line"/>
      <point x="359" y="15"/>
      <point x="299" y="-10"/>
      <point x="235" y="-10" type="curve" smooth="yes"/>
      <point x="101" y="-10"/>
      <point x="26" y="104"/>
      <point x="44" y="230" type="curve" smooth="yes"/>
      <point x="64" y="362"/>
      <point x="178" y="470"/>
      <point x="314" y="470" type="curve" smooth="yes"/>
      <point x="374" y="470"/>
      <point x="426" y="447"/>
      <point x="458" y="411" type="curve"/>
      <point x="448" y="346" type="line"/>
      <point x="426" y="389"/>
      <point x="374" y="420"/>
      <point x="309" y="420" type="curve" smooth="yes"/>
      <point x="203" y="420"/>
      <point x="114" y="334"/>
    </contour>
    <contour>
      <point x="346" y="640" type="line"/>
      <point x="203" y="530" type="line"/>
      <point x="174" y="558" type="line"/>
      <point x="352" y="696" type="line"/>
      <point x="486" y="556" type="line"/>
      <point x="450" y="530" type="line"/>
    </contour>
  </outline>
</glyph>
<glyph name="Cdotaccent" format="2">
  <advance width="664"/>
  <unicode hex="010A"/>
  <outline>
    <contour>
      <point x="133" y="350" type="curve" smooth="yes"/>
      <point x="109" y="194"/>
      <point x="192" y="50"/>
      <point x="354" y="48" type="curve" smooth="yes"/>
      <point x="450" y="47"/>
      <point x="527" y="86"/>
      <point x="590" y="142" type="curve"/>
      <point x="578" y="68" type="line"/>
      <point x="512" y="19"/>
      <point x="442" y="-9"/>
      <point x="348" y="-9" type="curve" smooth="yes"/>
      <point x="152" y="-8"/>
      <point x="46" y="163"/>
      <point x="74" y="350" type="curve" smooth="yes"/>
      <point x="104" y="547"/>
      <point x="268" y="708"/>
      <point x="466" y="709" type="curve" smooth="yes"/>
      <point x="555" y="709"/>
      <point x="618" y="684"/>
      <point x="674" y="631" type="curve"/>
      <point x="662" y="558" type="line"/>
      <point x="616" y="620"/>
      <point x="547" y="653"/>
      <point x="461" y="653" type="curve" smooth="yes"/>
      <point x="297" y="653"/>
      <point x="160" y="516"/>
    </contour>
    <contour>
      <point x="450" y="812" type="curve" smooth="yes"/>
      <point x="452" y="830"/>
      <point x="474" y="849"/>
      <point x="492" y="848" type="curve" smooth="yes"/>
      <point x="511" y="847"/>
      <point x="524" y="830"/>
      <point x="522" y="810" type="curve" smooth="yes"/>
      <point x="520" y="792"/>
      <point x="498" y="773"/>
      <point x="480" y="774" type="curve" smooth="yes"/>
      <point x="461" y="775"/>
      <point x="448" y="792"/>
    </contour>
  </outline>
</glyph>
<glyph name="cdotaccent" format="2">
  <advance width="467"/>
  <unicode hex="010B"/>
  <outline>
    <contour>
      <point x="96" y="230" type="curve" smooth="yes"/>
      <point x="80" y="132"/>
      <point x="136" y="41"/>
      <point x="240" y="40" type="curve" smooth="yes"/>
      <point x="310" y="40"/>
      <point x="372" y="75"/>
      <point x="408" y="113" type="curve"/>
      <point x="398" y="48" type="line"/>
      <point x="359" y="15"/>
      <point x="299" y="-10"/>
      <point x="235" y="-10" type="curve" smooth="yes"/>
      <point x="101" y="-10"/>
      <point x="26" y="104"/>
      <point x="44" y="230" type="curve" smooth="yes"/>
      <point x="64" y="362"/>
      <point x="178" y="470"/>
      <point x="314" y="470" type="curve" smooth="yes"/>
      <point x="374" y="470"/>
      <point x="426" y="447"/>
      <point x="458" y="411" type="curve"/>
      <point x="448" y="346" type="line"/>
      <point x="426" y="389"/>
      <point x="374" y="420"/>
      <point x="309" y="420" type="curve" smooth="yes"/>
      <point x="203" y="420"/>
      <point x="114" y="334"/>
    </contour>
    <contour>
      <point x="296" y="572" type="curve" smooth="yes"/>
      <point x="298" y="590"/>
      <point x="320" y="609"/>
      <point x="338" y="608" type="curve" smooth="yes"/>
      <point x="357" y="607"/>
      <point x="370" y="590"/>
      <point x="368" y="570" type="curve" smooth="yes"/>
      <point x="366" y="552"/>
      <point x="344" y="533"/>
      <point x="326" y="534" type="curve" smooth="yes"/>
      <point x="307" y="535"/>
      <point x="294" y="552"/>
    </contour>
  </outline>
</glyph>
<glyph name="Dcaron" format="2">
  <advance width="642"/>
  <unicode hex="010E"/>
  <outline>
    <contour>
      <point x="173" y="700" type="line"/>
      <point x="228" y="700" type="line"/>
      <point x="108" y="0" type="line"/>
      <point x="54" y="0" type="line"/>
    </contour>
    <contour>
      <point x="241" y="0" type="curve"/>
      <point x="83" y="0" type="line"/>
      <point x="92" y="55" type="line"/>
      <point x="246" y="55" type="line"/>
      <point x="420" y="58"/>
      <point x="550" y="180"/>
      <point x="578" y="350" type="curve" smooth="yes"/>
      <point x="604" y="512"/>
      <point x="521" y="641"/>
      <point x="350" y="645" type="curve"/>
      <point x="193" y="645" type="line"/>
      <point x="202" y="700" type="line"/>
      <point x="356" y="700" type="line"/>
      <point x="556" y="696"/>
      <point x="661" y="540"/>
      <point x="633" y="350" type="curve" smooth="yes"/>
      <point x="602" y="151"/>
      <point x="445" y="3"/>
    </contour>
    <contour>
      <point x="430" y="838" type="line"/>
      <point x="572" y="948" type="line"/>
      <point x="602" y="920" type="line"/>
      <point x="423" y="782" type="line"/>
      <point x="290" y="922" type="line"/>
      <point x="325" y="948" type="line"/>
    </contour>
  </outline>
</glyph>
<glyph name="dcaron" format="2">
  <advance width="553"/>
  <unicode hex="010F"/>
  <outline>
    <contour>
      <point x="524" y="780" type="line"/>
      <point x="577" y="780" type="line"/>
      <point x="442" y="0" type="line"/>
      <point x="392" y="0" type="line"/>
    </contour>
    <contour>
      <point x="49" y="230" type="curve" smooth="yes"/>
      <point x="69" y="364"/>
      <point x="176" y="471"/>
      <point x="304" y="470" type="curve" smooth="yes"/>
      <point x="428" y="469"/>
      <point x="472" y="346"/>
      <point x="456" y="230" type="curve" smooth="yes"/>
      <point x="438" y="106"/>
      <point x="350" y="-10"/>
      <point x="226" y="-10" type="curve" smooth="yes"/>
      <point x="98" y="-10"/>
      <point x="31" y="102"/>
    </contour>
    <contour>
      <point x="102" y="230" type="curve" smooth="yes"/>
      <point x="88" y="128"/>
      <point x="136" y="40"/>
      <point x="238" y="40" type="curve" smooth="yes"/>
      <point x="332" y="40"/>
      <point x="416" y="130"/>
      <point x="432" y="230" type="curve" smooth="yes"/>
      <point x="445" y="323"/>
      <point x="398" y="418"/>
      <point x="306" y="420" type="curve" smooth="yes"/>
      <point x="204" y="422"/>
      <point x="118" y="337"/>
    </contour>
    <contour>
      <point x="718" y="773" type="line"/>
      <point x="768" y="752" type="line"/>
      <point x="618" y="505" type="line"/>
      <point x="582" y="518" type="line"/>
    </contour>
  </outline>
</glyph>
<glyph name="dcroat" format="2">
  <advance width="541"/>
  <unicode hex="0111"/>
  <outline>
    <contour>
      <point x="364" y="616" type="line"/>
      <point x="372" y="665" type="line"/>
      <point x="665" y="665" type="line"/>
      <point x="656" y="616" type="line"/>
    </contour>
    <contour>
      <point x="524" y="780" type="line"/>
      <point x="577" y="780" type="line"/>
      <point x="442" y="0" type="line"/>
      <point x="392" y="0" type="line"/>
    </contour>
    <contour>
      <point x="49" y="230" type="curve" smooth="yes"/>
      <point x="69" y="364"/>
      <point x="176" y="471"/>
      <point x="304" y="470" type="curve" smooth="yes"/>
      <point x="426" y="469"/>
      <point x="472" y="348"/>
      <point x="456" y="230" type="curve" smooth="yes"/>
      <point x="438" y="104"/>
      <point x="348" y="-10"/>
      <point x="226" y="-10" type="curve" smooth="yes"/>
      <point x="98" y="-10"/>
      <point x="31" y="102"/>
    </contour>
    <contour>
      <point x="102" y="230" type="curve" smooth="yes"/>
      <point x="88" y="128"/>
      <point x="136" y="40"/>
      <point x="238" y="40" type="curve" smooth="yes"/>
      <point x="333" y="40"/>
      <point x="416" y="132"/>
      <point x="432" y="230" type="curve" smooth="yes"/>
      <point x="445" y="321"/>
      <point x="400" y="418"/>
      <point x="306" y="420" type="curve" smooth="yes"/>
      <point x="204" y="422"/>
      <point x="118" y="336"/>
    </contour>
  </outline>
</glyph>
